<svg width="120" height="40" viewBox="0 0 120 40" fill="none" xmlns="http://www.w3.org/2000/svg">
<path d="M110.444 0.00013H9.56145C9.19372 0.00013 8.8304 0.00013 8.46364 0.00213C8.15663 0.00413 7.85207 0.00994 7.54211 0.01483C6.86874 0.0227318 6.19695 0.0818063 5.53259 0.19154C4.86915 0.303663 4.2265 0.515046 3.62637 0.81854C3.02697 1.1246 2.47929 1.5223 2.00318 1.9972C1.52457 2.47077 1.12561 3.01815 0.82165 3.61829C0.516847 4.21724 0.305496 4.85907 0.194896 5.52161C0.083244 6.18332 0.0231632 6.85265 0.0151925 7.52361C0.00588648 7.83021 0.00490373 8.13783 0 8.44447V31.5587C0.00490373 31.8692 0.00588648 32.17 0.0151925 32.4806C0.0231657 33.1516 0.0832464 33.8209 0.194896 34.4825C0.30519 35.1455 0.516554 35.7877 0.82165 36.3868C1.12548 36.985 1.52449 37.5302 2.00318 38.0011C2.47748 38.4781 3.02552 38.8761 3.62637 39.1798C4.2265 39.4841 4.86908 39.6968 5.53259 39.8106C6.19707 39.9195 6.86879 39.9786 7.54211 39.9874C7.85207 39.9942 8.15663 39.9981 8.46364 39.9981C8.83039 40.0001 9.19374 40.0001 9.56145 40.0001H110.444C110.804 40.0001 111.171 40.0001 111.531 39.9981C111.837 39.9981 112.15 39.9942 112.455 39.9874C113.128 39.9791 113.798 39.92 114.461 39.8106C115.127 39.696 115.772 39.4834 116.375 39.1798C116.975 38.8759 117.522 38.478 117.996 38.0011C118.474 37.5284 118.874 36.9836 119.181 36.3868C119.484 35.7872 119.693 35.1451 119.802 34.4825C119.914 33.8208 119.976 33.1516 119.988 32.4806C119.992 32.17 119.992 31.8692 119.992 31.5587C120 31.1954 120 30.8341 120 30.4649V9.53626C120 9.17005 120 8.80677 119.992 8.44447C119.992 8.13783 119.992 7.83021 119.988 7.52357C119.976 6.85255 119.914 6.18337 119.802 5.52157C119.693 4.85941 119.484 4.21763 119.181 3.61825C118.562 2.41533 117.581 1.43616 116.375 0.81845C115.772 0.515697 115.127 0.30437 114.461 0.19145C113.798 0.0812328 113.128 0.0221378 112.455 0.01469C112.15 0.00981 111.837 0.00395 111.531 0.002C111.171 0 110.804 0 110.444 0V0.00013Z" fill="#A6A6A6"/>
<path d="M8.46808 39.125C8.16254 39.125 7.86439 39.1211 7.56125 39.1143C6.93327 39.1061 6.30676 39.0516 5.68686 38.9512C5.10883 38.8519 4.54888 38.6673 4.02547 38.4033C3.50686 38.1415 3.03385 37.7983 2.62455 37.3867C2.20933 36.98 1.86363 36.5082 1.60117 35.9902C1.33582 35.4688 1.15218 34.9099 1.05665 34.333C0.953484 33.7131 0.897668 33.0863 0.889681 32.458C0.883323 32.2471 0.875 31.5449 0.875 31.5449V8.44434C0.875 8.44434 0.883865 7.75293 0.889731 7.5498C0.897379 6.92248 0.95287 6.29665 1.05573 5.67773C1.15143 5.09925 1.33522 4.53875 1.60071 4.01563C1.86221 3.49794 2.20598 3.02586 2.6187 2.61768C3.03096 2.20562 3.50549 1.8606 4.02498 1.59521C4.54718 1.33209 5.10608 1.14873 5.68294 1.05127C6.30488 0.949836 6.93356 0.894996 7.56371 0.88721L8.46857 0.875H111.526L112.441 0.8877C113.066 0.895099 113.689 0.94945 114.305 1.05029C114.888 1.14898 115.452 1.33362 115.98 1.59814C117.021 2.13299 117.868 2.97916 118.402 4.01807C118.664 4.53758 118.844 5.09351 118.939 5.66699C119.043 6.29099 119.101 6.92174 119.113 7.5542C119.116 7.8374 119.116 8.1416 119.116 8.44434C119.124 8.81934 119.124 9.17627 119.124 9.53613V30.4648C119.124 30.8281 119.124 31.1826 119.116 31.54C119.116 31.8652 119.116 32.1631 119.112 32.4697C119.101 33.0909 119.043 33.7104 118.941 34.3232C118.847 34.9043 118.665 35.4675 118.399 35.9932C118.135 36.5056 117.791 36.9733 117.381 37.3789C116.971 37.7927 116.497 38.1379 115.978 38.4014C115.451 38.6674 114.887 38.8527 114.305 38.9512C113.685 39.0522 113.058 39.1067 112.43 39.1143C112.137 39.1211 111.829 39.125 111.531 39.125L110.443 39.127L8.46808 39.125Z" fill="black"/>
<path d="M24.8389 20.3003C24.8496 19.4657 25.072 18.6473 25.4851 17.9213C25.8983 17.1954 26.4889 16.5854 27.202 16.1483C26.749 15.5031 26.1514 14.9722 25.4566 14.5976C24.7619 14.2231 23.9891 14.0152 23.1997 13.9906C21.5157 13.8143 19.8832 14.9954 19.0251 14.9954C18.1504 14.9954 16.8292 14.0081 15.4064 14.0373C14.4862 14.0669 13.5893 14.3338 12.8033 14.8118C12.0172 15.2899 11.3687 15.9629 10.921 16.7651C8.98154 20.1136 10.4282 25.0346 12.286 27.7412C13.2155 29.0666 14.3018 30.547 15.7232 30.4945C17.1142 30.437 17.6337 29.61 19.3127 29.61C20.9761 29.61 21.4635 30.4945 22.9138 30.4611C24.4063 30.437 25.3467 29.1299 26.2436 27.792C26.9115 26.8476 27.4254 25.8039 27.7663 24.6995C26.8992 24.3338 26.1592 23.7216 25.6386 22.9393C25.118 22.157 24.8399 21.2392 24.8389 20.3003V20.3003Z" fill="white"/>
<path d="M22.0994 12.2113C22.9132 11.2371 23.3142 9.98494 23.2171 8.7207C21.9738 8.85092 20.8253 9.44348 20.0005 10.3803C19.5972 10.838 19.2884 11.3704 19.0916 11.9472C18.8948 12.524 18.8139 13.1337 18.8536 13.7417C19.4754 13.7481 20.0907 13.6137 20.6529 13.3486C21.2151 13.0835 21.7097 12.6946 22.0994 12.2113Z" fill="white"/>
<path d="M42.4205 27.1397H37.6739L36.5339 30.4961H34.5234L39.0194 18.0781H41.1083L45.6043 30.4961H43.5595L42.4205 27.1397ZM38.1655 25.5908H41.928L40.0732 20.1436H40.0213L38.1655 25.5908Z" fill="white"/>
<path d="M55.314 25.9695C55.314 28.7829 53.8039 30.5905 51.5251 30.5905C50.9478 30.6207 50.3737 30.4881 49.8685 30.2079C49.3633 29.9278 48.9474 29.5114 48.6685 29.0065H48.6253V33.4909H46.7617V21.4421H48.5656V22.948H48.5999C48.8917 22.4455 49.3146 22.0313 49.8236 21.7495C50.3327 21.4676 50.9089 21.3287 51.4908 21.3474C53.7951 21.3474 55.314 23.1638 55.314 25.9695ZM53.3985 25.9695C53.3985 24.1365 52.4486 22.9314 50.9992 22.9314C49.5753 22.9314 48.6175 24.1618 48.6175 25.9695C48.6175 27.7937 49.5753 29.0154 50.9992 29.0154C52.4486 29.0154 53.3985 27.8191 53.3985 25.9695Z" fill="white"/>
<path d="M65.3062 25.9694C65.3062 28.7829 63.7961 30.5905 61.5173 30.5905C60.94 30.6206 60.3659 30.488 59.8607 30.2079C59.3555 29.9278 58.9396 29.5114 58.6606 29.0065H58.6175V33.4909H56.7539V21.4421H58.5578V22.948H58.5921C58.8838 22.4455 59.3067 22.0313 59.8158 21.7495C60.3249 21.4676 60.901 21.3287 61.483 21.3474C63.7873 21.3474 65.3062 23.1638 65.3062 25.9694ZM63.3907 25.9694C63.3907 24.1364 62.4407 22.9314 60.9914 22.9314C59.5675 22.9314 58.6097 24.1618 58.6097 25.9694C58.6097 27.7937 59.5675 29.0153 60.9914 29.0153C62.4408 29.0153 63.3907 27.8191 63.3907 25.9694H63.3907Z" fill="white"/>
<path d="M71.9116 27.0362C72.0497 28.2676 73.2494 29.0762 74.8887 29.0762C76.4595 29.0762 77.5896 28.2676 77.5896 27.1572C77.5896 26.1934 76.908 25.6162 75.2941 25.2207L73.6803 24.833C71.3936 24.2822 70.332 23.2158 70.332 21.4854C70.332 19.3428 72.2044 17.8711 74.8632 17.8711C77.4946 17.8711 79.2985 19.3428 79.3592 21.4854H77.478C77.3653 20.2461 76.3381 19.4981 74.8368 19.4981C73.3355 19.4981 72.3082 20.2549 72.3082 21.3565C72.3082 22.2344 72.9644 22.751 74.5694 23.1465L75.9414 23.4824C78.4964 24.0849 79.558 25.1084 79.558 26.9248C79.558 29.248 77.7022 30.7031 74.7506 30.7031C71.989 30.7031 70.1244 29.2822 70.0039 27.0361L71.9116 27.0362Z" fill="white"/>
<path d="M83.5792 19.3008V21.4434H85.3058V22.915H83.5792V27.9062C83.5792 28.6816 83.9249 29.043 84.6839 29.043C84.8889 29.0394 85.0935 29.0251 85.2969 29V30.4629C84.9557 30.5264 84.6089 30.5552 84.2618 30.5488C82.4237 30.5488 81.7068 29.8603 81.7068 28.1045V22.915H80.3867V21.4434H81.7068V19.3008H83.5792Z" fill="white"/>
<path d="M86.3066 25.9707C86.3066 23.1221 87.9891 21.332 90.6126 21.332C93.245 21.332 94.9196 23.122 94.9196 25.9707C94.9196 28.8272 93.2538 30.6094 90.6126 30.6094C87.9724 30.6094 86.3066 28.8271 86.3066 25.9707ZM93.0207 25.9707C93.0207 24.0166 92.1227 22.8633 90.6126 22.8633C89.1025 22.8633 88.2055 24.0254 88.2055 25.9707C88.2055 27.9326 89.1025 29.0772 90.6126 29.0772C92.1227 29.0772 93.0207 27.9326 93.0207 25.9707H93.0207Z" fill="white"/>
<path d="M96.4551 21.442H98.2325V22.983H98.2756C98.3959 22.5017 98.6786 22.0764 99.0763 21.7785C99.474 21.4806 99.9625 21.3284 100.459 21.3473C100.674 21.3465 100.888 21.3698 101.098 21.4166V23.1549C100.827 23.0723 100.544 23.0343 100.261 23.0426C99.9899 23.0316 99.72 23.0792 99.4695 23.1821C99.2189 23.285 98.9937 23.4408 98.8092 23.6386C98.6247 23.8365 98.4853 24.0719 98.4007 24.3286C98.316 24.5852 98.288 24.8571 98.3187 25.1256V30.4957H96.4551L96.4551 21.442Z" fill="white"/>
<path d="M109.69 27.8379C109.439 29.4814 107.834 30.6094 105.781 30.6094C103.139 30.6094 101.5 28.8447 101.5 26.0137C101.5 23.1738 103.148 21.332 105.702 21.332C108.214 21.332 109.794 23.0527 109.794 25.7978V26.4346H103.381V26.5469C103.352 26.8801 103.393 27.2157 103.504 27.5316C103.614 27.8474 103.791 28.1362 104.022 28.3787C104.253 28.6213 104.533 28.8121 104.844 28.9384C105.154 29.0647 105.488 29.1236 105.824 29.1113C106.264 29.1525 106.706 29.0508 107.084 28.8213C107.462 28.5919 107.755 28.247 107.92 27.8379L109.69 27.8379ZM103.39 25.1357H107.929C107.946 24.8361 107.9 24.5363 107.795 24.2551C107.69 23.9739 107.528 23.7174 107.319 23.5016C107.11 23.2858 106.858 23.1155 106.58 23.0013C106.302 22.8871 106.003 22.8314 105.702 22.8379C105.399 22.8361 105.098 22.8942 104.817 23.009C104.536 23.1237 104.281 23.2928 104.066 23.5064C103.851 23.72 103.681 23.974 103.565 24.2537C103.449 24.5333 103.389 24.8331 103.39 25.1357V25.1357Z" fill="white"/>
<path d="M37.9328 8.73138C38.3235 8.70342 38.7156 8.76228 39.0807 8.90371C39.4458 9.04515 39.7749 9.26563 40.0443 9.54925C40.3136 9.83288 40.5165 10.1726 40.6382 10.5438C40.76 10.9151 40.7976 11.3087 40.7483 11.6962C40.7483 13.6025 39.7151 14.6982 37.9328 14.6982H35.7715V8.73138H37.9328ZM36.7008 13.8544H37.829C38.1082 13.871 38.3876 13.8254 38.6468 13.7208C38.9061 13.6161 39.1387 13.4552 39.3277 13.2496C39.5168 13.0441 39.6574 12.7991 39.7395 12.5324C39.8216 12.2658 39.8431 11.9843 39.8023 11.7084C39.8401 11.4335 39.8165 11.1538 39.7331 10.8891C39.6498 10.6244 39.5088 10.3814 39.3202 10.1775C39.1316 9.97358 38.9001 9.81378 38.6423 9.70954C38.3845 9.6053 38.1068 9.55922 37.829 9.57459H36.7008V13.8544Z" fill="white"/>
<path d="M41.7972 12.4458C41.7688 12.1498 41.8027 11.8513 41.8968 11.5692C41.9909 11.2871 42.1431 11.0278 42.3436 10.8078C42.5441 10.5878 42.7885 10.4121 43.0612 10.2918C43.3338 10.1715 43.6286 10.1094 43.9267 10.1094C44.2248 10.1094 44.5196 10.1715 44.7922 10.2918C45.0648 10.4121 45.3092 10.5878 45.5097 10.8078C45.7102 11.0278 45.8624 11.2871 45.9565 11.5692C46.0506 11.8513 46.0846 12.1498 46.0562 12.4458C46.0851 12.742 46.0516 13.041 45.9577 13.3235C45.8639 13.606 45.7118 13.8658 45.5112 14.0862C45.3107 14.3067 45.0661 14.4828 44.7932 14.6033C44.5203 14.7239 44.2251 14.7861 43.9267 14.7861C43.6282 14.7861 43.3331 14.7239 43.0602 14.6033C42.7873 14.4828 42.5427 14.3067 42.3422 14.0862C42.1416 13.8658 41.9895 13.606 41.8957 13.3235C41.8018 13.041 41.7683 12.742 41.7972 12.4458V12.4458ZM45.1395 12.4458C45.1395 11.4697 44.6998 10.8989 43.9281 10.8989C43.1535 10.8989 42.7178 11.4697 42.7178 12.4458C42.7178 13.4297 43.1535 13.9961 43.9281 13.9961C44.6998 13.996 45.1396 13.4257 45.1396 12.4458H45.1395Z" fill="white"/>
<path d="M51.7191 14.6982H50.7947L49.8614 11.3818H49.7909L48.8615 14.6982H47.9459L46.7012 10.1953H47.6051L48.414 13.6313H48.4806L49.409 10.1953H50.2639L51.1923 13.6313H51.2628L52.0678 10.1953H52.9589L51.7191 14.6982Z" fill="white"/>
<path d="M54.0059 10.1949H54.8637V10.9102H54.9303C55.0433 10.6533 55.2338 10.4379 55.4754 10.2941C55.7169 10.1503 55.9975 10.0852 56.2778 10.1079C56.4976 10.0915 56.7182 10.1245 56.9234 10.2046C57.1285 10.2847 57.313 10.4098 57.4631 10.5707C57.6132 10.7315 57.7251 10.924 57.7905 11.1338C57.8559 11.3436 57.8731 11.5654 57.8408 11.7827V14.6977H56.9497V12.0059C56.9497 11.2823 56.6343 10.9224 55.9752 10.9224C55.8261 10.9155 55.6772 10.9408 55.5387 10.9966C55.4003 11.0525 55.2756 11.1375 55.1732 11.2459C55.0707 11.3543 54.993 11.4834 54.9454 11.6246C54.8977 11.7657 54.8812 11.9154 54.897 12.0635V14.6978H54.0059L54.0059 10.1949Z" fill="white"/>
<path d="M59.2598 8.4375H60.1509V14.6982H59.2598V8.4375Z" fill="white"/>
<path d="M61.3909 12.4439C61.3625 12.1479 61.3965 11.8494 61.4906 11.5673C61.5848 11.2852 61.737 11.0259 61.9375 10.8059C62.138 10.5859 62.3824 10.4101 62.6551 10.2898C62.9277 10.1696 63.2225 10.1074 63.5207 10.1074C63.8188 10.1074 64.1136 10.1696 64.3862 10.2898C64.6589 10.4101 64.9033 10.5859 65.1038 10.8059C65.3043 11.0259 65.4565 11.2852 65.5507 11.5673C65.6448 11.8494 65.6788 12.1479 65.6504 12.4439C65.6793 12.7401 65.6457 13.0391 65.5518 13.3216C65.4579 13.6042 65.3058 13.864 65.1052 14.0844C64.9047 14.3048 64.6601 14.4809 64.3872 14.6014C64.1143 14.722 63.8191 14.7842 63.5207 14.7842C63.2222 14.7842 62.927 14.722 62.6541 14.6014C62.3812 14.4809 62.1366 14.3048 61.9361 14.0844C61.7355 13.864 61.5834 13.6042 61.4895 13.3216C61.3956 13.0391 61.362 12.7401 61.3909 12.4439V12.4439ZM64.7333 12.4439C64.7333 11.4678 64.2936 10.897 63.5219 10.897C62.7472 10.897 62.3115 11.4678 62.3115 12.4439C62.3115 13.4278 62.7473 13.9942 63.5219 13.9942C64.2936 13.9942 64.7333 13.4239 64.7333 12.4439H64.7333Z" fill="white"/>
<path d="M66.5879 13.4258C66.5879 12.6152 67.1931 12.1479 68.2674 12.0815L69.4905 12.0112V11.6226C69.4905 11.147 69.1752 10.8784 68.5661 10.8784C68.0686 10.8784 67.7239 11.0605 67.625 11.3789H66.7622C66.8533 10.6055 67.5829 10.1094 68.6072 10.1094C69.7393 10.1094 70.3778 10.6714 70.3778 11.6226V14.6992H69.5199V14.0664H69.4494C69.3063 14.2934 69.1053 14.4784 68.867 14.6027C68.6288 14.7269 68.3617 14.7858 68.0931 14.7734C67.9035 14.7931 67.7119 14.7729 67.5307 14.7142C67.3494 14.6555 67.1825 14.5596 67.0406 14.4326C66.8988 14.3056 66.7853 14.1504 66.7073 13.977C66.6293 13.8036 66.5886 13.6158 66.5879 13.4258V13.4258ZM69.4905 13.041V12.6645L68.3878 12.7349C67.766 12.7764 67.4839 12.9873 67.4839 13.3843C67.4839 13.7895 67.8365 14.0254 68.3213 14.0254C68.4633 14.0397 68.6068 14.0254 68.7432 13.9833C68.8796 13.9412 69.0061 13.8722 69.1152 13.7804C69.2243 13.6885 69.3137 13.5757 69.3782 13.4487C69.4427 13.3217 69.4809 13.183 69.4905 13.041V13.041Z" fill="white"/>
<path d="M71.5488 12.4448C71.5488 11.022 72.2823 10.1206 73.4232 10.1206C73.7054 10.1077 73.9855 10.1751 74.2307 10.315C74.4759 10.4548 74.6761 10.6615 74.808 10.9106H74.8746V8.4375H75.7657V14.6982H74.9118V13.9868H74.8413C74.6993 14.2343 74.4921 14.4383 74.2421 14.5768C73.9922 14.7153 73.709 14.783 73.4232 14.7724C72.2745 14.7725 71.5488 13.8711 71.5488 12.4448ZM72.4694 12.4448C72.4694 13.3999 72.9209 13.9746 73.6759 13.9746C74.427 13.9746 74.8912 13.3916 74.8912 12.4487C74.8912 11.5103 74.4221 10.919 73.6759 10.919C72.9257 10.919 72.4694 11.4976 72.4694 12.4448H72.4694Z" fill="white"/>
<path d="M79.4534 12.4458C79.425 12.1498 79.459 11.8513 79.5531 11.5692C79.6472 11.2871 79.7994 11.0278 79.9999 10.8078C80.2004 10.5878 80.4448 10.4121 80.7174 10.2918C80.99 10.1715 81.2848 10.1094 81.5829 10.1094C81.881 10.1094 82.1758 10.1715 82.4485 10.2918C82.7211 10.4121 82.9655 10.5878 83.166 10.8078C83.3665 11.0278 83.5187 11.2871 83.6128 11.5692C83.7069 11.8513 83.7408 12.1498 83.7124 12.4458C83.7414 12.742 83.7078 13.041 83.614 13.3235C83.5201 13.606 83.368 13.8658 83.1675 14.0862C82.9669 14.3067 82.7223 14.4828 82.4494 14.6033C82.1765 14.7239 81.8814 14.7861 81.5829 14.7861C81.2845 14.7861 80.9893 14.7239 80.7164 14.6033C80.4435 14.4828 80.199 14.3067 79.9984 14.0862C79.7978 13.8658 79.6458 13.606 79.5519 13.3235C79.458 13.041 79.4245 12.742 79.4534 12.4458V12.4458ZM82.7958 12.4458C82.7958 11.4697 82.3561 10.8989 81.5844 10.8989C80.8098 10.8989 80.374 11.4697 80.374 12.4458C80.374 13.4297 80.8098 13.9961 81.5844 13.9961C82.3561 13.996 82.7958 13.4257 82.7958 12.4458Z" fill="white"/>
<path d="M84.9082 10.1949H85.7661V10.9102H85.8327C85.9456 10.6533 86.1362 10.4379 86.3777 10.2941C86.6193 10.1503 86.8998 10.0852 87.1802 10.1079C87.3999 10.0915 87.6205 10.1245 87.8257 10.2046C88.0309 10.2847 88.2153 10.4098 88.3654 10.5707C88.5155 10.7315 88.6274 10.924 88.6928 11.1338C88.7582 11.3436 88.7754 11.5654 88.7432 11.7827V14.6977H87.852V12.0059C87.852 11.2823 87.5367 10.9224 86.8776 10.9224C86.7284 10.9155 86.5795 10.9408 86.441 10.9966C86.3026 11.0525 86.1779 11.1375 86.0755 11.2459C85.9731 11.3543 85.8954 11.4834 85.8477 11.6246C85.8001 11.7657 85.7836 11.9154 85.7994 12.0635V14.6978H84.9082V10.1949Z" fill="white"/>
<path d="M93.7789 9.07422V10.2158H94.7572V10.9644H93.7789V13.2798C93.7789 13.7515 93.9738 13.958 94.4174 13.958C94.531 13.9576 94.6445 13.9508 94.7572 13.9375V14.6777C94.5972 14.7063 94.4351 14.7215 94.2725 14.7231C93.2814 14.7231 92.8868 14.3755 92.8868 13.5073V10.9643H92.1699V10.2158H92.8868V9.07422H93.7789Z" fill="white"/>
<path d="M95.9746 8.4375H96.8579V10.919H96.9284C97.0469 10.6596 97.2427 10.443 97.4891 10.2987C97.7355 10.1543 98.0205 10.0893 98.3053 10.1123C98.5239 10.1004 98.7424 10.1368 98.9452 10.2189C99.1481 10.3009 99.3303 10.4266 99.4788 10.5869C99.6273 10.7473 99.7386 10.9383 99.8045 11.1465C99.8705 11.3546 99.8896 11.5747 99.8604 11.791V14.6982H98.9684V12.0103C98.9684 11.291 98.6324 10.9268 98.0028 10.9268C97.8496 10.9142 97.6956 10.9352 97.5514 10.9883C97.4072 11.0413 97.2764 11.1252 97.1681 11.2339C97.0598 11.3426 96.9766 11.4737 96.9244 11.6178C96.8722 11.7619 96.8522 11.9157 96.8658 12.0683V14.6982H95.9746L95.9746 8.4375Z" fill="white"/>
<path d="M105.056 13.4815C104.935 13.8931 104.673 14.249 104.315 14.4872C103.957 14.7253 103.527 14.8305 103.099 14.7842C102.802 14.7921 102.506 14.7353 102.233 14.6177C101.96 14.5002 101.715 14.3248 101.517 14.1036C101.318 13.8825 101.171 13.6209 101.084 13.3371C100.997 13.0533 100.973 12.754 101.013 12.46C100.974 12.1652 100.998 11.8652 101.085 11.5805C101.172 11.2959 101.319 11.0331 101.516 10.81C101.714 10.587 101.957 10.4088 102.229 10.2876C102.502 10.1664 102.797 10.105 103.095 10.1075C104.352 10.1075 105.11 10.9635 105.11 12.3775V12.6876H101.921V12.7374C101.907 12.9026 101.928 13.069 101.982 13.2257C102.037 13.3825 102.123 13.5262 102.236 13.6476C102.35 13.7691 102.487 13.8656 102.64 13.931C102.793 13.9964 102.958 14.0292 103.124 14.0274C103.337 14.0529 103.553 14.0146 103.744 13.9174C103.936 13.8202 104.094 13.6685 104.198 13.4815L105.056 13.4815ZM101.921 12.0303H104.202C104.213 11.8792 104.193 11.7274 104.142 11.5847C104.09 11.442 104.01 11.3115 103.905 11.2016C103.801 11.0918 103.674 11.005 103.534 10.9468C103.393 10.8886 103.242 10.8604 103.09 10.8638C102.936 10.8619 102.783 10.8908 102.641 10.9487C102.498 11.0067 102.368 11.0925 102.259 11.2012C102.15 11.3099 102.064 11.4393 102.006 11.5817C101.948 11.7241 101.919 11.8766 101.921 12.0303H101.921Z" fill="white"/>
</svg>
