<svg width="103" height="41" viewBox="0 0 103 41" fill="none" xmlns="http://www.w3.org/2000/svg">
<path fill-rule="evenodd" clip-rule="evenodd" d="M25.0383 35.4807V25.8459C25.0383 20.5584 20.6912 16.2099 15.4036 16.2099C10.1173 16.2099 5.77271 20.5584 5.77271 25.8459C5.77271 31.1335 10.116 35.4807 15.4036 35.4807H25.0383ZM89.39 23.0862C88.1728 19.0542 84.4188 16.2099 80.1639 16.2099C75.909 16.2099 72.1563 19.0555 70.9392 23.0862H89.39ZM30.5591 41.0002H15.3754C7.04752 41.0002 0.251953 34.1649 0.251953 25.8459C0.251953 17.5091 7.06802 10.6904 15.4036 10.6904C23.7392 10.6904 30.5591 17.5104 30.5591 25.8459V41.0002ZM67.3543 33.915C65.822 31.4987 65.0097 28.7133 65.0097 25.8459C65.0097 17.5104 71.8283 10.6904 80.1639 10.6904C89.4861 10.6904 96.6442 19.1285 95.1132 28.3251L95.0658 28.607H70.9405C72.1576 32.6364 75.9129 35.4794 80.1652 35.4794H97.2323V0.998047H102.749V41.0002H80.0845C76.8443 41.0002 73.7322 39.9342 71.1429 38.0034C68.5548 39.9329 65.4364 41.0002 62.1974 41.0002H62.0885C53.7606 41.0002 46.9599 34.1662 46.9599 25.8459V16.2163C41.8274 16.397 37.6686 20.6737 37.6686 25.8459V41.0002H32.1465V25.8459C32.1465 17.6244 38.7794 10.8749 46.9599 10.6943V0.998047H52.4833V10.6904H60.6549V16.2099H52.4833V25.8459C52.4833 31.1361 56.8266 35.4807 62.1167 35.4807C63.9873 35.4807 65.7951 34.9349 67.3543 33.915Z" fill="#67B437"/>
</svg>
