<svg width="159" height="32" viewBox="0 0 159 32" fill="none" xmlns="http://www.w3.org/2000/svg">
<path fill-rule="evenodd" clip-rule="evenodd" d="M19.9038 11.9982L17.4133 14.0879L14.852 16.2371V15.2493V11.9982L1.43164 23.2594H5.30595L12.3617 17.3389V18.3268V21.267L12.3607 21.5785L12.3617 21.5778L14.6239 19.6796L14.852 19.4881L17.4133 17.3389V19.2747V21.267H19.9038H20.5679H20.6395H22.2289C23.8031 21.267 24.9817 20.9818 25.7646 20.4143C26.5473 19.8469 26.9401 18.9913 26.9401 17.8477C26.9401 17.0649 26.7364 16.416 26.3261 15.901C25.9188 15.3859 25.296 14.9989 24.4638 14.7369C24.9788 14.5041 25.3746 14.1898 25.6452 13.7911C25.9158 13.3924 26.0496 12.8209 26.0496 12.2943C26.0496 11.2816 25.6507 10.6286 24.8507 10.1129C24.053 9.5985 22.869 9.3418 21.3005 9.3418H20.5679H12.4853L10.0941 11.3341H20.5679H20.6423H21.446C22.2476 11.3341 22.3398 11.3962 22.6053 11.6195C22.8723 11.8444 23.0775 12.2638 23.0775 12.7237C23.0775 13.1398 22.9713 13.5138 22.7217 13.7359C22.3546 14.0622 22.1876 14.1131 21.6767 14.1131H20.5679V16.1055H21.6148C22.4199 16.1055 22.6985 16.1251 23.1548 16.4533C23.5009 16.7021 23.7613 17.237 23.7613 17.749C23.7613 18.1644 23.6054 18.5373 23.2364 18.864C22.73 19.3126 22.4064 19.2747 21.6323 19.2747H20.6395H20.5679H19.9038V15.2493V11.9982Z" fill="url(#paint0_radial_605_33246)"/>
<path d="M3.4262 17.9528C3.44988 18.0856 3.45172 18.216 3.4317 18.3437C3.41168 18.4716 3.36572 18.589 3.29382 18.6962C3.22193 18.8032 3.1207 18.8962 2.9903 18.9751C2.85976 19.0542 2.69496 19.1115 2.49562 19.147L2.43345 19.1581C2.24242 19.1922 2.0741 19.1945 1.92861 19.1648C1.78298 19.1352 1.65836 19.0824 1.55488 19.0066C1.45141 18.9309 1.36879 18.8364 1.30676 18.7232C1.24473 18.61 1.20188 18.4871 1.17819 18.3543C1.15451 18.2213 1.15211 18.0912 1.171 17.9635C1.19004 17.8359 1.23501 17.7186 1.30578 17.6118C1.37669 17.5049 1.47523 17.4123 1.60154 17.334C1.72786 17.2558 1.8866 17.1997 2.07748 17.1656L2.13979 17.1544C2.33913 17.1188 2.51352 17.1155 2.66338 17.1444C2.81309 17.1733 2.94026 17.2256 3.04472 17.3012C3.14932 17.3768 3.23306 17.4711 3.29608 17.584C3.35909 17.6971 3.40252 17.82 3.4262 17.9528ZM3.09618 18.0117C3.08236 17.9349 3.05557 17.8626 3.01568 17.7948C2.97564 17.7269 2.9201 17.6704 2.84876 17.6253C2.77757 17.5802 2.68904 17.5495 2.5833 17.533C2.47757 17.5166 2.35309 17.5211 2.20986 17.5466L2.14755 17.5578C2.01066 17.5823 1.89788 17.6201 1.80963 17.6713C1.72123 17.7223 1.65258 17.7812 1.60338 17.8477C1.55418 17.9144 1.52274 17.9865 1.50864 18.0639C1.49468 18.1414 1.49455 18.2185 1.50822 18.2953C1.52232 18.3742 1.54938 18.4476 1.58928 18.5154C1.62932 18.5832 1.68388 18.6399 1.75295 18.6853C1.82217 18.7308 1.9069 18.7617 2.00728 18.7781C2.10765 18.7944 2.22635 18.7903 2.36338 18.7659L2.42555 18.7548C2.56878 18.7291 2.68734 18.6909 2.78095 18.6399C2.8747 18.5889 2.94716 18.5299 2.99848 18.463C3.04965 18.3959 3.08222 18.3237 3.09632 18.2463C3.11027 18.1688 3.11027 18.0905 3.09618 18.0117ZM1.52753 16.4612L1.92593 16.4512L1.93636 16.8622L1.53797 16.8723L1.03905 16.537L1.03426 16.3472L1.52753 16.4612ZM2.90868 15.9793L1.41574 14.6731L1.32805 15.8273L1 15.8025L1.12223 14.1941L1.4187 14.2165L2.91178 15.5228L3.00426 14.3055L3.33231 14.3302L3.20515 16.0018L2.90868 15.9793ZM1.22443 13.4219L1.42349 12.559C1.48003 12.3146 1.57377 12.1474 1.70488 12.0576C1.83585 11.9676 1.98881 11.943 2.16348 11.9833C2.27428 12.0088 2.36268 12.0596 2.42851 12.1354C2.49435 12.2111 2.53312 12.3033 2.54482 12.4121C2.60304 12.2913 2.68438 12.2036 2.78899 12.1488C2.89359 12.0939 3.01582 12.0825 3.15553 12.1148C3.24589 12.1357 3.32526 12.1692 3.39363 12.2152C3.46201 12.2613 3.51586 12.3208 3.55533 12.3938C3.59481 12.4667 3.61849 12.5538 3.62639 12.6552C3.63442 12.7565 3.623 12.8741 3.59213 13.0076L3.38165 13.9199L1.22443 13.4219ZM3.26239 12.9738C3.29946 12.8135 3.29918 12.6971 3.26182 12.6246C3.22446 12.5521 3.15228 12.5036 3.04556 12.479C2.99411 12.4671 2.94632 12.4636 2.90191 12.4685C2.8575 12.4735 2.8176 12.4891 2.78222 12.5156C2.74698 12.5421 2.71582 12.5809 2.6889 12.6319C2.66183 12.6831 2.63913 12.7488 2.62066 12.8289L2.50548 13.3281L3.1465 13.4761L3.26239 12.9738ZM2.31277 12.8129C2.3459 12.6691 2.34237 12.5628 2.30192 12.4941C2.2616 12.4251 2.19618 12.3803 2.10582 12.3594C2.01334 12.3381 1.93665 12.3495 1.87546 12.394C1.81442 12.4382 1.76705 12.5334 1.73336 12.6793L1.6303 13.126L2.20957 13.2598L2.31277 12.8129ZM1.85248 11.0399L2.39778 9.65704L2.7037 9.77773L2.29769 10.8075L2.83903 11.021L3.21037 10.0794L3.51628 10.2001L3.14509 11.1417L3.74537 11.3782L4.15137 10.3485L4.45744 10.4691L3.91215 11.8521L1.85248 11.0399ZM2.76291 8.96286L2.9521 8.63383L3.86789 9.16052L3.41873 7.82237L3.64584 7.4275L4.01689 8.59676L5.59668 8.47621L5.36646 8.87646L4.1184 8.94693L4.25458 9.38269L4.87149 9.73739L4.68229 10.0664L2.76291 8.96286ZM4.14968 6.82736L4.38413 6.52893L6.12492 7.89694L5.89047 8.19526L4.14968 6.82736ZM7.05295 6.92817C6.9492 7.02712 6.84825 7.10141 6.74999 7.15132C6.65188 7.20124 6.5577 7.22985 6.46721 7.23745C6.37682 7.24493 6.2914 7.23394 6.21075 7.20448C6.13027 7.17502 6.05485 7.12948 5.98479 7.06816L6.25941 6.80636C6.29607 6.83257 6.33398 6.85175 6.37331 6.86388C6.4125 6.87599 6.45535 6.87883 6.50174 6.87247C6.54813 6.86615 6.59731 6.84823 6.64948 6.81891C6.70163 6.78959 6.75901 6.74519 6.82161 6.68554C6.88562 6.62436 6.93482 6.56671 6.96894 6.51229C7.00303 6.45785 7.02504 6.40767 7.03505 6.36171C7.0452 6.31576 7.04392 6.27318 7.03137 6.23413C7.01899 6.1951 6.99813 6.16027 6.96908 6.12967C6.89773 6.05496 6.8092 6.03156 6.70332 6.0596C6.59761 6.08767 6.4569 6.15631 6.28126 6.26544C6.18143 6.32577 6.08742 6.37385 5.9993 6.40966C5.91117 6.44561 5.82802 6.46533 5.74963 6.46871C5.67125 6.47196 5.59583 6.45785 5.5235 6.4263C5.45117 6.39485 5.38012 6.3424 5.31036 6.26909C5.25354 6.20961 5.21236 6.14109 5.18656 6.06369C5.16076 5.98631 5.15345 5.90438 5.16444 5.81825C5.17543 5.73198 5.20631 5.64288 5.25693 5.55083C5.30766 5.45892 5.38097 5.367 5.47711 5.27536C5.5703 5.18653 5.66208 5.11944 5.75258 5.07389C5.84324 5.02837 5.93106 5.00216 6.01621 4.99523C6.10149 4.98833 6.18285 4.99875 6.26053 5.02668C6.33807 5.05474 6.41053 5.09786 6.47776 5.15609L6.20301 5.41803C6.13548 5.37164 6.05993 5.35416 5.97617 5.36559C5.8923 5.37701 5.80306 5.42774 5.70847 5.51797C5.59864 5.62273 5.53788 5.71717 5.52618 5.80121C5.51447 5.88507 5.53408 5.95389 5.58498 6.00718C5.65474 6.08046 5.73779 6.10627 5.83366 6.08469C5.92967 6.06315 6.0533 6.00492 6.2047 5.91017C6.31677 5.84124 6.42054 5.78599 6.51625 5.74426C6.61198 5.70253 6.70207 5.67855 6.78651 5.67234C6.87081 5.66614 6.95031 5.67855 7.02491 5.70943C7.09948 5.7403 7.17252 5.79302 7.2437 5.86789C7.30629 5.93343 7.35154 6.00688 7.37944 6.08807C7.40737 6.1693 7.41455 6.25556 7.40115 6.34693C7.38793 6.43841 7.35282 6.53299 7.29598 6.63085C7.23917 6.72869 7.15825 6.8278 7.05295 6.92817ZM7.2248 4.2458L6.61902 4.67648L6.42843 4.40849L7.94928 3.32707L8.13987 3.59506L7.53411 4.02589L8.62652 5.56209L8.31723 5.78203L7.2248 4.2458ZM10.1808 4.65493C10.0607 4.71652 9.93663 4.75642 9.80847 4.77461C9.68047 4.7928 9.55471 4.7832 9.43121 4.7457C9.30788 4.7082 9.18932 4.63871 9.07553 4.53692C8.96191 4.43527 8.85887 4.29432 8.76665 4.11415L8.73777 4.05788C8.64938 3.88518 8.59805 3.7249 8.58394 3.57702C8.56971 3.42913 8.58381 3.29464 8.62597 3.17354C8.66811 3.05244 8.73439 2.94559 8.82447 2.85325C8.91453 2.76091 9.01957 2.68407 9.13982 2.62247C9.2598 2.561 9.3837 2.52068 9.51129 2.50151C9.63888 2.48234 9.7642 2.49108 9.88715 2.52759C10.0101 2.5641 10.1274 2.63135 10.2392 2.72919C10.3509 2.82717 10.451 2.9625 10.5394 3.13506L10.5683 3.19145C10.6605 3.37162 10.7147 3.53755 10.7309 3.68924C10.747 3.84078 10.7341 3.97767 10.6924 4.09974C10.6507 4.22185 10.585 4.32956 10.4953 4.42272C10.4058 4.51606 10.3009 4.59346 10.1808 4.65493ZM10.028 4.35661C10.0973 4.32094 10.1587 4.27413 10.2118 4.2162C10.2651 4.15811 10.3027 4.08848 10.3251 4.00715C10.3474 3.92579 10.3509 3.83219 10.3359 3.72631C10.3206 3.6203 10.2799 3.50258 10.2136 3.37317L10.1847 3.31678C10.1213 3.193 10.0522 3.09629 9.97751 3.02679C9.90278 2.95715 9.82638 2.90865 9.74841 2.88116C9.67032 2.85353 9.59221 2.84451 9.51399 2.85367C9.43588 2.86298 9.36199 2.88539 9.29263 2.92092C9.22131 2.95743 9.15899 3.0048 9.10586 3.06274C9.0527 3.12082 9.01436 3.18947 8.99109 3.26898C8.96783 3.34835 8.96305 3.43858 8.97685 3.53924C8.99052 3.64004 9.02903 3.75238 9.09247 3.87618L9.12135 3.93256C9.18763 4.06197 9.25895 4.16419 9.33507 4.23876C9.41119 4.31349 9.48887 4.36564 9.56783 4.39496C9.64692 4.42441 9.72544 4.43442 9.80369 4.42526C9.88178 4.41596 9.95665 4.39313 10.028 4.35661ZM10.8139 1.87445L11.1669 1.77421L12.6455 2.99817L12.2135 1.47704L12.5785 1.37328L13.1833 3.50301L12.8305 3.60324L11.3519 2.37928L11.7838 3.90056L11.4187 4.00418L10.8139 1.87445ZM14.6335 1.02168L15.4713 1.00054C15.6105 0.997013 15.7326 1.01083 15.8377 1.04184C15.943 1.073 16.0312 1.11825 16.1022 1.1776C16.1734 1.23695 16.228 1.30829 16.2659 1.39175C16.3038 1.4752 16.3241 1.5674 16.3267 1.66862C16.3305 1.82031 16.2927 1.95269 16.2133 2.06533C16.1339 2.17811 16.0126 2.26086 15.8494 2.31345L16.4284 3.19103L16.011 3.2016L15.4995 2.3666L15.0474 2.37802L15.0689 3.22542L14.6895 3.23501L14.6335 1.02168ZM15.4347 2.0518C15.6285 2.047 15.7632 2.0119 15.8386 1.94677C15.9139 1.8815 15.9501 1.79198 15.9473 1.67821C15.9443 1.56444 15.9036 1.47675 15.8251 1.41557C15.7465 1.35425 15.6104 1.32605 15.4164 1.33099L15.0212 1.341L15.0394 2.06181L15.4347 2.0518ZM17.2364 1.02338L18.711 1.21087L18.6695 1.53709L17.5715 1.39753L17.498 1.97482L18.5021 2.10241L18.4606 2.42877L17.4566 2.30118L17.3752 2.94122L18.4734 3.08078L18.432 3.40714L16.9572 3.21964L17.2364 1.02338ZM19.5869 3.74436C19.449 3.70517 19.3337 3.65596 19.2409 3.59676C19.148 3.53755 19.0754 3.47086 19.0231 3.39685C18.9706 3.32284 18.9367 3.24361 18.9213 3.15917C18.9058 3.07472 18.9067 2.98675 18.9238 2.89526L19.289 2.99888C19.285 3.04385 19.2877 3.08628 19.2972 3.12618C19.3067 3.16621 19.3259 3.20456 19.355 3.24121C19.384 3.27801 19.4243 3.31128 19.4761 3.34145C19.5279 3.37147 19.5953 3.39826 19.6785 3.4218C19.7636 3.44605 19.8384 3.45902 19.9025 3.46085C19.9667 3.46254 20.0211 3.4562 20.0658 3.4414C20.1106 3.42674 20.1465 3.40404 20.1739 3.37345C20.2013 3.34286 20.2207 3.30733 20.2321 3.26673C20.2603 3.16734 20.2355 3.07923 20.1577 3.00226C20.0797 2.92543 19.9492 2.83901 19.766 2.74314C19.6634 2.68774 19.5742 2.63107 19.4986 2.57341C19.4229 2.51575 19.3637 2.454 19.321 2.38831C19.2783 2.32247 19.2522 2.25029 19.2426 2.17205C19.2332 2.09367 19.2422 2.00584 19.2698 1.90842C19.2922 1.82934 19.3303 1.75913 19.384 1.69766C19.4376 1.63606 19.5044 1.58827 19.5842 1.55387C19.6641 1.51961 19.7566 1.50086 19.8615 1.4979C19.9665 1.4948 20.083 1.51143 20.2107 1.54766C20.3345 1.58277 20.4389 1.62788 20.5241 1.68272C20.6094 1.73756 20.6766 1.80001 20.7258 1.8698C20.775 1.93972 20.8073 2.01514 20.8227 2.0962C20.8379 2.17727 20.8376 2.26157 20.8215 2.34912L20.4564 2.2455C20.462 2.16373 20.4386 2.08972 20.3863 2.02332C20.3339 1.95692 20.2449 1.90589 20.119 1.87022C19.9731 1.82877 19.8609 1.82426 19.7825 1.85683C19.7043 1.88939 19.6551 1.94113 19.6349 2.01218C19.6073 2.1096 19.6271 2.19404 19.6944 2.2658C19.7617 2.33756 19.8747 2.41453 20.0332 2.49672C20.1495 2.55832 20.2499 2.61965 20.3343 2.68097C20.4189 2.74216 20.4853 2.80757 20.5335 2.87721C20.5816 2.94671 20.6113 3.02157 20.6226 3.10151C20.6339 3.18144 20.6254 3.2711 20.5972 3.37035C20.5724 3.45761 20.5322 3.53388 20.4764 3.59915C20.4206 3.66442 20.35 3.71447 20.2644 3.7493C20.1788 3.78427 20.0796 3.80202 19.9665 3.80287C19.8535 3.80358 19.7268 3.7841 19.5869 3.74436ZM21.751 2.11566L22.4859 2.44794C22.7569 2.57045 22.9304 2.7189 23.0065 2.89328C23.0828 3.06767 23.0766 3.25291 22.9879 3.44887C22.8994 3.64483 22.7645 3.77186 22.5832 3.82992C22.4019 3.88802 22.1758 3.85572 21.9048 3.73321L21.5158 3.55742L21.1848 4.28938L20.839 4.13302L21.751 2.11566ZM22.0115 3.42053C22.1019 3.46142 22.181 3.48849 22.2489 3.50188C22.317 3.51527 22.3755 3.51626 22.4246 3.50484C22.4738 3.49356 22.5158 3.46973 22.5506 3.4335C22.5856 3.39713 22.616 3.35019 22.6421 3.29253C22.6682 3.23487 22.6831 3.18144 22.6868 3.13224C22.6906 3.08304 22.6807 3.03581 22.6572 2.99042C22.6338 2.94516 22.5945 2.90132 22.5395 2.85917C22.4846 2.81702 22.4119 2.77543 22.3217 2.73469L21.9613 2.57172L21.6513 3.25771L22.0115 3.42053ZM23.4008 5.5903C23.2892 5.51079 23.1988 5.42324 23.1297 5.32751C23.0607 5.23194 23.0163 5.13043 22.9966 5.02343C22.9771 4.9163 22.9834 4.8038 23.0157 4.68564C23.0478 4.56752 23.1091 4.44501 23.1997 4.31785L23.9694 3.23529L24.2788 3.45521L23.5218 4.51974C23.4008 4.68987 23.348 4.84045 23.3633 4.97169C23.3787 5.10294 23.456 5.21812 23.5951 5.31709C23.7361 5.41719 23.8706 5.4527 23.9987 5.42352C24.1269 5.39433 24.2508 5.29552 24.3705 5.12718L25.1293 4.06001L25.4387 4.28005L24.6688 5.36261C24.5784 5.48979 24.4827 5.5879 24.3818 5.65712C24.2808 5.72634 24.1765 5.76919 24.0689 5.78599C23.9614 5.8026 23.8511 5.79401 23.7381 5.76019C23.625 5.72634 23.5125 5.66966 23.4008 5.5903ZM25.9995 4.77884L26.6405 5.38997C26.822 5.5631 26.918 5.72901 26.9286 5.88761C26.939 6.04621 26.8825 6.1903 26.7587 6.31998C26.6802 6.40246 26.5915 6.45265 26.4929 6.4707C26.394 6.48873 26.2949 6.47506 26.1954 6.42968C26.2697 6.54118 26.3037 6.65608 26.2976 6.77393C26.2914 6.89192 26.239 7.00273 26.14 7.10665C26.076 7.17374 26.0068 7.22491 25.9322 7.26031C25.8578 7.29568 25.7791 7.31161 25.6962 7.30837C25.6134 7.30512 25.5263 7.28118 25.435 7.23634C25.3438 7.19163 25.2485 7.12187 25.1494 7.02728L24.4717 6.38132L25.9995 4.77884ZM25.3466 6.76081C25.4656 6.8743 25.5658 6.93351 25.6472 6.93831C25.7286 6.94298 25.8071 6.90575 25.8827 6.82638C25.9191 6.78817 25.9466 6.74884 25.9649 6.70809C25.9834 6.66735 25.9902 6.62507 25.9854 6.58121C25.9806 6.53739 25.9631 6.49072 25.9329 6.44152C25.9026 6.39232 25.8578 6.33929 25.7981 6.28248L25.4274 5.92893L24.9734 6.40513L25.3466 6.76081ZM25.9689 6.02564C26.0756 6.12757 26.1689 6.1786 26.2487 6.17901C26.3285 6.17931 26.4004 6.14589 26.4644 6.07877C26.5299 6.01012 26.5591 5.93823 26.5522 5.86309C26.5452 5.78781 26.4875 5.69857 26.3791 5.59537L26.0472 5.27888L25.6369 5.70929L25.9689 6.02564ZM27.7868 6.65155L28.0067 6.96087L26.4705 8.0533L27.0937 8.92959L26.8256 9.12034L25.9825 7.93461L27.7868 6.65155ZM28.9689 8.41362L29.1582 8.74268L27.2388 9.84624L27.0497 9.51718L28.9689 8.41362ZM29.5676 9.44782L29.7067 9.80083L28.724 10.1884L30.0501 10.6718L30.2173 11.0956L29.0718 10.6564L28.1808 11.9664L28.0113 11.5368L28.7347 10.5173L28.3092 10.3519L27.647 10.613L27.5079 10.2599L29.5676 9.44782ZM29.0739 13.4645L28.8718 12.5892L28.343 12.5199L28.2576 12.1499L30.6032 12.4688L30.6888 12.8386L28.7199 14.1532L28.6288 13.7587L29.0739 13.4645ZM29.2201 12.6354L29.3666 13.2703L30.1815 12.751L29.2201 12.6354ZM28.7407 15.1189C28.7295 14.9759 28.736 14.8507 28.7595 14.7432C28.7829 14.6356 28.8206 14.5445 28.8718 14.4698C28.9234 14.395 28.9861 14.3358 29.06 14.2921C29.1337 14.2485 29.2166 14.2189 29.3085 14.2034L29.3371 14.5819C29.2938 14.5936 29.2548 14.6108 29.2207 14.6335C29.1863 14.6562 29.1571 14.6876 29.1326 14.7275C29.108 14.7674 29.0909 14.8169 29.0805 14.8757C29.0701 14.9348 29.0682 15.0072 29.0748 15.0935C29.0816 15.1817 29.0952 15.2563 29.1157 15.3172C29.1361 15.378 29.161 15.4269 29.1901 15.4637C29.2196 15.5006 29.2531 15.5266 29.2913 15.5417C29.3295 15.5568 29.3696 15.5627 29.4116 15.5596C29.5144 15.5517 29.5886 15.498 29.6342 15.3983C29.6794 15.2986 29.7154 15.1462 29.7422 14.9412C29.7588 14.8258 29.7809 14.7226 29.809 14.6317C29.8368 14.5408 29.8744 14.4639 29.9214 14.401C29.9685 14.3383 30.0272 14.289 30.0973 14.2529C30.1676 14.2169 30.253 14.1951 30.3542 14.1874C30.436 14.1811 30.5151 14.1925 30.5912 14.2217C30.6676 14.2507 30.7355 14.2968 30.7952 14.36C30.8552 14.4232 30.9046 14.5034 30.9439 14.6009C30.9829 14.6983 31.0074 14.8134 31.0175 14.9458C31.0273 15.074 31.021 15.1877 30.9989 15.2866C30.9769 15.3855 30.9417 15.4702 30.8931 15.5405C30.8443 15.6107 30.7848 15.6671 30.7139 15.7096C30.6433 15.7519 30.5639 15.7806 30.4764 15.7957L30.4475 15.4173C30.5263 15.3945 30.5877 15.347 30.6318 15.2748C30.676 15.2028 30.6932 15.1015 30.6831 14.9713C30.6717 14.8199 30.637 14.713 30.5795 14.6508C30.5219 14.5885 30.4565 14.5602 30.3828 14.5658C30.2819 14.5735 30.2094 14.6214 30.1652 14.7092C30.1213 14.7972 30.088 14.9297 30.0654 15.107C30.0479 15.2373 30.025 15.3528 29.9966 15.4531C29.9683 15.5537 29.9298 15.6385 29.8813 15.7078C29.8327 15.7771 29.7727 15.8308 29.7015 15.869C29.6303 15.9071 29.5433 15.9302 29.4405 15.9379C29.35 15.9449 29.2646 15.9334 29.1839 15.9036C29.1034 15.8737 29.0322 15.8248 28.9698 15.7565C28.9076 15.6883 28.8566 15.6012 28.8168 15.4953C28.7769 15.3894 28.7516 15.2639 28.7407 15.1189ZM31.0112 16.4369L31.0017 16.8164L28.7884 16.7604L28.7979 16.3809L31.0112 16.4369Z" fill="#E4A216"/>
<path d="M6.21769 24.1897L6.48822 24.4736L6.02497 25.8897L7.46169 25.4945L7.72346 25.7692L6.12114 27.2969L5.8592 27.0222L6.98095 25.9529L5.78744 26.2823L5.61278 26.099L5.99876 24.9227L4.87715 25.9921L4.61523 25.7174L6.21769 24.1897ZM8.13568 28.1366L7.40359 27.6159L6.96192 27.9151L6.6526 27.695L8.61881 26.3766L8.9281 26.5966L8.3281 28.8865L7.99808 28.6519L8.13568 28.1366ZM7.69485 27.4194L8.22577 27.797L8.49079 26.8677L7.69485 27.4194ZM9.82162 27.1873L10.5853 27.5325C10.7122 27.5897 10.8162 27.6553 10.8974 27.729C10.9786 27.8027 11.0382 27.8818 11.0764 27.9663C11.1147 28.0506 11.1328 28.1385 11.1307 28.2302C11.1286 28.3219 11.1067 28.4138 11.065 28.506C11.0024 28.6443 10.9109 28.7471 10.7904 28.8139C10.6699 28.881 10.5247 28.9025 10.3549 28.8791L10.4946 29.9212L10.1143 29.7491L10.0167 28.7749L9.60466 28.5886L9.25544 29.361L8.90964 29.2047L9.82162 27.1873ZM10.0951 28.4632C10.2719 28.5431 10.4084 28.5701 10.5045 28.5442C10.6008 28.5183 10.6723 28.4533 10.7192 28.3497C10.7661 28.2458 10.7676 28.1494 10.7234 28.06C10.6793 27.9706 10.5689 27.8861 10.3921 27.8061L10.032 27.6433L9.73492 28.3003L10.0951 28.4632ZM11.8057 28.0544L12.1708 28.1582L11.8823 29.1742L13.0714 28.4138L13.5096 28.5382L12.4653 29.1821L12.9657 30.6852L12.5214 30.5592L12.1503 29.3654L11.7605 29.6032L11.5662 30.2878L11.2011 30.1841L11.8057 28.0544ZM14.9719 30.4206L14.0763 30.3524L13.8524 30.8365L13.4739 30.8079L14.4775 28.6636L14.8559 28.6925L15.5238 30.9636L15.1202 30.9331L14.9719 30.4206ZM14.2243 30.0339L14.8739 30.0832L14.6213 29.1505L14.2243 30.0339ZM16.0344 30.7029L17.0999 29.0296L15.9456 29.1175L15.9207 28.7894L17.5291 28.6672L17.5516 28.9636L16.4863 30.6369L17.7036 30.5442L17.7285 30.8723L16.057 30.9994L16.0344 30.7029ZM18.0989 28.578L18.4725 28.5112L18.8617 30.6909L18.4881 30.7577L18.0989 28.578ZM20.0726 29.5255L18.8277 28.5109L19.2531 28.3669L20.1366 29.103L20.3496 27.9959L20.745 27.8621L20.4321 29.4038L20.7057 30.2128L20.3462 30.3344L20.0726 29.5255ZM21.7541 27.4122L22.5217 26.9708C22.7393 26.8458 22.9256 26.8007 23.0806 26.8355C23.2356 26.8705 23.3579 26.9656 23.4473 27.121C23.5039 27.2197 23.527 27.3189 23.5163 27.4187C23.5056 27.5185 23.4643 27.6098 23.3927 27.6922C23.5207 27.6527 23.6404 27.6526 23.7518 27.6919C23.8631 27.7313 23.9546 27.813 24.0261 27.9374C24.0723 28.0177 24.1018 28.0986 24.1146 28.1801C24.1275 28.2616 24.1204 28.3415 24.0939 28.4201C24.0673 28.4986 24.0196 28.5753 23.9507 28.6503C23.8819 28.725 23.788 28.7967 23.6693 28.8649L22.8577 29.3316L21.7541 27.4122ZM23.4697 28.6003C23.6122 28.5183 23.6974 28.4389 23.725 28.3622C23.7526 28.2853 23.7391 28.1996 23.6845 28.1046C23.6582 28.0589 23.6281 28.0214 23.5943 27.9922C23.5605 27.963 23.5218 27.9446 23.4784 27.9367C23.435 27.9288 23.3854 27.9324 23.3295 27.9474C23.2738 27.9625 23.2103 27.9905 23.1389 28.0315L22.6947 28.287L23.0228 28.8573L23.4697 28.6003ZM22.941 27.7951C23.069 27.7216 23.1444 27.6465 23.1674 27.5701C23.1902 27.4937 23.1787 27.4152 23.1323 27.3348C23.0851 27.2525 23.0244 27.2042 22.9503 27.1896C22.8763 27.175 22.7744 27.205 22.6447 27.2796L22.247 27.5082L22.5434 28.0237L22.941 27.7951ZM25.5389 26.918L24.8326 27.473L24.9946 27.9812L24.6962 28.2157L23.9873 25.9571L24.2856 25.7225L26.3127 26.9455L25.9944 27.1956L25.5389 26.918ZM24.7263 27.1382L25.2386 26.7355L24.4221 26.2187L24.7263 27.1382ZM25.0183 25.0921L25.2585 24.8147L27.1662 25.0278L25.9709 23.9924L26.2194 23.7056L27.8928 25.1551L27.6526 25.4324L25.7449 25.2194L26.9402 26.2548L26.6917 26.5416L25.0183 25.0921ZM26.5198 23.3372L26.709 23.0081L27.6248 23.5348L27.1756 22.1966L27.4026 21.8018L27.7738 22.9711L29.3536 22.8505L29.1234 23.2508L27.8752 23.3212L28.0114 23.757L28.6284 24.1117L28.4391 24.4407L26.5198 23.3372ZM27.6376 21.2833L27.794 20.9375L29.8112 21.8495L29.6549 22.1954L27.6376 21.2833Z" fill="#E4A216"/>
<path fill-rule="evenodd" clip-rule="evenodd" d="M29.4931 18.5859C29.9204 18.5859 30.2671 18.9326 30.2671 19.3602C30.2671 19.7878 29.9204 20.1344 29.4931 20.1344C29.0654 20.1344 28.7188 19.7878 28.7188 19.3602C28.7188 18.9326 29.0654 18.5859 29.4931 18.5859Z" fill="#E4A216"/>
<path d="M46.1812 13.3703C47.1908 13.3579 47.7609 14.2701 47.9545 15.1956C48.1484 15.2305 48.3383 15.2105 48.4981 15.1432L48.4206 13.0837C48.4075 12.9799 48.3554 12.8228 48.0322 12.8228C47.7219 12.8228 47.4887 12.5686 47.4887 11.7802V6.55285C47.4887 5.47116 47.8506 5.41882 48.5625 5.37976C48.692 5.30168 48.692 5.01506 48.5625 4.93694C48.0453 4.94941 47.0877 4.96272 46.5698 4.96272C46.0516 4.96272 45.1205 4.94941 44.6025 4.93694C44.473 5.01506 44.473 5.30168 44.6025 5.37976C45.3144 5.41882 45.6763 5.47116 45.6763 6.55285V11.7802C45.6763 12.6866 45.3144 12.7838 44.6025 12.8228H43.2563C42.5444 12.7838 42.1825 12.6924 42.1825 11.7802V6.55285C42.1825 5.47116 42.5444 5.41882 43.2563 5.37976C43.3858 5.30168 43.3858 5.01506 43.2563 4.93694C42.7392 4.94941 41.7808 4.96272 41.2637 4.96272C40.7455 4.96272 39.8143 4.94941 39.2964 4.93694C39.1668 5.01506 39.1668 5.30168 39.2964 5.37976C40.0082 5.41882 40.3702 5.47116 40.3702 6.55285V11.7802C40.3702 12.8619 40.0082 12.9142 39.2964 12.9533C39.1668 13.0314 39.1668 13.3188 39.2964 13.3969C39.8143 13.3836 40.7455 13.3703 41.2637 13.3703C42.0876 13.3703 43.1251 13.3969 43.9425 13.3969C44.7427 13.3969 46.1812 13.3703 46.1812 13.3703ZM51.061 9.78629C51.0733 9.32934 51.1426 8.83835 51.3199 8.57333C51.5244 8.26262 51.8719 8.13051 52.0186 8.13051C52.3683 8.13051 52.8467 8.46947 52.8467 9.51213C52.8467 9.59021 52.8467 9.7597 52.821 9.78629H51.061ZM54.3478 11.6888C53.8176 12.2363 53.1188 12.38 52.6266 12.38C51.6169 12.38 50.9958 11.7935 50.9958 10.5157C50.9958 10.4243 51.0089 10.3728 51.0089 10.3072H54.1152C54.4255 10.3072 54.4907 10.0854 54.4907 9.90343C54.4907 8.79515 54.0633 7.58301 52.1613 7.58301C50.8019 7.58301 49.2487 8.79515 49.2487 10.7899C49.2487 11.5526 49.5225 12.3451 50.077 12.8494C50.5627 13.2922 51.2012 13.5008 52.1217 13.5008C53.0149 13.5008 53.8951 13.0447 54.5426 12.0934C54.5426 11.9239 54.4774 11.6888 54.3478 11.6888ZM60.2627 9.36839V10.0987H58.1272V9.36839C58.1272 8.28671 58.3345 8.16957 58.8647 8.13051C58.9421 8.05242 58.9421 7.76496 58.8647 7.68687C58.5802 7.70015 57.9071 7.71346 57.286 7.71346C56.5742 7.71346 56.005 7.70015 55.4483 7.68687C55.3706 7.76496 55.3706 8.05242 55.4483 8.13051C56.2376 8.16957 56.4446 8.28671 56.4446 9.36839V11.7154C56.4446 12.7971 56.2376 12.9142 55.4483 12.9533C55.3706 13.0314 55.3706 13.3188 55.4483 13.3969C55.9919 13.3836 56.5742 13.3703 57.286 13.3703C57.9071 13.3703 58.5668 13.3836 58.8647 13.3969C58.9421 13.3188 58.9421 13.0314 58.8647 12.9533C58.3345 12.9142 58.1272 12.7971 58.1272 11.7154V10.6071H60.2627V11.7154C60.2627 12.7971 60.0557 12.9142 59.5247 12.9533C59.447 13.0314 59.447 13.3188 59.5247 13.3969C59.8223 13.3836 60.4831 13.3703 61.1041 13.3703C61.816 13.3703 62.3983 13.3836 62.9418 13.3969C63.0193 13.3188 63.0193 13.0314 62.9418 12.9533C62.1525 12.9142 61.9455 12.7971 61.9455 11.7154V9.36839C61.9455 8.28671 62.1525 8.16957 62.9418 8.13051C63.0193 8.05242 63.0193 7.76496 62.9418 7.68687C62.3852 7.70015 61.816 7.71346 61.1041 7.71346C60.4831 7.71346 59.81 7.70015 59.5247 7.68687C59.447 7.76496 59.447 8.05242 59.5247 8.13051C60.0557 8.16957 60.2627 8.28671 60.2627 9.36839ZM65.7759 11.7844C65.7759 12.8619 65.6333 12.9142 64.8439 12.9533C64.7665 13.0314 64.7665 13.3188 64.8439 13.3969C65.3875 13.3836 65.9657 13.3703 66.6817 13.3703C67.3482 13.3703 67.8918 13.3836 68.3907 13.3969C68.4684 13.3188 68.4684 13.0314 68.3907 12.9533C67.6005 12.9142 67.4587 12.8619 67.4587 11.7844V8.2219H67.6788C68.6298 8.2219 68.8947 8.57167 69.115 9.62512C69.2833 9.69241 69.6196 9.59272 69.6196 9.57279C69.5422 8.97543 69.4903 8.40219 69.4778 7.64781C69.1802 7.67441 68.0797 7.72593 67.4322 7.72593H65.8015C65.1549 7.72593 64.3004 7.68687 63.7833 7.64781C63.7699 8.40219 63.7181 8.97543 63.6272 9.57279C63.6016 9.58607 63.9341 9.64673 64.1452 9.62512C64.3656 8.57167 64.6566 8.2219 65.5822 8.2219H65.7759V11.7844ZM71.186 9.34265V14.8043C71.186 15.8868 71.0433 15.9125 70.254 15.9782C70.1766 16.0563 70.1766 16.3429 70.254 16.421C70.7976 16.4077 71.3371 16.3952 72.0274 16.3952C72.7179 16.3952 73.2441 16.4077 73.7999 16.421C73.8776 16.3429 73.8776 16.0563 73.7999 15.9782C73.0106 15.9259 72.8688 15.8868 72.8688 14.8043V13.2798C73.1467 13.4227 73.4246 13.5008 73.7355 13.5008C75.7096 13.5008 76.9839 12.2039 76.9839 10.2814C76.9839 9.55533 76.71 8.74281 76.2077 8.23437C75.7549 7.7766 75.105 7.58301 74.4343 7.58301C74.059 7.58301 73.3602 8.03914 72.9075 8.45619H72.8341C72.8036 8.08649 72.7649 7.80401 72.7649 7.80401C72.7518 7.64618 72.6487 7.58301 72.467 7.58301C71.9886 7.71346 71.2116 7.89541 70.3192 8.01337C70.2927 8.09148 70.3192 8.35151 70.3448 8.43044C71.0501 8.49524 71.186 8.59992 71.186 9.34265ZM72.8688 12.5229V9.18146C72.8688 9.11251 72.8663 9.04023 72.8639 8.96878C73.2375 8.62982 73.7159 8.45619 74.0203 8.45619C74.5505 8.45619 75.1726 9.10836 75.1726 10.6329C75.1726 11.7278 74.784 12.9533 73.6581 12.9533C73.5154 12.9533 73.192 12.8752 72.8688 12.5229ZM81.2978 12.7381C81.3843 13.2665 81.7342 13.5008 82.3031 13.5008C83.0174 13.5008 83.5198 13.2274 83.999 12.7713C83.9685 12.6193 83.915 12.5146 83.7655 12.4058C83.5973 12.5362 83.468 12.5886 83.222 12.5886C82.9375 12.5886 82.8601 12.3543 82.8601 11.7154L82.8857 9.83781C82.8857 7.96103 81.7342 7.58301 80.6699 7.58301C79.7214 7.58301 78.2657 8.12636 78.2657 8.98623C78.2657 9.3601 78.4223 9.64422 78.9361 9.64422C79.3933 9.64422 79.7405 9.35759 79.7405 9.04272C79.7405 8.87075 79.6496 8.65142 79.6802 8.42545C79.7001 8.28256 79.7925 8.13051 80.2278 8.13051C80.7739 8.13051 81.2293 8.36479 81.2293 10.0206L80.3598 10.2939C78.9989 10.7242 78.0454 11.1023 78.0454 12.1325C78.0454 13.0314 78.5371 13.5008 79.663 13.5008C80.0383 13.5008 80.7889 13.0837 81.216 12.7448L81.2978 12.7381ZM81.2293 10.529V12.2496C80.9059 12.5105 80.5819 12.719 80.3492 12.719C79.7925 12.719 79.5986 12.341 79.5986 11.9364C79.5986 11.4545 79.639 11.0524 80.5562 10.7508L81.2293 10.529ZM89.4735 7.72593H86.7681C86.1387 7.71346 85.7116 7.70015 85.4353 7.68687C85.3774 7.8281 85.3832 8.01918 85.4353 8.13051C86.2246 8.16957 86.2633 8.29584 86.2633 9.73395C86.2633 11.1023 86.2508 11.8192 86.0694 12.3543C85.9011 12.8228 85.7849 12.8619 85.6166 12.8619C85.5111 12.8619 85.3897 12.758 85.3041 12.5105C85.1827 12.169 84.9288 12.0103 84.611 12.0103C84.2317 12.0103 84.0939 12.3476 84.0939 12.6517C84.0939 13.0538 84.6721 13.5274 85.267 13.5274C85.9985 13.5274 86.4207 13.1992 86.6904 12.4839C86.9239 11.8649 86.9364 10.529 86.9364 9.64255C86.9364 8.63647 87.027 8.29999 87.7991 8.29999C88.4894 8.29999 88.6323 8.29999 88.6323 9.37753V11.7195C88.6323 12.7996 88.2958 12.9142 87.7653 12.9533C87.687 13.0314 87.687 13.3188 87.7653 13.3969C88.0623 13.3836 88.8072 13.3703 89.4735 13.3703C90.1894 13.3703 90.7676 13.3836 91.3112 13.3969C91.3889 13.3188 91.3889 13.0314 91.3112 12.9533C90.5219 12.9142 90.3149 12.7996 90.3149 11.7195V9.37753C90.3149 8.28671 90.5219 8.16957 91.3112 8.13051C91.3889 8.05242 91.3889 7.76496 91.3112 7.68687C90.7545 7.70015 89.4735 7.71346 89.4735 7.71346V7.72593ZM96.4881 11.6498C96.4881 12.4058 96.1646 12.9018 95.4009 12.9018C94.8077 12.9018 94.6891 12.8104 94.6891 12.341V10.3205H95.4527C96.4237 10.3205 96.4881 11.1288 96.4881 11.6498ZM93.8477 13.3703L95.6467 13.3969C97.3426 13.3969 98.1706 12.8885 98.1706 11.5326C98.1706 10.092 97.0316 9.82534 95.5692 9.82534H94.6891V9.36839C94.6891 8.28671 94.8961 8.16957 95.6854 8.13051C95.7628 8.05242 95.7628 7.76496 95.6854 7.68687C95.1295 7.70015 94.5636 7.71346 93.8477 7.71346C93.1317 7.71346 92.5535 7.70015 92.0099 7.68687C91.9325 7.76496 91.9325 8.05242 92.0099 8.13051C92.7992 8.16957 93.0063 8.28671 93.0063 9.36839V11.7154C93.0063 12.7971 92.7992 12.9142 92.0099 12.9533C91.9325 13.0314 91.9325 13.3188 92.0099 13.3969C92.5666 13.3836 93.1317 13.3703 93.8477 13.3703ZM103.529 9.36839V10.0987H101.393V9.36839C101.393 8.28671 101.6 8.16957 102.13 8.13051C102.208 8.05242 102.208 7.76496 102.13 7.68687C101.846 7.70015 101.173 7.71346 100.552 7.71346C99.84 7.71346 99.2708 7.70015 98.7142 7.68687C98.6367 7.76496 98.6367 8.05242 98.7142 8.13051C99.5035 8.16957 99.7105 8.28671 99.7105 9.36839V11.7154C99.7105 12.7971 99.5035 12.9142 98.7142 12.9533C98.6367 13.0314 98.6367 13.3188 98.7142 13.3969C99.2577 13.3836 99.84 13.3703 100.552 13.3703C101.173 13.3703 101.833 13.3836 102.13 13.3969C102.208 13.3188 102.208 13.0314 102.13 12.9533C101.6 12.9142 101.393 12.7971 101.393 11.7154V10.6071H103.529V11.7154C103.529 12.7971 103.322 12.9142 102.791 12.9533C102.713 13.0314 102.713 13.3188 102.791 13.3969C103.088 13.3836 103.749 13.3703 104.37 13.3703C105.082 13.3703 105.664 13.3836 106.208 13.3969C106.285 13.3188 106.285 13.0314 106.208 12.9533C105.418 12.9142 105.211 12.7971 105.211 11.7154V9.36839C105.211 8.28671 105.418 8.16957 106.208 8.13051C106.285 8.05242 106.285 7.76496 106.208 7.68687C105.651 7.70015 105.082 7.71346 104.37 7.71346C103.749 7.71346 103.076 7.70015 102.791 7.68687C102.713 7.76496 102.713 8.05242 102.791 8.13051C103.322 8.16957 103.529 8.28671 103.529 9.36839ZM116.134 9.36839C116.134 8.28671 116.342 8.16957 117.131 8.13051C117.209 8.05242 117.209 7.76496 117.131 7.68687C116.588 7.70015 116.009 7.71346 115.293 7.71346C114.576 7.71346 114.012 7.70015 113.456 7.68687C113.377 7.76496 113.377 8.05242 113.456 8.13051C114.245 8.16957 114.452 8.28671 114.452 9.36839V11.7154C114.452 12.7971 114.245 12.9142 113.456 12.9533C113.377 13.0314 113.377 13.3188 113.456 13.3969C113.999 13.3836 114.576 13.3703 115.293 13.3703C116.009 13.3703 116.574 13.3836 117.131 13.3969C117.209 13.3188 117.209 13.0314 117.131 12.9533C116.342 12.9142 116.134 12.7971 116.134 11.7154V9.36839ZM111.385 11.6498C111.385 12.4058 111.061 12.9018 110.297 12.9018C109.704 12.9018 109.586 12.8104 109.586 12.341V10.3205H110.349C111.32 10.3205 111.385 11.1288 111.385 11.6498ZM108.744 13.3703L110.543 13.3969C112.239 13.3969 113.067 12.8885 113.067 11.5326C113.067 10.092 111.928 9.82534 110.466 9.82534H109.586V9.36839C109.586 8.28671 109.793 8.16957 110.582 8.13051C110.659 8.05242 110.659 7.76496 110.582 7.68687C110.026 7.70015 109.46 7.71346 108.744 7.71346C108.028 7.71346 107.45 7.70015 106.906 7.68687C106.829 7.76496 106.829 8.05242 106.906 8.13051C107.696 8.16957 107.903 8.28671 107.903 9.36839V11.7154C107.903 12.7971 107.696 12.9142 106.906 12.9533C106.829 13.0314 106.829 13.3188 106.906 13.3969C107.463 13.3836 108.028 13.3703 108.744 13.3703ZM120.586 12.3933C120.548 12.3933 120.509 12.3667 120.509 12.2363V9.36839C120.509 8.28671 120.716 8.16957 121.246 8.13051C121.325 8.05242 121.325 7.76496 121.246 7.68687C120.948 7.70015 120.282 7.71346 119.667 7.71346C118.951 7.71346 118.373 7.70015 117.83 7.68687C117.752 7.76496 117.752 8.05242 117.83 8.13051C118.619 8.16957 118.826 8.28671 118.826 9.36839V11.7154C118.826 12.7971 118.619 12.9142 117.83 12.9533C117.752 13.0314 117.752 13.3188 117.83 13.3969C118.387 13.3836 118.951 13.3703 119.667 13.3703C120.081 13.3703 120.444 13.3836 120.729 13.3969C120.768 13.2922 120.792 13.2274 120.832 13.1227L122.567 8.69047C122.606 8.69047 122.644 8.71706 122.644 8.84749V11.7154C122.644 12.7971 122.437 12.9142 121.907 12.9533C121.829 13.0314 121.829 13.3188 121.907 13.3969C122.204 13.3836 122.87 13.3703 123.485 13.3703C124.202 13.3703 124.78 13.3836 125.323 13.3969C125.401 13.3188 125.401 13.0314 125.323 12.9533C124.534 12.9142 124.327 12.7971 124.327 11.7154V9.36839C124.327 8.28671 124.534 8.16957 125.323 8.13051C125.401 8.05242 125.401 7.76496 125.323 7.68687C124.767 7.70015 124.202 7.71346 123.485 7.71346C123.071 7.71346 122.709 7.70015 122.424 7.68687C122.385 7.79155 122.361 7.85469 122.321 7.96103L120.586 12.3933ZM123.343 5.49691C123.343 5.197 123.123 5.00175 122.799 5.00175C122.54 5.00175 122.269 5.22357 122.269 5.48444C122.269 5.56836 122.294 5.65144 122.294 5.73201C122.294 6.07097 122.165 6.33103 121.673 6.33103C121.169 6.33103 121.052 6.07097 121.052 5.73201C121.052 5.68384 121.078 5.52099 121.078 5.47116C121.078 5.22356 120.858 5.00175 120.561 5.00175C120.25 5.00175 120.004 5.23603 120.004 5.5235C120.004 6.37005 120.78 6.87852 121.66 6.87852C122.528 6.87852 123.343 6.35762 123.343 5.49691ZM131.645 9.96823C131.645 9.02943 132.254 8.23437 132.732 8.23437C133.483 8.23437 134.065 8.85995 134.065 10.4634C134.065 12.1582 133.47 12.9142 133.004 12.9142C132.357 12.9142 131.645 12.5229 131.645 9.96823ZM133.03 7.58301C131.813 7.58301 130.985 8.39139 130.714 8.93888C130.842 8.27343 130.959 7.71346 131.14 7.33545C131.516 6.51379 131.697 6.25291 133.068 6.25291C134.233 6.25291 134.829 5.64064 135.127 4.27148H134.751C134.531 4.96272 133.794 5.09314 132.732 5.09314C131.438 5.09314 130.944 6.18811 130.597 7.02223C130.338 7.64119 129.962 8.75609 129.962 9.89015C129.962 12.719 131.542 13.5274 132.849 13.5274C134.867 13.5274 135.877 12.0153 135.877 10.1768C135.877 8.89983 135.113 7.58301 133.03 7.58301ZM140.191 12.7381C140.278 13.2665 140.627 13.5008 141.196 13.5008C141.911 13.5008 142.413 13.2274 142.891 12.7713C142.862 12.6193 142.808 12.5146 142.659 12.4058C142.491 12.5362 142.361 12.5886 142.115 12.5886C141.831 12.5886 141.753 12.3543 141.753 11.7154L141.779 9.83781C141.779 7.96103 140.627 7.58301 139.563 7.58301C138.615 7.58301 137.158 8.12636 137.158 8.98623C137.158 9.3601 137.316 9.64422 137.829 9.64422C138.287 9.64422 138.634 9.35759 138.634 9.04272C138.634 8.87075 138.543 8.65142 138.573 8.42545C138.593 8.28256 138.686 8.13051 139.121 8.13051C139.667 8.13051 140.123 8.36479 140.123 10.0206L139.253 10.2939C137.892 10.7242 136.939 11.1023 136.939 12.1325C136.939 13.0314 137.43 13.5008 138.556 13.5008C138.932 13.5008 139.682 13.0837 140.109 12.7448L140.191 12.7381ZM140.123 10.529V12.2496C139.798 12.5105 139.475 12.719 139.243 12.719C138.686 12.719 138.492 12.341 138.492 11.9364C138.492 11.4545 138.532 11.0524 139.45 10.7508L140.123 10.529ZM148.081 9.36839V10.0987H145.946V9.36839C145.946 8.28671 146.154 8.16957 146.684 8.13051C146.762 8.05242 146.762 7.76496 146.684 7.68687C146.399 7.70015 145.727 7.71346 145.105 7.71346C144.393 7.71346 143.824 7.70015 143.268 7.68687C143.189 7.76496 143.189 8.05242 143.268 8.13051C144.057 8.16957 144.264 8.28671 144.264 9.36839V11.7154C144.264 12.7971 144.057 12.9142 143.268 12.9533C143.189 13.0314 143.189 13.3188 143.268 13.3969C143.811 13.3836 144.393 13.3703 145.105 13.3703C145.727 13.3703 146.386 13.3836 146.684 13.3969C146.762 13.3188 146.762 13.0314 146.684 12.9533C146.154 12.9142 145.946 12.7971 145.946 11.7154V10.6071H148.081V11.7154C148.081 12.7971 147.874 12.9142 147.344 12.9533C147.267 13.0314 147.267 13.3188 147.344 13.3969C147.642 13.3836 148.302 13.3703 148.923 13.3703C149.634 13.3703 150.217 13.3836 150.761 13.3969C150.839 13.3188 150.839 13.0314 150.761 12.9533C149.971 12.9142 149.764 12.7971 149.764 11.7154V9.36839C149.764 8.28671 149.971 8.16957 150.761 8.13051C150.839 8.05242 150.839 7.76496 150.761 7.68687C150.204 7.70015 149.634 7.71346 148.923 7.71346C148.302 7.71346 147.628 7.70015 147.344 7.68687C147.267 7.76496 147.267 8.05242 147.344 8.13051C147.874 8.16957 148.081 8.28671 148.081 9.36839ZM154.139 10.5024C154.449 10.4767 154.928 10.6852 155.135 11.1288C155.291 11.4678 155.549 12.1191 155.834 12.6143C156.209 13.3055 156.65 13.3969 157.244 13.3969L158.397 13.3703C158.466 13.2382 158.481 13.1037 158.397 12.9533C157.892 12.8951 157.711 12.7713 157.335 12.0801C156.947 11.3764 156.779 10.9328 156.585 10.6719C156.3 10.2939 155.964 10.1377 155.666 10.0596V9.99398C155.877 9.80789 156.069 9.58359 156.222 9.36839C156.563 8.87989 156.833 8.7802 157.232 8.89983C157.65 9.02362 158.155 8.68466 158.086 8.16957C158.026 7.73092 157.776 7.58301 157.335 7.58301C156.792 7.58301 156.352 8.07817 156.106 8.43044C155.861 8.78187 155.407 9.36839 155.174 9.59021C154.838 9.91589 154.436 10.0596 154.139 10.0729V9.36839C154.139 8.28671 154.346 8.16957 154.877 8.13051C154.954 8.05242 154.954 7.76496 154.877 7.68687C154.592 7.70015 153.919 7.71346 153.298 7.71346C152.586 7.71346 152.016 7.70015 151.46 7.68687C151.382 7.76496 151.382 8.05242 151.46 8.13051C152.249 8.16957 152.456 8.28671 152.456 9.36839V11.7154C152.456 12.7971 152.249 12.9142 151.46 12.9533C151.382 13.0314 151.382 13.3188 151.46 13.3969C152.003 13.3836 152.586 13.3703 153.298 13.3703C153.919 13.3703 154.579 13.3836 154.877 13.3969C154.954 13.3188 154.954 13.0314 154.877 12.9533C154.346 12.9142 154.139 12.7971 154.139 11.7154V10.5024Z" fill="black"/>
<path d="M42.5983 17.7615C42.1761 17.7615 39.695 17.8355 39.2725 17.8355C39.167 17.8995 39.167 18.1337 39.2725 18.1969C39.8535 18.2293 40.1486 18.2716 40.1486 19.154V23.4184C40.1486 24.3015 39.8535 24.3439 39.2725 24.3755C39.167 24.4394 39.167 24.6737 39.2725 24.7377C39.695 24.7269 40.4761 24.7161 40.8983 24.7161C41.3208 24.7161 42.0812 24.7269 42.5034 24.7377C42.6092 24.6737 42.6092 24.4394 42.5034 24.3755C41.9227 24.3439 41.6268 24.3015 41.6268 23.4184V19.144C41.6268 18.4204 41.701 18.1969 42.2601 18.1969C42.873 18.1969 43.5799 18.4528 43.5799 19.7496C43.5799 20.8554 43.2739 21.324 42.4088 21.324C42.2503 21.324 42.0286 21.3132 41.8807 21.2916C41.8807 21.4943 41.9435 21.643 42.0918 21.7385C42.2397 21.7602 42.2075 21.7701 42.4614 21.7701C43.392 21.7701 44.0427 21.6106 44.4674 21.26C44.9913 20.8238 45.1743 20.1343 45.1743 19.5693C45.1743 19.1423 45.0159 18.5018 44.3619 18.1121C43.971 17.8803 43.3904 17.7615 42.5983 17.7615ZM46.8743 21.7917C46.885 21.4195 46.9412 21.0191 47.0854 20.8022C47.2529 20.5489 47.5357 20.4409 47.6555 20.4409C47.9407 20.4409 48.3319 20.7175 48.3319 21.5682C48.3319 21.6322 48.3319 21.7701 48.3103 21.7917H46.8743ZM49.5567 23.3445C49.1236 23.7906 48.5528 23.9077 48.1521 23.9077C47.3287 23.9077 46.8214 23.4292 46.8214 22.3874C46.8214 22.3126 46.8323 22.2703 46.8323 22.2171H49.3661C49.6195 22.2171 49.6721 22.036 49.6721 21.8872C49.6721 20.9834 49.3241 19.9947 47.7716 19.9947C46.6632 19.9947 45.3964 20.9834 45.3964 22.6109C45.3964 23.2323 45.6197 23.8795 46.0717 24.2907C46.4677 24.6521 46.9889 24.8224 47.7403 24.8224C48.4688 24.8224 49.1863 24.4502 49.7144 23.6743C49.7144 23.5356 49.6615 23.3445 49.5567 23.3445ZM54.6237 23.7906C54.6237 23.6635 54.603 23.4616 54.4868 23.4616C54.0643 23.8546 53.7056 24.0565 53.3996 24.0565C52.6079 24.0565 51.9849 23.4824 51.9849 22.2063C51.9849 21.0257 52.2489 20.4409 52.8083 20.4409C53.1992 20.4409 53.3576 20.8554 53.389 21.196C53.4204 21.4835 53.7056 21.6962 54.0438 21.6962C54.3812 21.6962 54.6237 21.4303 54.6237 21.1005C54.6237 20.622 54.0537 19.9947 52.903 19.9947C51.6576 19.9947 50.5588 21.005 50.5588 22.5785C50.5588 23.2664 50.804 23.8812 51.2139 24.2691C51.6296 24.6613 52.1063 24.8224 52.861 24.8224C53.4946 24.8224 54.2228 24.3755 54.6237 23.7906ZM58.5937 20.5796C59.0265 20.6112 59.1956 20.6328 59.1956 21.4586V23.3694C59.1956 24.25 59.0265 24.3439 58.5937 24.3755C58.531 24.4394 58.531 24.6737 58.5937 24.7377C58.837 24.7269 59.3806 24.7161 59.8821 24.7161C60.4661 24.7161 60.9379 24.7269 61.3816 24.7377C61.4452 24.6737 61.4452 24.4394 61.3816 24.3755C60.7374 24.3439 60.5683 24.25 60.5683 23.3694V21.4586C60.5683 20.5688 60.7374 20.4733 61.3816 20.4409C61.4452 20.3777 61.4452 20.1434 61.3816 20.0794C60.927 20.101 59.8821 20.1118 59.8821 20.1118H56.7674C56.7674 20.101 55.7223 20.0902 55.2679 20.0794C55.2052 20.1434 55.2052 20.3777 55.2679 20.4409C55.9121 20.4733 56.0812 20.5688 56.0812 21.4511V23.3652C56.0812 24.2484 55.9121 24.3439 55.2679 24.3755C55.2052 24.4394 55.2052 24.6737 55.2679 24.7377C55.7117 24.7269 56.1835 24.7161 56.7674 24.7161C57.269 24.7161 57.8126 24.7269 58.0559 24.7377C58.1186 24.6737 58.1186 24.4394 58.0559 24.3755C57.6227 24.3439 57.4536 24.2484 57.4536 23.3652V21.4511C57.4536 20.6436 57.6227 20.6112 58.0559 20.5796H58.5937ZM64.2214 26.5023C64.3889 26.2049 64.549 25.8219 64.6753 25.5029C65.5205 23.4508 66.0379 22.3018 66.597 21.1113C66.7445 20.8022 67.0615 20.4733 67.4523 20.4409C67.5158 20.3777 67.5158 20.1434 67.4523 20.0794C67.1883 20.0902 66.9979 20.101 66.7025 20.101C66.333 20.101 65.9743 20.0902 65.5832 20.0794C65.5205 20.1434 65.5205 20.3777 65.5832 20.4409C65.9214 20.4733 66.2596 20.5264 66.0905 20.9094L65.0025 23.3652C64.9993 23.3744 64.9976 23.3818 64.996 23.3868C64.996 23.3777 64.9903 23.3636 64.9821 23.3445L63.9997 21.1213C63.8082 20.6859 63.7043 20.494 64.3485 20.4409C64.4112 20.3777 64.4112 20.1434 64.3485 20.0794C63.9574 20.0902 63.3241 20.101 62.9439 20.101C62.585 20.101 61.9828 20.0902 61.7717 20.0794C61.7089 20.1434 61.7089 20.3777 61.7717 20.4409C62.237 20.4832 62.3177 20.5597 62.6065 21.2284L63.9683 24.3755C64.1472 24.6314 64.3485 24.8224 64.2634 25.0135L64.0136 25.5984C63.875 25.9266 63.7463 26.1201 63.4509 26.1201C63.2606 26.1201 63.2292 26.0769 63.0816 26.0769C62.6799 26.0769 62.4481 26.3536 62.4481 26.5663C62.4481 26.7067 62.4745 26.8712 62.5743 26.9916C62.6733 27.1088 62.8457 27.1836 62.9859 27.1836C63.1253 27.1836 63.4419 27.1462 63.5881 27.0772C63.8099 26.9709 64.1036 26.7133 64.2214 26.5023ZM69.3743 21.9404C69.3743 21.1753 69.8699 20.5264 70.261 20.5264C70.873 20.5264 71.3481 21.0365 71.3481 22.3442C71.3481 23.7275 70.8621 24.3439 70.4827 24.3439C69.955 24.3439 69.3743 24.0249 69.3743 21.9404ZM70.5034 19.9947C69.5112 19.9947 68.8356 20.6535 68.6136 21.1005C68.7192 20.558 68.8141 20.101 68.9619 19.792C69.2679 19.1224 69.4163 18.9097 70.5356 18.9097C71.4858 18.9097 71.9708 18.4096 72.2141 17.293H71.908C71.7283 17.8571 71.1261 17.9634 70.261 17.9634C69.2052 17.9634 68.8018 18.8565 68.519 19.5369C68.3076 20.0421 68.0008 20.9518 68.0008 21.8764C68.0008 24.1844 69.2892 24.844 70.3559 24.844C72.003 24.844 72.8261 23.6103 72.8261 22.1107C72.8261 21.0681 72.2034 19.9947 70.5034 19.9947ZM77.673 20.1118H75.4657C74.9518 20.101 74.6035 20.0902 74.3785 20.0794C74.3305 20.1949 74.3365 20.3503 74.3785 20.4409C75.0227 20.4733 75.0541 20.5754 75.0541 21.7493C75.0541 22.8659 75.0432 23.4508 74.8956 23.887C74.7587 24.2691 74.663 24.3015 74.5261 24.3015C74.4404 24.3015 74.3414 24.216 74.2713 24.0141C74.1723 23.7358 73.9653 23.6062 73.7062 23.6062C73.3961 23.6062 73.284 23.8812 73.284 24.1296C73.284 24.4577 73.7559 24.844 74.2416 24.844C74.8378 24.844 75.1828 24.5757 75.4021 23.9933C75.5928 23.4882 75.6034 22.3974 75.6034 21.6746C75.6034 20.8538 75.6768 20.5796 76.3071 20.5796C76.8703 20.5796 76.9867 20.5796 76.9867 21.4586V23.3694C76.9867 24.25 76.7118 24.3439 76.279 24.3755C76.2154 24.4394 76.2154 24.6737 76.279 24.7377C76.5214 24.7269 77.1286 24.7161 77.673 24.7161C78.2569 24.7161 78.7287 24.7269 79.1717 24.7377C79.2352 24.6737 79.2352 24.4394 79.1717 24.3755C78.5274 24.3439 78.3592 24.25 78.3592 23.3694V21.4586C78.3592 20.5688 78.5274 20.4733 79.1717 20.4409C79.2352 20.3777 79.2352 20.1434 79.1717 20.0794C78.7178 20.0902 77.673 20.101 77.673 20.101V20.1118ZM81.991 23.9185C81.9596 23.9185 81.9274 23.8969 81.9274 23.7906V21.4511C81.9274 20.5688 82.0965 20.4733 82.5296 20.4409C82.5921 20.3777 82.5921 20.1434 82.5296 20.0794C82.2861 20.0902 81.7425 20.101 81.2412 20.101C80.6573 20.101 80.1854 20.0902 79.7417 20.0794C79.679 20.1434 79.679 20.3777 79.7417 20.4409C80.3859 20.4733 80.5547 20.5688 80.5547 21.4511V23.3652C80.5547 24.2484 80.3859 24.3439 79.7417 24.3755C79.679 24.4394 79.679 24.6737 79.7417 24.7377C80.1961 24.7269 80.6573 24.7161 81.2412 24.7161C81.5794 24.7161 81.8745 24.7269 82.1072 24.7377C82.1385 24.6521 82.1584 24.599 82.1914 24.5142L83.6059 20.8986C83.638 20.8986 83.6694 20.9194 83.6694 21.0257V23.3652C83.6694 24.2484 83.5003 24.3439 83.0672 24.3755C83.0047 24.4394 83.0047 24.6737 83.0672 24.7377C83.3108 24.7269 83.8543 24.7161 84.3556 24.7161C84.9396 24.7161 85.4114 24.7269 85.8552 24.7377C85.9187 24.6737 85.9187 24.4394 85.8552 24.3755C85.2109 24.3439 85.0418 24.2484 85.0418 23.3652V21.4511C85.0418 20.5688 85.2109 20.4733 85.8552 20.4409C85.9187 20.3777 85.9187 20.1434 85.8552 20.0794C85.4008 20.0902 84.9396 20.101 84.3556 20.101C84.0183 20.101 83.7223 20.0902 83.4905 20.0794C83.4583 20.1642 83.4392 20.2157 83.4054 20.3029L81.991 23.9185ZM88.6109 22.3766C88.8643 22.355 89.2543 22.5253 89.4234 22.8867C89.5505 23.1633 89.7616 23.695 89.9943 24.0997C90.3003 24.6629 90.6592 24.7377 91.145 24.7377L92.0845 24.7161C92.1404 24.6081 92.153 24.4984 92.0845 24.3755C91.6727 24.3281 91.5243 24.2268 91.2183 23.6635C90.9017 23.0894 90.7647 22.7272 90.6063 22.5145C90.3736 22.2063 90.099 22.0783 89.8565 22.0152V21.962C90.0289 21.8092 90.1857 21.6272 90.3109 21.4511C90.5883 21.0523 90.8084 20.9709 91.1343 21.0681C91.4758 21.1695 91.8873 20.8928 91.8312 20.4733C91.7818 20.1152 91.5772 19.9947 91.2183 19.9947C90.7754 19.9947 90.4165 20.3985 90.2154 20.6859C90.015 20.9726 89.6454 21.4511 89.4556 21.6322C89.181 21.898 88.8537 22.0152 88.6109 22.026V21.4511C88.6109 20.5688 88.7792 20.4733 89.2123 20.4409C89.2759 20.3777 89.2759 20.1434 89.2123 20.0794C88.9805 20.0902 88.4312 20.101 87.9247 20.101C87.344 20.101 86.8787 20.0902 86.4252 20.0794C86.3616 20.1434 86.3616 20.3777 86.4252 20.4409C87.0694 20.4733 87.2385 20.5688 87.2385 21.4511V23.3652C87.2385 24.2484 87.0694 24.3439 86.4252 24.3755C86.3616 24.4394 86.3616 24.6737 86.4252 24.7377C86.8689 24.7269 87.344 24.7161 87.9247 24.7161C88.4312 24.7161 88.9698 24.7269 89.2123 24.7377C89.2759 24.6737 89.2759 24.4394 89.2123 24.3755C88.7792 24.3439 88.6109 24.2484 88.6109 23.3652V22.3766ZM94.7767 23.9185C94.7454 23.9185 94.7132 23.8969 94.7132 23.7906V21.4511C94.7132 20.5688 94.8823 20.4733 95.3154 20.4409C95.3787 20.3777 95.3787 20.1434 95.3154 20.0794C95.0719 20.0902 94.5283 20.101 94.027 20.101C93.4431 20.101 92.9712 20.0902 92.5283 20.0794C92.4647 20.1434 92.4647 20.3777 92.5283 20.4409C93.1717 20.4733 93.3405 20.5688 93.3405 21.4511V23.3652C93.3405 24.2484 93.1717 24.3439 92.5283 24.3755C92.4647 24.4394 92.4647 24.6737 92.5283 24.7377C92.9818 24.7269 93.4431 24.7161 94.027 24.7161C94.3652 24.7161 94.6603 24.7269 94.8929 24.7377C94.9243 24.6521 94.9442 24.599 94.9772 24.5142L96.3916 20.8986C96.4238 20.8986 96.4552 20.9194 96.4552 21.0257V23.3652C96.4552 24.2484 96.2861 24.3439 95.8538 24.3755C95.7905 24.4394 95.7905 24.6737 95.8538 24.7377C96.0965 24.7269 96.6401 24.7161 97.1414 24.7161C97.7262 24.7161 98.1972 24.7269 98.6409 24.7377C98.7045 24.6737 98.7045 24.4394 98.6409 24.3755C97.9967 24.3439 97.8276 24.2484 97.8276 23.3652V21.4511C97.8276 20.5688 97.9967 20.4733 98.6409 20.4409C98.7045 20.3777 98.7045 20.1434 98.6409 20.0794C98.1865 20.0902 97.7262 20.101 97.1414 20.101C96.804 20.101 96.5081 20.0902 96.2763 20.0794C96.2441 20.1642 96.225 20.2157 96.1912 20.3029L94.7767 23.9185ZM107.816 18.9413C108.062 18.2982 108.407 18.2293 108.871 18.1969C108.935 18.1337 108.935 17.8995 108.871 17.8355C108.595 17.8463 108.291 17.8571 107.879 17.8571C107.446 17.8571 106.865 17.8463 106.475 17.8355C106.412 17.8995 106.412 18.1337 106.475 18.1969C106.876 18.2293 107.355 18.2932 107.204 18.697L106.106 21.6214C106.077 21.6945 106.028 21.6887 106.007 21.643L104.638 18.6123C104.491 18.2874 104.912 18.2293 105.42 18.1969C105.482 18.1337 105.482 17.8995 105.42 17.8355C105.029 17.8463 103.973 17.8571 103.561 17.8571C103.128 17.8571 102.537 17.8463 102.146 17.8355C102.083 17.8995 102.083 18.1337 102.146 18.1969C102.558 18.2401 102.881 18.2824 103.107 18.7718L105.271 23.4932C105.018 24.1528 104.775 24.1628 104.458 24.1628C104.3 24.1628 104.152 24.0357 104.068 23.9185C103.974 23.7906 103.793 23.6842 103.529 23.6842C103.192 23.6842 103.033 23.9933 103.033 24.2907C103.033 24.6314 103.529 25.0243 104.163 25.0243C105.113 25.0243 105.806 24.1669 106.253 23.0038L107.816 18.9413ZM110.181 24.8224C111.711 24.8224 112.293 24.1312 112.293 23.376C112.293 22.5286 111.402 22.2669 111.113 22.2171L111.11 22.1855C111.786 22.0418 112.113 21.579 112.113 21.1645C112.113 20.1966 111.194 19.9947 110.255 19.9947C109.674 19.9947 109.009 20.101 108.671 20.2498C108.576 20.5895 108.513 20.9942 108.513 21.3771C108.618 21.4511 108.734 21.4619 108.924 21.4303C109.188 20.7815 109.6 20.4409 110.086 20.4409C110.487 20.4409 110.73 20.7017 110.73 21.2068C110.73 21.648 110.725 22.0044 109.98 22.0044H109.653C109.579 22.0044 109.494 22.0684 109.494 22.1747C109.494 22.2703 109.558 22.4721 109.653 22.4721H110.234C110.762 22.4721 110.857 22.9615 110.857 23.4508C110.857 24.2002 110.439 24.3755 110.16 24.3755C109.78 24.3755 109.606 24.1794 109.463 23.7698C109.38 23.5372 109.188 23.3337 108.893 23.3337C108.597 23.3337 108.449 23.568 108.449 23.8546C108.449 24.2691 109.078 24.8224 110.181 24.8224ZM114.478 21.9404C114.478 21.1753 114.975 20.5264 115.365 20.5264C115.977 20.5264 116.452 21.0365 116.452 22.3442C116.452 23.7275 115.967 24.3439 115.587 24.3439C115.059 24.3439 114.478 24.0249 114.478 21.9404ZM115.608 19.9947C114.616 19.9947 113.939 20.6535 113.718 21.1005C113.824 20.558 113.919 20.101 114.066 19.792C114.372 19.1224 114.52 18.9097 115.639 18.9097C116.589 18.9097 117.075 18.4096 117.318 17.293H117.012C116.833 17.8571 116.231 17.9634 115.365 17.9634C114.309 17.9634 113.906 18.8565 113.623 19.5369C113.411 20.0421 113.105 20.9518 113.105 21.8764C113.105 24.1844 114.394 24.844 115.46 24.844C117.107 24.844 117.931 23.6103 117.931 22.1107C117.931 21.0681 117.308 19.9947 115.608 19.9947ZM120.2 21.7917C120.211 21.4195 120.267 21.0191 120.412 20.8022C120.579 20.5489 120.862 20.4409 120.982 20.4409C121.267 20.4409 121.657 20.7175 121.657 21.5682C121.657 21.6322 121.657 21.7701 121.637 21.7917H120.2ZM122.882 23.3445C122.449 23.7906 121.879 23.9077 121.478 23.9077C120.654 23.9077 120.148 23.4292 120.148 22.3874C120.148 22.3126 120.158 22.2703 120.158 22.2171H122.693C122.946 22.2171 122.999 22.036 122.999 21.8872C122.999 20.9834 122.65 19.9947 121.098 19.9947C119.989 19.9947 118.722 20.9834 118.722 22.6109C118.722 23.2323 118.946 23.8795 119.398 24.2907C119.794 24.6521 120.315 24.8224 121.067 24.8224C121.795 24.8224 122.512 24.4502 123.041 23.6743C123.041 23.5356 122.988 23.3445 122.882 23.3445ZM125.965 22.3766C126.218 22.355 126.61 22.5253 126.778 22.8867C126.905 23.1633 127.116 23.695 127.349 24.0997C127.655 24.6629 128.013 24.7377 128.499 24.7377L129.439 24.7161C129.495 24.6081 129.507 24.4984 129.439 24.3755C129.027 24.3281 128.88 24.2268 128.574 23.6635C128.257 23.0894 128.119 22.7272 127.961 22.5145C127.729 22.2063 127.454 22.0783 127.211 22.0152V21.962C127.383 21.8092 127.54 21.6272 127.665 21.4511C127.943 21.0523 128.163 20.9709 128.489 21.0681C128.83 21.1695 129.242 20.8928 129.186 20.4733C129.136 20.1152 128.932 19.9947 128.574 19.9947C128.13 19.9947 127.771 20.3985 127.57 20.6859C127.369 20.9726 127 21.4511 126.81 21.6322C126.535 21.898 126.208 22.0152 125.965 22.026V21.4511C125.965 20.5688 126.134 20.4733 126.567 20.4409C126.63 20.3777 126.63 20.1434 126.567 20.0794C126.335 20.0902 125.786 20.101 125.279 20.101C124.699 20.101 124.234 20.0902 123.78 20.0794C123.717 20.1434 123.717 20.3777 123.78 20.4409C124.424 20.4733 124.593 20.5688 124.593 21.4511V23.3652C124.593 24.2484 124.424 24.3439 123.78 24.3755C123.717 24.4394 123.717 24.6737 123.78 24.7377C124.223 24.7269 124.699 24.7161 125.279 24.7161C125.786 24.7161 126.324 24.7269 126.567 24.7377C126.63 24.6737 126.63 24.4394 126.567 24.3755C126.134 24.3439 125.965 24.2484 125.965 23.3652V22.3766ZM132.131 23.9185C132.1 23.9185 132.067 23.8969 132.067 23.7906V21.4511C132.067 20.5688 132.237 20.4733 132.67 20.4409C132.733 20.3777 132.733 20.1434 132.67 20.0794C132.427 20.0902 131.883 20.101 131.381 20.101C130.797 20.101 130.325 20.0902 129.882 20.0794C129.819 20.1434 129.819 20.3777 129.882 20.4409C130.527 20.4733 130.695 20.5688 130.695 21.4511V23.3652C130.695 24.2484 130.527 24.3439 129.882 24.3755C129.819 24.4394 129.819 24.6737 129.882 24.7377C130.336 24.7269 130.797 24.7161 131.381 24.7161C131.719 24.7161 132.015 24.7269 132.247 24.7377C132.279 24.6521 132.298 24.599 132.331 24.5142L133.747 20.8986C133.778 20.8986 133.81 20.9194 133.81 21.0257V23.3652C133.81 24.2484 133.641 24.3439 133.208 24.3755C133.145 24.4394 133.145 24.6737 133.208 24.7377C133.451 24.7269 133.995 24.7161 134.497 24.7161C135.081 24.7161 135.552 24.7269 135.995 24.7377C136.059 24.6737 136.059 24.4394 135.995 24.3755C135.351 24.3439 135.183 24.2484 135.183 23.3652V21.4511C135.183 20.5688 135.351 20.4733 135.995 20.4409C136.059 20.3777 136.059 20.1434 135.995 20.0794C135.542 20.0902 135.081 20.101 134.497 20.101C134.158 20.101 133.863 20.0902 133.63 20.0794C133.599 20.1642 133.579 20.2157 133.546 20.3029L132.131 23.9185ZM140.736 23.7906C140.736 23.6635 140.715 23.4616 140.599 23.4616C140.177 23.8546 139.818 24.0565 139.512 24.0565C138.72 24.0565 138.096 23.4824 138.096 22.2063C138.096 21.0257 138.36 20.4409 138.92 20.4409C139.311 20.4409 139.469 20.8554 139.501 21.196C139.532 21.4835 139.818 21.6962 140.155 21.6962C140.493 21.6962 140.736 21.4303 140.736 21.1005C140.736 20.622 140.166 19.9947 139.015 19.9947C137.77 19.9947 136.671 21.005 136.671 22.5785C136.671 23.2664 136.916 23.8812 137.326 24.2691C137.741 24.6613 138.218 24.8224 138.973 24.8224C139.606 24.8224 140.335 24.3755 140.736 23.7906ZM143.122 23.4226C143.122 24.3015 143.006 24.3439 142.362 24.3755C142.299 24.4394 142.299 24.6737 142.362 24.7377C142.805 24.7269 143.277 24.7161 143.861 24.7161C144.405 24.7161 144.848 24.7269 145.255 24.7377C145.318 24.6737 145.318 24.4394 145.255 24.3755C144.611 24.3439 144.495 24.3015 144.495 23.4226V20.5156H144.674C145.45 20.5156 145.666 20.8006 145.846 21.6604C145.983 21.7153 146.258 21.6339 146.258 21.6181C146.195 21.1304 146.153 20.6627 146.142 20.0479C145.899 20.0686 145.002 20.1118 144.474 20.1118H143.143C142.616 20.1118 141.918 20.0794 141.496 20.0479C141.485 20.6627 141.443 21.1304 141.37 21.6181C141.348 21.6289 141.62 21.6779 141.792 21.6604C141.971 20.8006 142.209 20.5156 142.964 20.5156H143.122V23.4226ZM149.65 24.2002C149.722 24.6314 150.006 24.8224 150.471 24.8224C151.054 24.8224 151.464 24.599 151.854 24.2268C151.829 24.103 151.785 24.0174 151.664 23.9293C151.526 24.0357 151.421 24.0781 151.22 24.0781C150.988 24.0781 150.925 23.887 150.925 23.3652L150.946 21.8341C150.946 20.3029 150.006 19.9947 149.138 19.9947C148.365 19.9947 147.177 20.4375 147.177 21.1395C147.177 21.4445 147.305 21.6762 147.724 21.6762C148.097 21.6762 148.38 21.4428 148.38 21.1852C148.38 21.0457 148.306 20.8662 148.331 20.6818C148.346 20.5655 148.422 20.4409 148.778 20.4409C149.223 20.4409 149.594 20.6328 149.594 21.9828L148.885 22.2063C147.775 22.5577 146.997 22.8659 146.997 23.7058C146.997 24.4394 147.399 24.8224 148.317 24.8224C148.623 24.8224 149.236 24.4818 149.584 24.206L149.65 24.2002ZM149.594 22.3974V23.8014C149.33 24.0141 149.066 24.1844 148.877 24.1844C148.422 24.1844 148.264 23.8762 148.264 23.5464C148.264 23.1525 148.298 22.8252 149.045 22.5785L149.594 22.3974ZM156.088 21.4511V22.0468H154.345V21.4511C154.345 20.5688 154.514 20.4733 154.948 20.4409C155.011 20.3777 155.011 20.1434 154.948 20.0794C154.715 20.0902 154.166 20.101 153.659 20.101C153.078 20.101 152.614 20.0902 152.16 20.0794C152.097 20.1434 152.097 20.3777 152.16 20.4409C152.804 20.4733 152.973 20.5688 152.973 21.4511V23.3652C152.973 24.2484 152.804 24.3439 152.16 24.3755C152.097 24.4394 152.097 24.6737 152.16 24.7377C152.603 24.7269 153.078 24.7161 153.659 24.7161C154.166 24.7161 154.704 24.7269 154.948 24.7377C155.011 24.6737 155.011 24.4394 154.948 24.3755C154.514 24.3439 154.345 24.2484 154.345 23.3652V22.4613H156.088V23.3652C156.088 24.2484 155.919 24.3439 155.486 24.3755C155.423 24.4394 155.423 24.6737 155.486 24.7377C155.729 24.7269 156.267 24.7161 156.774 24.7161C157.354 24.7161 157.83 24.7269 158.273 24.7377C158.337 24.6737 158.337 24.4394 158.273 24.3755C157.629 24.3439 157.46 24.2484 157.46 23.3652V21.4511C157.46 20.5688 157.629 20.4733 158.273 20.4409C158.337 20.3777 158.337 20.1434 158.273 20.0794C157.819 20.0902 157.354 20.101 156.774 20.101C156.267 20.101 155.718 20.0902 155.486 20.0794C155.423 20.1434 155.423 20.3777 155.486 20.4409C155.919 20.4733 156.088 20.5688 156.088 21.4511Z" fill="black" fill-opacity="0.87"/>
<defs>
<radialGradient id="paint0_radial_605_33246" cx="0" cy="0" r="1" gradientUnits="userSpaceOnUse" gradientTransform="translate(23.3497 9.48804) rotate(144.287) scale(23.6043 24.2571)">
<stop stop-color="#E4A237"/>
<stop offset="0.501961" stop-color="#F0B644"/>
<stop offset="1" stop-color="#E7C66E"/>
</radialGradient>
</defs>
</svg>
