<svg width="20" height="20" viewBox="0 0 20 20" fill="none" xmlns="http://www.w3.org/2000/svg">
<path fill-rule="evenodd" clip-rule="evenodd" d="M16.6667 5.00065H3.33333C2.41286 5.00065 1.66667 5.74684 1.66667 6.66732V13.334C1.66667 14.2545 2.41286 15.0007 3.33333 15.0007H16.6667C17.5872 15.0007 18.3333 14.2545 18.3333 13.334V6.66732C18.3333 5.74684 17.5872 5.00065 16.6667 5.00065ZM3.33333 3.33398C1.49238 3.33398 0 4.82637 0 6.66732V13.334C0 15.1749 1.49238 16.6673 3.33333 16.6673H16.6667C18.5076 16.6673 20 15.1749 20 13.334V6.66732C20 4.82637 18.5076 3.33398 16.6667 3.33398H3.33333Z" fill="#A5AAB4"/>
<path d="M19.167 8.33268C19.167 8.79293 18.7939 9.16602 18.3337 9.16602C16.0325 9.16602 14.167 7.30053 14.167 4.99935C14.167 4.53912 14.5401 4.16602 15.0003 4.16602C15.4606 4.16602 15.8337 4.53912 15.8337 4.99935C15.8337 6.38006 16.9529 7.49935 18.3337 7.49935C18.7939 7.49935 19.167 7.87245 19.167 8.33268Z" fill="#A5AAB4"/>
<path d="M1.66634 10.834C1.20611 10.834 0.833008 11.2071 0.833008 11.6673C0.833008 12.1276 1.20611 12.5007 1.66634 12.5007C3.04705 12.5007 4.16634 13.6199 4.16634 15.0007C4.16634 15.4609 4.53944 15.834 4.99967 15.834C5.45991 15.834 5.83301 15.4609 5.83301 15.0007C5.83301 12.6995 3.96752 10.834 1.66634 10.834Z" fill="#A5AAB4"/>
<path d="M18.3337 10.834C18.7939 10.834 19.167 11.2071 19.167 11.6673C19.167 12.1276 18.7939 12.5007 18.3337 12.5007C16.9529 12.5007 15.8337 13.6199 15.8337 15.0007C15.8337 15.4609 15.4606 15.834 15.0003 15.834C14.5401 15.834 14.167 15.4609 14.167 15.0007C14.167 12.6995 16.0325 10.834 18.3337 10.834Z" fill="#A5AAB4"/>
<path d="M1.66634 9.16602C1.20611 9.16602 0.833008 8.79293 0.833008 8.33268C0.833008 7.87245 1.20611 7.49935 1.66634 7.49935C3.04705 7.49935 4.16634 6.38006 4.16634 4.99935C4.16634 4.53912 4.53944 4.16602 4.99967 4.16602C5.45991 4.16602 5.83301 4.53912 5.83301 4.99935C5.83301 7.30053 3.96752 9.16602 1.66634 9.16602Z" fill="#A5AAB4"/>
<path fill-rule="evenodd" clip-rule="evenodd" d="M10.0003 11.666C10.9208 11.666 11.667 10.9198 11.667 9.99935C11.667 9.07885 10.9208 8.33268 10.0003 8.33268C9.07983 8.33268 8.33366 9.07885 8.33366 9.99935C8.33366 10.9198 9.07983 11.666 10.0003 11.666ZM10.0003 13.3327C11.8412 13.3327 13.3337 11.8403 13.3337 9.99935C13.3337 8.1584 11.8412 6.66602 10.0003 6.66602C8.15938 6.66602 6.66699 8.1584 6.66699 9.99935C6.66699 11.8403 8.15938 13.3327 10.0003 13.3327Z" fill="#A5AAB4"/>
</svg>
