<svg width="18" height="18" viewBox="0 0 18 18" fill="none" xmlns="http://www.w3.org/2000/svg">
<path fill-rule="evenodd" clip-rule="evenodd" d="M8.16071 1.43604C8.16071 0.97194 8.53693 0.595703 9.00105 0.595703C13.6421 0.595703 17.4044 4.35803 17.4044 8.99909C17.4044 13.6401 13.6421 17.4025 9.00105 17.4025C4.35998 17.4025 0.597656 13.6401 0.597656 8.99909C0.597656 8.53497 0.973893 8.15875 1.438 8.15875C1.9021 8.15875 2.27833 8.53497 2.27833 8.99909C2.27833 12.712 5.28819 15.7218 9.00105 15.7218C12.7139 15.7218 15.7238 12.712 15.7238 8.99909C15.7238 5.28624 12.7139 2.27638 9.00105 2.27638C8.53693 2.27638 8.16071 1.90014 8.16071 1.43604Z" fill="#A5AAB4"/>
</svg>
