<svg width="88" height="80" viewBox="0 0 88 80" fill="none" xmlns="http://www.w3.org/2000/svg">
<path fill-rule="evenodd" clip-rule="evenodd" d="M3.67328 47.7189L32.6095 47.6844C37.2078 47.6535 41.1039 46.0196 43.8695 43.3921C46.7092 40.6944 48.3642 36.9353 48.3642 32.7837C48.3642 28.7445 47.0116 25.3198 44.6915 22.7578C41.6716 19.422 38.01 18.2187 33.6992 17.6029C33.1513 13.3773 32.0319 9.75271 28.7591 6.78714C22.9563 1.52982 13.2253 2.06913 7.85692 7.69421C5.18384 10.4956 3.57579 14.3288 3.51779 18.4544C3.38944 28.0978 3.62022 38.0238 3.67328 47.7189ZM32.6144 50.3525L1.01871 50.3895C0.96194 39.7885 0.706479 28.9987 0.849636 18.4223C0.916278 13.6044 2.79583 9.12702 5.92184 5.85292C12.2985 -0.828563 23.6647 -1.42834 30.5498 4.80886C33.4894 7.47207 35.3431 11.146 36.0663 15.2606C40.3684 16.0689 44.0374 18.057 46.6722 20.9671C49.4354 24.019 51.0459 28.0571 51.0459 32.7825C51.0459 37.6819 49.0824 42.1272 45.7133 45.3272C42.2023 48.6618 37.425 50.3525 32.6144 50.3525Z" fill="#231F20"/>
<path fill-rule="evenodd" clip-rule="evenodd" d="M6.17188 20.6602H30.7097V45.1721H6.17188V20.6602ZM18.4464 23.2098C13.0989 23.2098 8.76474 27.544 8.76474 32.8914C8.76474 38.2388 13.0989 42.573 18.4464 42.573C23.7938 42.573 28.128 38.2388 28.128 32.8914C28.128 27.5453 23.7938 23.2098 18.4464 23.2098Z" fill="#008043"/>
<path fill-rule="evenodd" clip-rule="evenodd" d="M6.25781 17.7538H30.6352C30.6352 11.0217 25.178 5.56445 18.4459 5.56445C11.7138 5.56445 6.25781 11.0217 6.25781 17.7538ZM18.4471 25.9915C22.2568 25.9915 25.3458 29.0805 25.3458 32.8902C25.3458 36.6999 22.2568 39.7888 18.4471 39.7888C14.6374 39.7888 11.5485 36.6999 11.5485 32.8902C11.5485 29.0805 14.6374 25.9915 18.4471 25.9915ZM33.5243 20.7181V45.0968C40.2564 45.0968 45.7136 39.6395 45.7136 32.9074C45.7136 26.1754 40.2564 20.7181 33.5243 20.7181Z" fill="#D51E35"/>
<path fill-rule="evenodd" clip-rule="evenodd" d="M9.72961 61.574C10.8934 61.0841 11.4672 60.219 11.4672 58.9664C11.4672 56.603 9.6062 55.4726 6.36296 55.4726H1.33765C1.00568 55.4812 0.842773 55.6343 0.842773 55.9354V67.8075C0.842773 68.1087 1.00568 68.2617 1.33765 68.2617H7.41565C10.6058 68.2617 12.4434 67.1374 12.4434 64.7926C12.4447 63.1093 11.5401 62.0405 9.72961 61.574ZM86.036 58.9676V58.1975H86.3766C86.4457 58.1975 86.4975 58.2049 86.5333 58.2185C86.5691 58.2321 86.5975 58.2568 86.6185 58.2913C86.6395 58.3259 86.6506 58.3654 86.6506 58.4073C86.6506 58.4616 86.6333 58.5085 86.5975 58.5455C86.5617 58.5826 86.5074 58.606 86.4334 58.6171C86.4605 58.6295 86.4803 58.643 86.4951 58.6554C86.5247 58.6825 86.5531 58.7171 86.579 58.7578L86.7123 58.9676H86.5852L86.484 58.8072C86.4543 58.7603 86.4297 58.7257 86.4112 58.701C86.3914 58.6764 86.3741 58.6591 86.3593 58.6492C86.3445 58.6393 86.3285 58.6332 86.3124 58.6282C86.3013 58.6258 86.2828 58.6245 86.2557 58.6245H86.1384V58.9664H86.036V58.9676ZM86.3741 57.7532C86.1471 57.7532 85.9422 57.8458 85.7941 57.9964C85.646 58.1469 85.5535 58.3542 85.5535 58.5826C85.5535 58.8109 85.6448 59.0182 85.7941 59.1688C85.9422 59.3193 86.1483 59.4119 86.3741 59.4119C86.6012 59.4119 86.8061 59.3193 86.9542 59.1688C87.1023 59.0182 87.1948 58.8109 87.1948 58.5826C87.1948 58.3542 87.1035 58.1469 86.9542 57.9964C86.8061 57.847 86.6012 57.7532 86.3741 57.7532ZM86.8468 58.1037C86.7259 57.9815 86.558 57.9063 86.3741 57.9063C86.189 57.9063 86.0224 57.9815 85.9015 58.1037C85.7805 58.2259 85.7052 58.3962 85.7052 58.5838C85.7052 58.7714 85.7805 58.9404 85.9015 59.0639C86.0224 59.186 86.189 59.2613 86.3741 59.2613C86.558 59.2613 86.7259 59.186 86.8468 59.0626C86.9677 58.9405 87.043 58.7701 87.043 58.5838C87.043 58.3974 86.9677 58.2259 86.8468 58.1037ZM86.1384 58.5381H86.3569C86.4038 58.5381 86.4395 58.5332 86.4655 58.5233C86.4914 58.5134 86.5111 58.4986 86.5247 58.4777C86.5383 58.4567 86.5457 58.4332 86.5457 58.4085C86.5457 58.3728 86.5321 58.3419 86.5062 58.3185C86.4803 58.295 86.4383 58.2839 86.3815 58.2839H86.1384V58.5381ZM7.90436 79.9105V73.7362H9.15452V79.9105H7.90436ZM31.1884 79.9969H29.8419L29.3088 78.5912H26.8332L26.3198 79.9969H24.998L27.3947 73.8226H28.7152L31.1884 79.9969ZM28.9028 77.5472L28.0451 75.2616L27.212 77.5472H28.9028ZM18.319 79.9969V78.8763L21.5722 74.8667H18.6893V73.8238H23.2073V74.7902L19.8271 78.9553H23.3369V79.9981H18.319V79.9969ZM11.5549 79.9969V78.8763L14.808 74.8667H11.9263V73.8238H16.4444V74.7902L13.0642 78.9553H16.574V79.9981H11.5549V79.9969ZM0.957546 79.9969V73.8226H2.95681C3.71455 73.8226 4.20696 73.8522 4.43651 73.9152C4.78946 74.009 5.08565 74.2101 5.32507 74.5199C5.56325 74.8309 5.68296 75.2307 5.68296 75.7231C5.68296 76.102 5.61385 76.4204 5.47686 76.6783C5.33864 76.9375 5.16463 77.1399 4.9536 77.288C4.74257 77.4349 4.5266 77.5323 4.30816 77.5792C4.01074 77.6385 3.58127 77.6681 3.01728 77.6681H2.20647V79.9969H0.957546ZM2.20894 74.8654V76.624H2.88893C3.37887 76.624 3.70468 76.5907 3.87005 76.5265C4.03542 76.4624 4.165 76.3612 4.25756 76.2217C4.35135 76.0835 4.39825 75.9243 4.39825 75.7404C4.39825 75.5146 4.33161 75.3295 4.20079 75.1826C4.06874 75.0357 3.90337 74.9444 3.70098 74.9062C3.55288 74.879 3.25546 74.8642 2.80748 74.8642H2.20894V74.8654ZM57.6625 57.0794C58.0068 56.7277 58.1833 56.3019 58.1833 55.7996C58.1833 55.3109 58.0056 54.8876 57.6625 54.5359C57.3108 54.1916 56.8875 54.0176 56.3988 54.0176C55.9051 54.0176 55.4794 54.1928 55.1375 54.5359C54.7858 54.8876 54.6081 55.3109 54.6081 55.7996C54.6081 56.3019 54.7858 56.7351 55.1375 57.0794C55.4781 57.4311 55.9039 57.6064 56.3988 57.6064C56.8875 57.6064 57.3096 57.4324 57.6625 57.0794ZM57.6625 68.3987C57.9451 68.3987 58.0871 68.2851 58.0871 68.0581V58.8602C58.0871 58.6332 57.9439 58.5196 57.6625 58.5196H55.1301C54.8475 58.5196 54.7056 58.6332 54.7056 58.8602V68.0581C54.7056 68.2851 54.8487 68.3987 55.1301 68.3987H57.6625ZM49.8407 68.4073C51.181 68.4073 52.0671 68.2531 52.7915 67.6372C53.5171 67.0202 53.8849 66.2229 53.8849 65.2307C53.8849 64.3693 53.5961 63.7091 53.0235 63.2524C51.0045 61.6419 50.4775 62.2491 49.0941 61.4556C48.9694 61.384 48.9262 61.2939 48.9262 61.1964C48.9262 60.9187 49.3199 60.7237 49.9703 60.7237C50.5713 60.7237 51.3932 61.1409 52.0683 61.4494C52.7643 61.7678 53.0272 60.4806 53.4357 59.8278C53.5937 59.5748 53.5517 59.3638 53.3197 59.2046C52.3818 58.5974 51.2377 58.2913 49.8975 58.2913C48.6276 58.2913 47.6354 58.5603 46.9171 59.1071C46.1939 59.6501 45.836 60.4103 45.836 61.3852C45.836 63.1772 46.9356 64.4841 49.4483 64.9C49.4754 64.9049 49.5186 64.9074 49.5643 64.9148C50.385 65.0505 50.7367 65.1493 50.7367 65.4615C50.7367 65.7848 50.2973 65.9983 49.6889 65.9983C49.3138 65.9983 48.8756 65.9218 48.382 65.775C47.8834 65.6269 47.4712 65.4368 47.1207 65.2283C46.8542 65.0703 46.5567 65.1271 46.4099 65.3628L45.509 66.8042C45.1141 67.4385 48.419 68.4073 49.8407 68.4073ZM35.6287 57.0794C35.973 56.7277 36.1495 56.3019 36.1495 55.7996C36.1495 55.3109 35.9718 54.8876 35.6287 54.5359C35.277 54.1916 34.8537 54.0176 34.365 54.0176C33.8713 54.0176 33.4455 54.1928 33.1037 54.5359C32.752 54.8876 32.5743 55.3109 32.5743 55.7996C32.5743 56.3019 32.752 56.7351 33.1037 57.0794C33.4443 57.4311 33.8701 57.6064 34.365 57.6064C34.8537 57.6064 35.2757 57.4324 35.6287 57.0794ZM35.6287 68.3987C35.9113 68.3987 36.0532 68.2851 36.0532 68.0581V58.8602C36.0532 58.6332 35.9101 58.5196 35.6287 58.5196H33.0963C32.8137 58.5196 32.6718 58.6332 32.6718 58.8602V68.0581C32.6718 68.2851 32.8149 68.3987 33.0963 68.3987H35.6287ZM30.907 68.3987C31.1896 68.3987 31.3315 68.2457 31.3315 67.9396V55.5306C31.3315 55.2245 31.1884 55.0715 30.907 55.0715H28.3746C28.092 55.0715 27.95 55.2245 27.95 55.5306V67.9396C27.95 68.2457 28.0932 68.3987 28.3746 68.3987H30.907ZM84.6402 67.0609C85.625 66.1403 86.1113 64.9111 86.1113 63.3968C86.1113 61.8826 85.625 60.6534 84.6501 59.7241C83.6776 58.801 82.3954 58.332 80.7935 58.332C79.1879 58.332 77.9155 58.7998 76.9529 59.7241C75.9866 60.6534 75.5016 61.8838 75.5016 63.3968C75.5016 64.9111 75.9879 66.1403 76.9628 67.0609C77.9254 67.9939 79.2076 68.4616 80.7935 68.4616C82.3768 68.4616 83.6591 67.9939 84.6402 67.0609ZM80.7848 65.5898C80.2727 65.5898 79.8111 65.4134 79.4162 65.0555C79.0126 64.7038 78.8127 64.1496 78.8127 63.3956C78.8127 62.6378 79.0126 62.085 79.4162 61.7357C79.8111 61.384 80.2813 61.2112 80.8071 61.2112C81.3365 61.2112 81.798 61.384 82.2016 61.7456C82.5965 62.1035 82.7977 62.6477 82.7977 63.3771C82.7977 64.1311 82.5977 64.6852 82.1856 65.0468C81.7746 65.4047 81.3106 65.5898 80.7848 65.5898ZM71.3747 58.3555C70.0752 58.3555 69.0694 58.7936 68.2006 59.9808C67.5712 58.7924 66.5197 58.3555 65.2141 58.3555C64.2366 58.3555 63.4517 58.8022 62.7014 59.5538L62.5916 59.0528C62.5286 58.7664 62.3892 58.5455 62.1633 58.5455H59.5507C59.2644 58.5455 59.1225 58.6899 59.1225 58.9775V67.7347C59.1225 68.0223 59.2632 68.1667 59.5507 68.1667H62.088C62.3756 68.1667 62.5163 68.0223 62.5163 67.7347V63.361C62.5163 62.1035 63.0655 61.484 64.0441 61.4803C64.8956 61.4766 65.3153 61.8924 65.3153 62.7341V67.7347C65.3153 68.0223 65.4596 68.1667 65.7435 68.1667H68.2771C68.5708 68.1667 68.714 68.0223 68.714 67.7347V63.3586C68.714 62.1035 69.2545 61.484 70.2357 61.4803C71.0872 61.4766 71.5105 61.8924 71.5105 62.7341V67.7347C71.5105 68.0223 71.6623 68.1667 71.9474 68.1667H74.481C74.7661 68.1667 74.9092 68.0223 74.9092 67.7347V63.1895C74.9092 61.8665 74.5884 60.3523 73.9405 59.5526C73.2925 58.7529 72.4447 58.3555 71.3747 58.3555ZM41.0674 68.4073C42.4077 68.4073 43.2938 68.2531 44.0182 67.6372C44.7438 67.0202 45.1116 66.2229 45.1116 65.2307C45.1116 64.3693 44.8228 63.7091 44.2502 63.2524C42.2312 61.6419 41.7042 62.2491 40.3208 61.4556C40.1961 61.384 40.1529 61.2939 40.1529 61.1964C40.1529 60.9187 40.5466 60.7237 41.197 60.7237C41.798 60.7237 42.6199 61.1409 43.295 61.4494C43.991 61.7678 44.2539 60.4806 44.6624 59.8278C44.8203 59.5748 44.7784 59.3638 44.5464 59.2046C43.6085 58.5974 42.4644 58.2913 41.1242 58.2913C39.8543 58.2913 38.8621 58.5603 38.1438 59.1071C37.4206 59.6501 37.0627 60.4103 37.0627 61.3852C37.0627 63.1772 38.1623 64.4841 40.675 64.9C40.7021 64.9049 40.7453 64.9074 40.791 64.9148C41.6117 65.0505 41.9634 65.1493 41.9634 65.4615C41.9634 65.7848 41.524 65.9983 40.9156 65.9983C40.5404 65.9983 40.1023 65.9218 39.6087 65.775C39.1101 65.6269 38.6979 65.4368 38.3474 65.2283C38.0809 65.0703 37.7834 65.1271 37.6366 65.3628L36.7357 66.8042C36.3408 67.4385 39.6457 68.4073 41.0674 68.4073ZM26.1853 68.3987C26.4679 68.3987 26.6098 68.2457 26.6098 67.9396V55.5306C26.6098 55.2245 26.4679 55.0715 26.1853 55.0715H23.6529C23.3703 55.0715 23.2283 55.2245 23.2283 55.5306V67.9396C23.2283 68.2457 23.3715 68.3987 23.6529 68.3987H26.1853ZM17.5687 58.4666C16.0631 58.4666 14.8722 58.9565 13.9996 59.9351C13.1185 60.9237 12.6804 62.1393 12.6804 63.5869C12.6804 65.0888 13.1641 66.3019 14.1156 67.2053C15.0696 68.1111 16.3321 68.5678 17.8982 68.5678C19.4544 68.5678 20.7675 68.0198 21.8659 66.9289C22.1386 66.6574 22.1793 66.4031 21.9486 66.181L20.96 65.232C20.7527 65.0333 20.5392 65.0271 20.3183 65.2505C19.7765 65.7972 19.0632 66.0749 18.1895 66.0749C16.9553 66.0749 16.2223 65.5183 16.0001 64.4113H21.8128C22.1053 64.4113 22.262 64.2582 22.3027 63.967C22.3163 63.8695 22.3299 63.7177 22.3299 63.4956C22.3299 61.9788 21.8943 60.7534 21.0291 59.8377C20.1579 58.9182 19.0003 58.4666 17.5687 58.4666ZM17.6921 60.9422C18.6535 60.9422 19.2027 61.4531 19.3372 62.4774H15.9286C16.0717 61.4531 16.6592 60.9422 17.6921 60.9422ZM6.9578 58.4579C7.2799 58.4579 7.53289 58.5381 7.71924 58.6986C8.25115 59.1577 8.25855 59.7081 7.88585 60.2375C7.71431 60.4806 7.39591 60.5942 6.95903 60.5942H4.38467V58.4591H6.9578V58.4579ZM4.38467 65.4183V63.1093H7.46749C7.89572 63.1093 8.20178 63.2327 8.38196 63.4746C8.55967 63.714 8.64483 63.9744 8.64483 64.2422C8.64483 64.5075 8.56214 64.7679 8.39184 65.0246C8.21906 65.285 7.91547 65.4171 7.48847 65.4171H4.38467V65.4183Z" fill="#231F20"/>
</svg>
