<svg width="87" height="72" viewBox="0 0 87 72" fill="none" xmlns="http://www.w3.org/2000/svg">
<path d="M53.1014 62.1529C52.6315 62.4813 52.2084 62.8091 51.7391 63.1369C51.6917 63.1843 51.5042 63.1369 51.41 63.0902C50.0951 61.5902 48.0753 61.1683 46.2437 61.966C44.7405 62.6216 43.7534 64.1683 43.7534 65.9026C43.8007 67.9654 45.0689 69.6056 47.0881 70.0275C49.2494 70.4961 51.0343 69.4648 51.5509 67.3559V67.2151H47.558V65.3405H53.3357C53.6181 65.3405 53.7115 65.434 53.7115 65.7151C53.7115 66.7464 53.6181 67.7778 53.1949 68.7618C52.4433 70.4494 51.1284 71.5275 49.3435 71.8553C46.9479 72.324 44.9281 71.621 43.2841 69.8399C42.0626 68.4808 41.5927 66.8399 41.875 65.0121C42.2502 62.434 43.7534 60.7464 46.2431 59.9973C48.6854 59.1996 51.3633 60.0434 52.9599 61.9653C53.0073 61.9653 53.0547 62.0588 53.1008 62.1529H53.1014ZM12.8462 59.95C14.1144 59.95 15.3352 59.9032 16.6041 59.95C17.2142 59.95 17.8249 60.231 18.3416 60.5594C19.2814 61.1683 19.6565 62.1062 19.5631 63.1843C19.4689 64.1683 18.9523 64.8713 18.0131 65.2932C17.9658 65.2932 17.9184 65.3405 17.8717 65.3873C17.9664 65.434 18.0599 65.4807 18.1066 65.4807C19.4222 65.9026 20.2205 66.934 20.2673 68.2932C20.3146 69.6524 19.6104 70.8713 18.3416 71.3399C17.7308 71.5743 17.0733 71.7151 16.4626 71.7151C15.2879 71.7618 14.1144 71.7151 12.8929 71.7151V59.95H12.8462ZM14.8186 70.0742H15.5234C16.1342 70.0742 16.6982 70.0743 17.2616 69.7932C17.8717 69.4648 18.2475 68.9961 18.2475 68.2932C18.2948 67.637 18.0599 67.0742 17.4959 66.6997C16.6508 66.137 15.711 66.3245 14.8186 66.2778V70.0742ZM14.8186 61.4967V64.5902H15.9933C16.1342 64.5902 16.275 64.5435 16.3691 64.5435C17.0733 64.4026 17.4959 63.8873 17.5432 63.231C17.59 62.5281 17.2148 61.9186 16.51 61.731C15.9927 61.5902 15.43 61.5902 14.8186 61.4967ZM35.2983 61.6376V71.7618H33.3265V59.9032C33.3733 59.9032 33.3733 59.8559 33.3733 59.8559C34.6889 59.9032 35.9564 59.8091 37.272 59.95C38.6344 60.0908 39.6676 60.8872 40.1375 62.1997C40.5607 63.3719 40.4192 64.5435 39.5268 65.5275C39.151 65.9494 38.6344 66.2311 38.1645 66.6056C39.1977 68.0121 40.3251 69.5121 41.4058 71.0115C40.8891 71.2932 40.3725 71.5743 39.8552 71.9027C39.4327 71.2932 39.0569 70.7305 38.6811 70.1684C37.7419 68.8086 36.8021 67.4026 35.863 66.0435C35.628 65.7618 35.7689 65.4807 35.863 65.2464C35.863 65.1997 36.0506 65.1529 36.1447 65.1529C36.5205 65.0588 36.8962 65.0588 37.272 64.9186C38.0704 64.6369 38.4468 64.0281 38.3994 63.231C38.3527 62.4807 37.9295 61.9186 37.1312 61.7784C36.5205 61.6837 35.9097 61.6837 35.2996 61.6376H35.2983ZM64.2337 59.9026H65.9245C66.6761 59.9026 67.3809 59.9026 68.1319 59.9973C70.0108 60.231 71.279 61.7784 71.2323 63.6062C71.1856 64.9654 70.4807 65.9026 69.2592 66.5121C69.2125 66.5589 69.1184 66.5589 68.9776 66.6056C70.1049 68.1056 71.1856 69.6056 72.313 71.1056C71.7957 71.3867 71.2791 71.6677 70.7624 71.9962C70.3866 71.4334 70.0108 70.918 69.6824 70.4027C68.7426 68.9961 67.8034 67.5902 66.8169 66.2311C66.582 65.9494 66.6293 65.6683 66.7228 65.3873C66.7702 65.2932 66.911 65.2464 67.0519 65.2464C67.5685 65.2464 67.991 65.1529 68.4609 64.9186C69.1184 64.5435 69.3533 63.9807 69.3066 63.2778C69.2592 62.6216 68.8835 62.1997 68.2733 61.9653C67.7561 61.7778 67.0519 61.6843 66.2535 61.7778V71.8086H64.2805V59.9032H64.2337V59.9026ZM30.6486 59.9026V67.7304C30.6486 69.0429 30.1787 70.1684 29.1454 71.0115C27.8299 72.0429 26.3267 72.2772 24.7768 71.6677C23.2736 71.1056 22.4753 69.934 22.2403 68.3867C22.1936 67.9654 22.1462 67.5902 22.1462 67.1683V59.9032H24.1193V67.5435C24.1193 68.1056 24.2134 68.6683 24.5425 69.137C25.1526 70.0742 26.0456 70.2151 27.0315 70.0275C27.7831 69.8867 28.4406 69.2305 28.5814 68.3867C28.6288 68.0589 28.6755 67.6837 28.6755 67.3559V59.9032H30.6486V59.9026ZM61.8381 59.9026V61.5434C61.8381 61.7778 61.6499 61.731 61.5091 61.731H58.1743C57.8453 61.731 57.7511 61.7778 57.7511 62.1529C57.7985 62.8559 57.7511 63.5588 57.7511 64.3092H61.0859C61.3682 64.3092 61.415 64.4026 61.415 64.6369V66.0902H57.7985V69.934H61.6499C61.9316 69.934 62.0257 70.0275 61.9783 70.3086V71.8086H55.7793V59.9032H61.8388L61.8381 59.9026ZM80.1099 54.231H78.09V42.0919H81.0497C81.9888 42.0919 82.9286 42.2789 83.7269 42.8416C84.8543 43.638 85.371 44.7629 85.2301 46.1227C85.0893 47.3878 84.3844 48.2783 83.257 48.841C83.2103 48.8878 83.1162 48.8878 83.0695 48.9345L83.0221 48.9819C83.257 49.3103 83.5387 49.6848 83.7737 50.0126C84.5253 51.044 85.3242 52.0754 86.0758 53.1535C86.1225 53.247 86.1225 53.4345 86.1225 53.5286C86.1693 53.7156 86.0284 53.7623 85.9343 53.8097C85.5585 53.9973 85.1834 54.2316 84.7602 54.4659C84.5253 54.1375 84.2903 53.763 84.056 53.4345C82.8813 51.7469 81.7539 50.06 80.5798 48.3724C80.4856 48.2316 80.4856 47.7155 80.6265 47.5753C80.6739 47.5286 80.768 47.5286 80.8147 47.5286C81.3781 47.4819 81.9421 47.4351 82.412 47.1067C83.0695 46.6848 83.257 46.1227 83.1636 45.3724C83.0695 44.7162 82.6937 44.3416 82.0829 44.1067C81.4254 43.8256 80.7206 43.9191 80.0164 43.9191V54.2316H80.1099V54.231ZM77.1041 54.044C76.446 54.1842 75.8353 54.3251 75.2252 54.4192C74.9071 53.6459 74.6095 52.8644 74.3328 52.0754C74.2854 51.9813 74.2854 51.9345 74.2386 51.841C74.0504 51.4192 74.0504 51.4192 73.5812 51.4192H69.6824C69.4942 51.4192 69.4007 51.4659 69.3066 51.6528C68.9807 52.4762 68.6674 53.3045 68.3668 54.1375C68.3201 54.3251 68.226 54.3718 68.0384 54.3251C67.5218 54.1842 67.0051 54.0914 66.4878 53.9966C66.4878 53.9966 66.4411 53.9966 66.3944 53.9499C66.4879 53.6689 66.6293 53.3411 66.7702 53.0594L68.6018 48.56L70.9974 42.7942C71.1382 42.5132 71.2323 42.2321 71.3732 41.9037C71.4205 41.8102 71.4673 41.7635 71.6081 41.7635C72.1247 41.7635 72.1247 41.7635 72.313 42.2321C73.0172 44.0132 73.7688 45.7943 74.5203 47.5753L76.9159 53.4813C76.9627 53.7156 77.01 53.8564 77.1041 54.0434V54.044ZM71.7489 45.5599H71.7022C71.1382 46.9665 70.6216 48.3724 70.0582 49.7789H73.393C72.8296 48.3724 72.313 46.9665 71.7489 45.5599ZM56.9996 44.7162C56.6711 44.2943 56.3427 44.0132 55.8722 43.8724C55.4029 43.7321 54.9798 43.7789 54.5572 43.9665C53.9465 44.2949 53.8056 45.1854 54.2755 45.7475C54.6513 46.1694 55.168 46.4037 55.6372 46.6381C56.2953 46.9191 56.9996 47.2475 57.5636 47.6694C58.4093 48.3257 58.9259 49.1695 59.0667 50.2943C59.1602 51.0907 59.0667 51.8878 58.6909 52.5907C58.1743 53.5754 57.3286 54.1381 56.248 54.3718C54.8395 54.6535 53.5707 54.3718 52.4433 53.5286C52.0202 53.2002 51.5042 52.5907 51.2686 52.1221C51.6917 51.7002 52.1616 51.325 52.5842 50.9031C52.725 51.1381 52.8665 51.3251 53.0073 51.5126C53.7115 52.3097 54.5572 52.7316 55.6379 52.5907C56.3421 52.4973 56.812 52.0754 57.0463 51.4665C57.2819 50.8097 57.2345 50.1535 56.7646 49.5907C56.2953 49.0286 55.6372 48.7476 54.9798 48.4665C54.2755 48.1381 53.5713 47.8096 53.0073 47.2475C51.8799 46.1694 51.7391 44.341 52.6789 43.1227C53.1949 42.5132 53.8524 42.1854 54.604 42.0445C55.5905 41.857 56.5303 42.0913 57.3754 42.7008C57.7132 42.9444 57.9872 43.2659 58.1743 43.638C58.2211 43.6854 58.1743 43.7789 58.1743 43.8256C57.7985 44.0132 57.4227 44.3416 56.9996 44.7162ZM67.0986 42.0919V43.9665H64.2337V54.231H62.2139V43.9665H59.3478V42.0913H67.098L67.0986 42.0919ZM5.84694 47.7635C6.50442 47.9505 7.02169 48.2315 7.49095 48.7002C7.86021 49.0701 8.10635 49.545 8.1958 50.06C8.57159 51.8878 7.6318 53.4345 5.8002 53.9032C5.28357 54.044 4.76693 54.0908 4.2503 54.1375C3.12292 54.1849 1.99554 54.1375 0.868164 54.1375V42.2789C0.914901 42.2789 1.00901 42.2321 1.05574 42.2321H3.96798C4.86041 42.2789 5.75284 42.4658 6.45768 43.0286C7.82001 44.1067 7.86675 46.1694 6.50442 47.2475C6.41095 47.4812 6.12863 47.576 5.84757 47.7629L5.84694 47.7635ZM2.8406 50.5286V52.2162C2.8406 52.3097 2.93534 52.4499 2.98144 52.4499C3.63955 52.4499 4.34377 52.4973 5.00125 52.3097C5.89431 52.0286 6.36358 51.325 6.2701 50.341C6.22273 49.5907 5.61199 48.9345 4.76693 48.7937C4.20293 48.7002 3.59219 48.7476 3.02881 48.7002C2.8406 48.7002 2.8406 48.7943 2.8406 48.9345V50.5286ZM2.8406 45.4191V46.7315C2.8406 46.8724 2.8406 46.9665 3.02881 46.9665C3.54545 46.9191 4.06208 46.9191 4.57872 46.8724C5.18946 46.7789 5.61199 46.2629 5.65873 45.6067C5.7061 44.9037 5.42441 44.3877 4.81367 44.1067C4.2503 43.873 3.63892 43.9191 3.02881 43.9191C2.98144 43.9191 2.88797 44.0599 2.88797 44.1067C2.8406 44.5753 2.8406 44.9972 2.8406 45.4191ZM40.4186 54.0908H38.4455V42.2321H40.3718V47.9505H40.4653C41.9218 45.9818 43.3776 43.9665 44.834 41.9978L46.3839 42.9818C46.0081 43.4505 45.6797 43.9191 45.3506 44.3416C44.4582 45.5132 43.6125 46.6381 42.7201 47.8096C42.5792 47.9972 42.6266 48.0913 42.7674 48.2316L46.8538 53.0126C46.9005 53.0594 46.9479 53.1067 46.9946 53.2002C46.478 53.5754 45.9614 53.9032 45.3974 54.2783L40.4653 48.0913H40.4192V54.0914L40.4186 54.0908ZM37.4129 43.8256C36.9897 44.2943 36.5666 44.7162 36.144 45.1848C35.064 44.154 33.7958 43.7321 32.3861 43.9191C31.3661 44.0484 30.4295 44.5492 29.7556 45.3256C28.3939 46.9191 28.3939 49.4038 29.7556 50.9973C30.6019 51.9345 31.6819 52.4032 32.9034 52.4499C34.1716 52.4973 35.2049 52.0754 36.144 51.1381C36.5672 51.6067 36.9897 52.0754 37.4123 52.4973C35.4398 54.6068 31.3996 55.1221 28.6755 52.6375C26.0924 50.2476 26.0924 46.0286 28.6755 43.6848C31.4002 41.154 35.4398 41.7161 37.4123 43.8256H37.4129ZM18.5298 54.3257C17.919 54.1842 17.3083 54.044 16.6982 53.9499C17.0733 53.0126 17.4498 52.0754 17.8249 51.1848C18.5298 49.4505 19.234 47.7162 19.9856 45.9818L21.5355 42.1854C21.5576 42.1423 21.5913 42.1063 21.6328 42.0814C21.6743 42.0565 21.722 42.0437 21.7704 42.0445C21.8221 42.0214 21.8781 42.0095 21.9347 42.0095C21.9912 42.0095 22.0472 42.0214 22.0989 42.0445C22.1936 42.0913 22.3344 42.138 22.3344 42.2321L25.4343 49.8257C25.9983 51.1381 26.5143 52.4973 27.0783 53.8097C27.0783 53.8564 27.1256 53.9032 27.1256 53.9973C26.5149 54.1375 25.9509 54.2783 25.294 54.3718L24.8709 53.2476C24.6827 52.7316 24.4477 52.1688 24.2601 51.6067C24.2134 51.4659 24.1193 51.4192 23.9785 51.4192H19.8447C19.7039 51.4192 19.6098 51.4659 19.5631 51.6067C19.2346 52.4973 18.8582 53.3878 18.5298 54.3251V54.3257ZM21.9113 45.5599C21.3479 47.0126 20.8313 48.3724 20.2673 49.7789H23.5086C22.9919 48.3724 22.4753 46.9665 21.9113 45.5599ZM9.69897 42.2321H11.6247V52.2629H15.7584C15.9927 52.2629 16.0401 52.3097 16.0401 52.544V54.0914H9.69897V42.2315V42.2321ZM35.1581 30.5137C39.1036 31.8262 42.2034 29.9516 43.9883 29.9042C45.5388 29.8575 46.2904 30.2327 46.6662 30.7948C46.8538 31.0765 46.9479 31.3575 47.2763 31.3108C47.7462 31.3108 47.6995 30.8421 47.8871 30.467C48.0279 30.1386 48.357 30.0451 48.6387 30.0451C49.1553 30.0451 49.5785 30.5137 49.5785 31.1232V33.4196C49.5785 34.0765 49.9069 34.4043 50.3768 34.4043C50.8934 34.4043 51.1751 33.9824 51.1751 33.467V31.0291C51.1751 31.0291 53.7583 30.2327 55.5438 28.264C57.2345 26.483 57.9861 24.1391 58.1743 23.4829C58.3619 22.8267 58.6436 21.7953 57.892 21.4208C57.4695 21.2332 56.812 21.28 55.6372 21.28H29.6621C28.253 21.28 28.4406 22.4989 29.1454 24.1391C30.6954 27.6078 32.9968 29.764 35.1581 30.5137ZM52.0208 5.39057C51.6924 5.39057 51.3633 5.10888 51.3633 4.73372C51.3633 4.35919 51.645 4.07751 52.0202 4.07751C52.3492 4.07751 52.6783 4.35919 52.6783 4.73435C52.6783 5.10888 52.3966 5.38994 52.0208 5.38994V5.39057ZM40.9352 2.48339C40.6068 2.48339 40.2777 2.20233 40.2777 1.82717C40.2777 1.45201 40.5594 1.17096 40.9352 1.17096C41.311 1.17096 41.5927 1.45201 41.5927 1.82717C41.5927 2.20233 41.2643 2.48339 40.9359 2.48339H40.9352ZM40.0895 4.49877C39.7611 4.49877 39.4794 4.21772 39.4794 3.84256C39.4794 3.4674 39.7611 3.18634 40.0895 3.18634C40.4653 3.18634 40.7476 3.4674 40.7476 3.84319C40.7003 4.21772 40.4186 4.49877 40.0895 4.49877ZM38.7278 2.85855C38.3988 2.85855 38.0697 2.57686 38.0697 2.2017C38.0697 1.82717 38.352 1.54612 38.7278 1.54612C39.0563 1.54612 39.3847 1.82717 39.3847 2.20233C39.3379 2.57686 39.0563 2.85855 38.7278 2.85855ZM37.0838 3.65498C37.0838 3.65498 35.1108 4.54551 33.3259 6.79584C31.7754 8.71712 30.9303 10.9201 30.9303 10.9201C30.8362 11.155 30.6486 11.2952 30.4137 11.2952C30.3663 11.2952 30.2728 11.2952 30.2255 11.2485C29.9438 11.155 29.8023 10.8266 29.897 10.5456C29.9438 10.4515 30.7895 8.15501 32.4802 6.09289C34.4533 3.65498 36.5666 2.67097 36.6613 2.62423C36.9423 2.48339 37.2714 2.62423 37.4129 2.90529C37.5064 3.23371 37.3655 3.5615 37.0838 3.65498ZM57.7511 8.85797C57.3754 8.10891 53.7115 0 43.6599 0C33.7958 0 30.0379 7.64027 29.2389 9.42134C28.6755 10.7338 28.2056 11.8119 29.3804 12.2338C29.8497 12.374 30.5071 12.374 31.212 12.374H39.5262V14.4367C39.5262 15.0456 39.8546 15.3273 40.2777 15.3273C40.7009 15.3273 41.0293 15.0456 41.0293 14.4367V12.0462C41.0293 11.5302 41.3578 11.1557 41.7809 11.1557C42.2041 11.1557 42.5325 11.5302 42.5325 12.0462C42.5325 12.4681 43.1426 12.3273 43.1426 12.3273H56.9996C58.6436 12.3273 58.7844 10.9681 57.7511 8.8586V8.85797Z" fill="#17171C"/>
</svg>
