<svg width="893" height="185" viewBox="0 0 893 185" fill="none" xmlns="http://www.w3.org/2000/svg">
<circle cx="4" cy="4" r="4" fill="white" fill-opacity="0.1"/>
<circle cx="63" cy="4" r="4" fill="white" fill-opacity="0.1"/>
<circle cx="122" cy="4" r="4" fill="white" fill-opacity="0.1"/>
<circle cx="181" cy="4" r="4" fill="white" fill-opacity="0.1"/>
<circle cx="240" cy="4" r="4" fill="white" fill-opacity="0.1"/>
<circle cx="299" cy="4" r="4" fill="white" fill-opacity="0.1"/>
<circle cx="358" cy="4" r="4" fill="white" fill-opacity="0.1"/>
<circle cx="417" cy="4" r="4" fill="white" fill-opacity="0.1"/>
<circle cx="476" cy="4" r="4" fill="white" fill-opacity="0.1"/>
<circle cx="535" cy="4" r="4" fill="white" fill-opacity="0.1"/>
<circle cx="594" cy="4" r="4" fill="white" fill-opacity="0.1"/>
<circle cx="653" cy="4" r="4" fill="white" fill-opacity="0.1"/>
<circle cx="712" cy="4" r="4" fill="white" fill-opacity="0.1"/>
<circle cx="771" cy="4" r="4" fill="white" fill-opacity="0.1"/>
<circle cx="830" cy="4" r="4" fill="white" fill-opacity="0.1"/>
<circle cx="889" cy="4" r="4" fill="white" fill-opacity="0.1"/>
<circle cx="4" cy="63" r="4" fill="white" fill-opacity="0.1"/>
<circle cx="63" cy="63" r="4" fill="white" fill-opacity="0.1"/>
<circle cx="122" cy="63" r="4" fill="white" fill-opacity="0.1"/>
<circle cx="181" cy="63" r="4" fill="white" fill-opacity="0.1"/>
<circle cx="240" cy="63" r="4" fill="white" fill-opacity="0.1"/>
<circle cx="299" cy="63" r="4" fill="white" fill-opacity="0.1"/>
<circle cx="358" cy="63" r="4" fill="white" fill-opacity="0.1"/>
<circle cx="417" cy="63" r="4" fill="white" fill-opacity="0.1"/>
<circle cx="476" cy="63" r="4" fill="white" fill-opacity="0.1"/>
<circle cx="535" cy="63" r="4" fill="white" fill-opacity="0.1"/>
<circle cx="594" cy="63" r="4" fill="white" fill-opacity="0.1"/>
<circle cx="653" cy="63" r="4" fill="white" fill-opacity="0.1"/>
<circle cx="712" cy="63" r="4" fill="white" fill-opacity="0.1"/>
<circle cx="771" cy="63" r="4" fill="white" fill-opacity="0.1"/>
<circle cx="830" cy="63" r="4" fill="white" fill-opacity="0.1"/>
<circle cx="889" cy="63" r="4" fill="white" fill-opacity="0.1"/>
<circle cx="4" cy="122" r="4" fill="white" fill-opacity="0.1"/>
<circle cx="63" cy="122" r="4" fill="white" fill-opacity="0.1"/>
<circle cx="122" cy="122" r="4" fill="white" fill-opacity="0.1"/>
<circle cx="181" cy="122" r="4" fill="white" fill-opacity="0.1"/>
<circle cx="240" cy="122" r="4" fill="white" fill-opacity="0.1"/>
<circle cx="299" cy="122" r="4" fill="white" fill-opacity="0.1"/>
<circle cx="358" cy="122" r="4" fill="white" fill-opacity="0.1"/>
<circle cx="417" cy="122" r="4" fill="white" fill-opacity="0.1"/>
<circle cx="476" cy="122" r="4" fill="white" fill-opacity="0.1"/>
<circle cx="535" cy="122" r="4" fill="white" fill-opacity="0.1"/>
<circle cx="594" cy="122" r="4" fill="white" fill-opacity="0.1"/>
<circle cx="653" cy="122" r="4" fill="white" fill-opacity="0.1"/>
<circle cx="712" cy="122" r="4" fill="white" fill-opacity="0.1"/>
<circle cx="771" cy="122" r="4" fill="white" fill-opacity="0.1"/>
<circle cx="830" cy="122" r="4" fill="white" fill-opacity="0.1"/>
<circle cx="889" cy="122" r="4" fill="white" fill-opacity="0.1"/>
<circle cx="4" cy="181" r="4" fill="white" fill-opacity="0.1"/>
<circle cx="63" cy="181" r="4" fill="white" fill-opacity="0.1"/>
<circle cx="122" cy="181" r="4" fill="white" fill-opacity="0.1"/>
<circle cx="181" cy="181" r="4" fill="white" fill-opacity="0.1"/>
<circle cx="240" cy="181" r="4" fill="white" fill-opacity="0.1"/>
<circle cx="299" cy="181" r="4" fill="white" fill-opacity="0.1"/>
<circle cx="358" cy="181" r="4" fill="white" fill-opacity="0.1"/>
<circle cx="417" cy="181" r="4" fill="white" fill-opacity="0.1"/>
<circle cx="476" cy="181" r="4" fill="white" fill-opacity="0.1"/>
<circle cx="535" cy="181" r="4" fill="white" fill-opacity="0.1"/>
<circle cx="594" cy="181" r="4" fill="white" fill-opacity="0.1"/>
<circle cx="653" cy="181" r="4" fill="white" fill-opacity="0.1"/>
<circle cx="712" cy="181" r="4" fill="white" fill-opacity="0.1"/>
<circle cx="771" cy="181" r="4" fill="white" fill-opacity="0.1"/>
<circle cx="830" cy="181" r="4" fill="white" fill-opacity="0.1"/>
<circle cx="889" cy="181" r="4" fill="white" fill-opacity="0.1"/>
</svg>
