<svg width="872" height="104" viewBox="0 0 872 104" fill="none" xmlns="http://www.w3.org/2000/svg">
<circle cx="4" cy="4" r="4" fill="#E6E9EF"/>
<circle cx="52" cy="4" r="4" fill="#E6E9EF"/>
<circle cx="100" cy="4" r="4" fill="#E6E9EF"/>
<circle cx="148" cy="4" r="4" fill="#E6E9EF"/>
<circle cx="196" cy="4" r="4" fill="#E6E9EF"/>
<circle cx="244" cy="4" r="4" fill="#E6E9EF"/>
<circle cx="292" cy="4" r="4" fill="#E6E9EF"/>
<circle cx="340" cy="4" r="4" fill="#E6E9EF"/>
<circle cx="388" cy="4" r="4" fill="#E6E9EF"/>
<circle cx="436" cy="4" r="4" fill="#E6E9EF"/>
<circle cx="484" cy="4" r="4" fill="#E6E9EF"/>
<circle cx="532" cy="4" r="4" fill="#E6E9EF"/>
<circle cx="580" cy="4" r="4" fill="#E6E9EF"/>
<circle cx="628" cy="4" r="4" fill="#E6E9EF"/>
<circle cx="676" cy="4" r="4" fill="#E6E9EF"/>
<circle cx="724" cy="4" r="4" fill="#E6E9EF"/>
<circle cx="772" cy="4" r="4" fill="#E6E9EF"/>
<circle cx="820" cy="4" r="4" fill="#E6E9EF"/>
<circle cx="868" cy="4" r="4" fill="#E6E9EF"/>
<circle cx="4" cy="52" r="4" fill="#E6E9EF"/>
<circle cx="52" cy="52" r="4" fill="#E6E9EF"/>
<circle cx="100" cy="52" r="4" fill="#E6E9EF"/>
<circle cx="148" cy="52" r="4" fill="#E6E9EF"/>
<circle cx="196" cy="52" r="4" fill="#E6E9EF"/>
<circle cx="244" cy="52" r="4" fill="#E6E9EF"/>
<circle cx="292" cy="52" r="4" fill="#E6E9EF"/>
<circle cx="340" cy="52" r="4" fill="#E6E9EF"/>
<circle cx="388" cy="52" r="4" fill="#E6E9EF"/>
<circle cx="436" cy="52" r="4" fill="#E6E9EF"/>
<circle cx="484" cy="52" r="4" fill="#E6E9EF"/>
<circle cx="532" cy="52" r="4" fill="#E6E9EF"/>
<circle cx="580" cy="52" r="4" fill="#E6E9EF"/>
<circle cx="628" cy="52" r="4" fill="#E6E9EF"/>
<circle cx="676" cy="52" r="4" fill="#E6E9EF"/>
<circle cx="724" cy="52" r="4" fill="#E6E9EF"/>
<circle cx="772" cy="52" r="4" fill="#E6E9EF"/>
<circle cx="820" cy="52" r="4" fill="#E6E9EF"/>
<circle cx="868" cy="52" r="4" fill="#E6E9EF"/>
<circle cx="4" cy="100" r="4" fill="#E6E9EF"/>
<circle cx="52" cy="100" r="4" fill="#E6E9EF"/>
<circle cx="100" cy="100" r="4" fill="#E6E9EF"/>
<circle cx="148" cy="100" r="4" fill="#E6E9EF"/>
<circle cx="196" cy="100" r="4" fill="#E6E9EF"/>
<circle cx="244" cy="100" r="4" fill="#E6E9EF"/>
<circle cx="292" cy="100" r="4" fill="#E6E9EF"/>
<circle cx="340" cy="100" r="4" fill="#E6E9EF"/>
<circle cx="388" cy="100" r="4" fill="#E6E9EF"/>
<circle cx="436" cy="100" r="4" fill="#E6E9EF"/>
<circle cx="484" cy="100" r="4" fill="#E6E9EF"/>
<circle cx="532" cy="100" r="4" fill="#E6E9EF"/>
<circle cx="580" cy="100" r="4" fill="#E6E9EF"/>
<circle cx="628" cy="100" r="4" fill="#E6E9EF"/>
<circle cx="676" cy="100" r="4" fill="#E6E9EF"/>
</svg>
