<svg width="24" height="24" viewBox="0 0 24 24" fill="none" xmlns="http://www.w3.org/2000/svg">
<g clip-path="url(#clip0_610_32439)">
<rect width="24" height="24" rx="12" fill="#003399"/>
<path d="M29.6857 24.0015H-5.68476C-6.03357 24.0015 -6.31641 23.7186 -6.31641 23.3698V0.631646C-6.31641 0.282838 -6.03357 0 -5.68476 0H29.6858C30.0346 0 30.3174 0.282838 30.3174 0.631646V23.3698C30.3174 23.7187 30.0345 24.0015 29.6857 24.0015Z" fill="#003399"/>
<path d="M12.2562 2.74756L12.5095 3.50692L13.3099 3.51315C13.4136 3.51394 13.4565 3.64616 13.3732 3.70777L12.7292 4.18329L12.9707 4.94645C13.0019 5.04519 12.8894 5.12704 12.8051 5.06672L12.1539 4.60122L11.5027 5.06672C11.4184 5.12697 11.3059 5.04526 11.3372 4.94645L11.5786 4.18329L10.9346 3.70777C10.8513 3.64616 10.8942 3.51394 10.9979 3.51315L11.7983 3.50692L12.0516 2.74756C12.0843 2.64925 12.2234 2.64925 12.2562 2.74756Z" fill="#FFE15A"/>
<path d="M12.2562 19.0522L12.5095 19.8116L13.3099 19.8178C13.4136 19.8186 13.4565 19.9508 13.3732 20.0125L12.7292 20.488L12.9707 21.2511C13.0019 21.3499 12.8894 21.4317 12.8051 21.3714L12.1539 20.9059L11.5027 21.3714C11.4184 21.4317 11.3059 21.3499 11.3372 21.2511L11.5786 20.488L10.9346 20.0125C10.8513 19.9508 10.8942 19.8186 10.9979 19.8178L11.7983 19.8116L12.0516 19.0522C12.0843 18.9539 12.2234 18.9539 12.2562 19.0522Z" fill="#FFE15A"/>
<path d="M20.4105 10.898L20.6638 11.6573L21.4642 11.6635C21.5679 11.6643 21.6108 11.7966 21.5275 11.8582L20.8835 12.3337L21.1249 13.0968C21.1562 13.1956 21.0437 13.2774 20.9594 13.2171L20.3082 12.7516L19.657 13.2171C19.5727 13.2774 19.4602 13.1956 19.4915 13.0968L19.7329 12.3337L19.0889 11.8582C19.0056 11.7966 19.0485 11.6643 19.1522 11.6635L19.9526 11.6573L20.2059 10.898C20.2386 10.7996 20.3777 10.7996 20.4105 10.898Z" fill="#FFE15A"/>
<path d="M4.10583 10.898L4.35912 11.6573L5.15955 11.6635C5.26323 11.6643 5.30616 11.7966 5.2228 11.8582L4.57885 12.3337L4.82026 13.0968C4.85153 13.1956 4.73905 13.2774 4.65469 13.2171L4.00351 12.7516L3.35233 13.2171C3.26805 13.2774 3.1555 13.1956 3.18677 13.0968L3.42818 12.3337L2.78422 11.8582C2.70087 11.7966 2.7438 11.6643 2.84747 11.6635L3.64791 11.6573L3.9012 10.898C3.93397 10.7996 4.07313 10.7996 4.10583 10.898Z" fill="#FFE15A"/>
<path d="M5.32848 6.64014L5.58177 7.3995L6.38221 7.40573C6.48588 7.40651 6.52881 7.53874 6.44546 7.60034L5.8015 8.07587L6.04291 8.83902C6.07418 8.93776 5.96171 9.01962 5.87735 8.9593L5.22617 8.49379L4.57499 8.9593C4.4907 9.01954 4.37815 8.93783 4.40942 8.83902L4.65083 8.07587L4.00688 7.60034C3.92352 7.53874 3.96645 7.40651 4.07013 7.40573L4.87056 7.3995L5.12385 6.64014C5.15662 6.54183 5.29564 6.54183 5.32848 6.64014Z" fill="#FFE15A"/>
<path d="M19.4496 14.7944L19.7029 15.5538L20.5033 15.56C20.607 15.5608 20.6499 15.693 20.5666 15.7546L19.9226 16.2302L20.164 16.9933C20.1953 17.0921 20.0828 17.1739 19.9984 17.1136L19.3473 16.6481L18.6961 17.1136C18.6118 17.1738 18.4992 17.0921 18.5305 16.9933L18.7719 16.2302L18.128 15.7546C18.0446 15.693 18.0875 15.5608 18.1912 15.56L18.9917 15.5538L19.2449 14.7944C19.2777 14.6961 19.4168 14.6961 19.4496 14.7944Z" fill="#FFE15A"/>
<path d="M16.4652 3.65967L16.7185 4.41903L17.5189 4.42526C17.6226 4.42605 17.6655 4.55827 17.5822 4.61988L16.9382 5.0954L17.1796 5.85855C17.2109 5.95729 17.0984 6.03915 17.0141 5.97883L16.3629 5.51332L15.7117 5.97883C15.6274 6.03908 15.5149 5.95737 15.5461 5.85855L15.7876 5.0954L15.1436 4.61988C15.0602 4.55827 15.1032 4.42605 15.2068 4.42526L16.0073 4.41903L16.2606 3.65967C16.2933 3.56136 16.4323 3.56136 16.4652 3.65967Z" fill="#FFE15A"/>
<path d="M8.31286 17.7788L8.56615 18.5382L9.36658 18.5444C9.47026 18.5452 9.51319 18.6774 9.42983 18.739L8.78588 19.2145L9.02729 19.9777C9.05856 20.0764 8.94608 20.1583 8.86172 20.098L8.21054 19.6325L7.55936 20.098C7.47508 20.1582 7.36253 20.0765 7.3938 19.9777L7.63521 19.2145L6.99125 18.739C6.9079 18.6774 6.95083 18.5452 7.0545 18.5444L7.85494 18.5382L8.10823 17.7788C8.141 17.6805 8.28002 17.6805 8.31286 17.7788Z" fill="#FFE15A"/>
<path d="M19.2449 6.64014L18.9917 7.3995L18.1912 7.40573C18.0875 7.40651 18.0446 7.53874 18.128 7.60034L18.7719 8.07587L18.5305 8.83902C18.4992 8.93776 18.6117 9.01962 18.6961 8.9593L19.3473 8.49379L19.9984 8.9593C20.0827 9.01954 20.1953 8.93783 20.164 8.83902L19.9226 8.07587L20.5666 7.60034C20.6499 7.53874 20.607 7.40651 20.5033 7.40573L19.7029 7.3995L19.4496 6.64014C19.4168 6.54183 19.2777 6.54183 19.2449 6.64014Z" fill="#FFE15A"/>
<path d="M5.12385 14.7944L4.87056 15.5538L4.07013 15.56C3.96645 15.5608 3.92352 15.693 4.00688 15.7546L4.65083 16.2302L4.40942 16.9933C4.37815 17.0921 4.49063 17.1739 4.57499 17.1136L5.22617 16.6481L5.87735 17.1136C5.96163 17.1738 6.07418 17.0921 6.04291 16.9933L5.8015 16.2302L6.44546 15.7546C6.52881 15.693 6.48588 15.5608 6.38221 15.56L5.58177 15.5538L5.32848 14.7944C5.29564 14.6961 5.15662 14.6961 5.12385 14.7944Z" fill="#FFE15A"/>
<path d="M8.10823 3.65967L7.85494 4.41903L7.0545 4.42526C6.95083 4.42605 6.9079 4.55827 6.99125 4.61988L7.63521 5.0954L7.3938 5.85855C7.36253 5.95729 7.47501 6.03915 7.55936 5.97883L8.21054 5.51332L8.86172 5.97883C8.94601 6.03908 9.05856 5.95737 9.02729 5.85855L8.78588 5.0954L9.42983 4.61988C9.51319 4.55827 9.47026 4.42605 9.36658 4.42526L8.56615 4.41903L8.31286 3.65967C8.28002 3.56136 8.141 3.56136 8.10823 3.65967Z" fill="#FFE15A"/>
<path d="M16.2606 17.7788L16.0073 18.5382L15.2068 18.5444C15.1032 18.5452 15.0602 18.6774 15.1436 18.739L15.7876 19.2145L15.5461 19.9777C15.5149 20.0764 15.6273 20.1583 15.7117 20.098L16.3629 19.6325L17.0141 20.098C17.0984 20.1582 17.2109 20.0765 17.1796 19.9777L16.9382 19.2145L17.5822 18.739C17.6655 18.6774 17.6226 18.5452 17.5189 18.5444L16.7185 18.5382L16.4652 17.7788C16.4324 17.6805 16.2933 17.6805 16.2606 17.7788Z" fill="#FFE15A"/>
</g>
<defs>
<clipPath id="clip0_610_32439">
<rect width="24" height="24" rx="12" fill="white"/>
</clipPath>
</defs>
</svg>
