<svg width="107" height="73" viewBox="0 0 107 73" fill="none" xmlns="http://www.w3.org/2000/svg">
<path fill-rule="evenodd" clip-rule="evenodd" d="M8.49754 57.9946H3.17843V55.377H8.14934V53.3839H3.17843V51.1025H8.38948V49.1094H0.464844V59.9997H8.49754V57.9946Z" fill="#1A1A18"/>
<path fill-rule="evenodd" clip-rule="evenodd" d="M25.6797 49.1116V60.002H28.3933V55.6194H30.5545C33.064 55.6194 34.1446 53.8664 34.1446 52.3295C34.1446 50.8406 33.028 49.0996 30.5305 49.0996H25.6797V49.1116ZM28.3926 51.1055H29.3531C30.818 51.1055 31.3463 51.4417 31.3463 52.3662C31.3463 53.1827 30.902 53.6269 29.6533 53.6269H28.3926V51.1055Z" fill="#1A1A18"/>
<path fill-rule="evenodd" clip-rule="evenodd" d="M36.5957 49.1113V60.0017H39.3093V55.5711H40.0897C41.5546 55.5711 41.9869 57.6603 43.1515 60.0017H46.1533C44.6164 56.8078 44.2802 55.463 43.1635 54.9107C44.4123 54.3344 45.0366 53.4459 45.0366 52.2452C45.0366 50.6122 43.7159 49.1113 41.4706 49.1113H36.5957ZM39.3108 51.1035H40.6796C41.7002 51.1035 42.2285 51.5238 42.2285 52.3282C42.2285 53.2528 41.4961 53.577 40.7397 53.577H39.2988V51.1035H39.3108Z" fill="#1A1A18"/>
<path fill-rule="evenodd" clip-rule="evenodd" d="M57.5932 57.9946H52.2741V55.377H57.245V53.3839H52.2741V51.1025H57.4852V49.1094H49.5605V59.9997H57.5932V57.9946Z" fill="#1A1A18"/>
<path fill-rule="evenodd" clip-rule="evenodd" d="M68.907 49.8073C67.5382 49.2189 66.4335 48.9668 65.2208 48.9668C62.6994 48.9668 61.0664 50.2155 61.0664 52.1006C61.0664 56.0149 66.6136 55.3545 66.6136 57.1436C66.6136 57.7799 66.0493 58.1522 65.0167 58.1522C63.816 58.1522 62.8555 57.7799 61.2945 56.7473V59.1007C62.3752 59.6651 63.3237 60.1573 65.2208 60.1573C67.6463 60.1573 69.4113 58.9446 69.4113 56.8554C69.4113 53.0492 63.864 53.5175 63.864 51.8725C63.864 51.3322 64.4884 50.984 65.461 50.984C66.3855 50.984 67.3341 51.2601 68.907 51.9565V49.8073Z" fill="#1A1A18"/>
<path fill-rule="evenodd" clip-rule="evenodd" d="M80.4187 49.8073C79.0499 49.2189 77.9453 48.9668 76.7326 48.9668C74.2111 48.9668 72.5781 50.2155 72.5781 52.1006C72.5781 56.0149 78.1254 55.3545 78.1254 57.1436C78.1254 57.7799 77.561 58.1522 76.5284 58.1522C75.3277 58.1522 74.3672 57.7799 72.8063 56.7473V59.1007C73.8869 59.6651 74.8354 60.1573 76.7326 60.1573C79.158 60.1573 80.923 58.9446 80.923 56.8554C80.923 53.0492 75.3758 53.5175 75.3758 51.8725C75.3758 51.3322 76.0001 50.984 76.9727 50.984C77.8972 50.984 78.8458 51.2601 80.4187 51.9565V49.8073Z" fill="#1A1A18"/>
<path fill-rule="evenodd" clip-rule="evenodd" d="M96.2198 57.7799H92.7018C94.6469 55.3065 95.6555 53.4334 95.6555 52.0646C95.6555 50.1315 94.3467 48.9668 92.2095 48.9668C91.1769 48.9668 90.3364 49.255 89.1597 49.9994V52.2807C90.0362 51.4282 91.0088 50.9239 91.7772 50.9239C92.5937 50.9239 93.2301 51.6444 93.2301 52.4849C93.2301 53.3374 92.9419 54.1298 92.0534 55.4866C91.2729 56.6873 90.1683 58.2842 89.0156 59.6891V59.9892H96.2198V57.7799Z" fill="#1A1A18"/>
<path fill-rule="evenodd" clip-rule="evenodd" d="M105.803 48.9668H104.266L99.1387 55.5827V57.3237H103.389V60.0012H105.803V57.3237H106.535V55.5827H105.803V48.9668ZM103.366 52.6055H103.402V55.5712H101.072L103.366 52.6055Z" fill="#1A1A18"/>
<path fill-rule="evenodd" clip-rule="evenodd" d="M17.1777 52.4954L15.0164 49.1094H11.9306L15.4247 54.3564L11.8105 59.9997H14.8363L17.1777 56.2175L19.5311 59.9997H22.5568L18.9427 54.3564L22.4368 49.1094H19.351L17.1777 52.4954Z" fill="#1A1A18"/>
<path fill-rule="evenodd" clip-rule="evenodd" d="M18.0183 67.562C17.3819 67.2978 16.8896 67.1777 16.4093 67.1777C14.9205 67.1777 13.8398 68.2223 13.8398 69.6512C13.8398 70.6358 14.6083 71.9925 16.3733 71.9925C17.1058 71.9925 17.61 71.8245 18.0783 71.5843V70.8519C17.55 71.2001 16.9737 71.3802 16.4454 71.3802C15.3167 71.3802 14.5483 70.6478 14.5483 69.5911C14.5483 68.5585 15.3527 67.7901 16.4214 67.7901C16.9617 67.7901 17.466 67.9462 18.0423 68.2824V67.562H18.0183ZM21.7182 67.2129H21.2379L19.2207 71.9316H19.9051L21.466 68.1254L23.123 71.9316H23.8074L21.7182 67.2129ZM25.3286 67.2363H24.6562L26.7095 71.9311C26.6734 72.2553 26.3492 72.4474 26.1691 72.4474C25.893 72.4474 25.7009 72.3873 25.5448 72.2312V72.8316C25.7009 72.9277 25.905 72.9997 26.1331 72.9997C26.6734 72.9997 27.0216 72.6875 27.2978 71.9311L29.0508 67.2363H28.3904L27.0096 71.1626L25.3286 67.2363ZM33.2076 69.1454C32.7153 69.1454 32.3912 69.0134 32.115 68.317C31.7788 67.4885 31.4306 67.2483 30.7702 67.2483H30.6621V67.8487C31.2625 67.8487 31.3946 68.0648 31.5867 68.6171C31.7068 68.9653 32.0069 69.3135 32.2951 69.4456C31.9109 69.6257 31.6707 69.7938 31.3826 70.2261L30.2539 71.9311H31.0344L31.9469 70.5022C32.199 70.106 32.6793 69.6978 33.2076 69.6978V71.9311H33.88V69.6978C34.4083 69.6978 34.8886 70.106 35.1408 70.5022L36.0533 71.9311H36.8338L35.7051 70.2261C35.4169 69.7938 35.1768 69.6257 34.7926 69.4456C35.0807 69.3135 35.3809 68.9533 35.501 68.6171C35.6931 68.0648 35.8132 67.8487 36.4255 67.8487V67.2483H36.3175C35.6571 67.2483 35.2969 67.4885 34.9727 68.317C34.6965 69.0134 34.3723 69.1454 33.88 69.1454V67.2363H33.2076V69.1454ZM38.4785 71.9311H40.0995C41.096 71.9311 41.7925 71.4028 41.7925 70.5263C41.7925 69.6377 41.096 69.1094 40.0995 69.1094H39.1509V67.8367H41.4683V67.2363H38.4785V71.9311ZM39.1504 69.7227H40.0509C40.7473 69.7227 41.0955 70.0108 41.0955 70.5271C41.0955 70.9594 40.7473 71.3316 40.183 71.3316H39.1504V69.7227ZM45.3334 67.2129H44.8531L42.8359 71.9316H43.5203L44.1087 70.5508H46.1018L46.7262 71.9316H47.4106L45.3334 67.2129ZM45.0932 68.2461L45.8496 69.9511H44.3848L45.0932 68.2461ZM55.2767 71.3313H54.5923L52.9714 67.2129H52.4911L50.9422 71.3313H50.2578V72.7962H50.9422V71.9316H54.5923V72.7962H55.2767V71.3313ZM52.7199 68.1992L53.9086 71.3331H51.6152L52.7199 68.1992ZM56.5 69.5911C56.5 70.8639 57.4726 72.0046 59.0095 72.0046C60.5944 72.0046 61.555 70.8639 61.555 69.5911C61.555 68.2824 60.5824 67.1777 59.0335 67.1777C57.4966 67.1777 56.5 68.2824 56.5 69.5911ZM57.1973 69.5898C57.1973 68.5572 57.9777 67.8008 59.0223 67.8008C60.0789 67.8008 60.8594 68.5572 60.8594 69.5898C60.8594 70.6104 60.0789 71.3789 59.0223 71.3789C57.9777 71.3789 57.1973 70.6104 57.1973 69.5898ZM67.2234 67.562C66.587 67.2978 66.0947 67.1777 65.6144 67.1777C64.1256 67.1777 63.0449 68.2223 63.0449 69.6512C63.0449 70.6358 63.8134 71.9925 65.5784 71.9925C66.3108 71.9925 66.8151 71.8245 67.2834 71.5843V70.8519C66.7551 71.2001 66.1788 71.3802 65.6384 71.3802C64.5098 71.3802 63.7413 70.6478 63.7413 69.5911C63.7413 68.5585 64.5458 67.7901 65.6144 67.7901C66.1547 67.7901 66.659 67.9462 67.2354 68.2824V67.562H67.2234ZM72.4712 67.2363H68.5449V67.8367H70.1659V71.9311H70.8383V67.8367H72.4592V67.2363H72.4712ZM75.9154 67.2129H75.4351L73.418 71.9316H74.1024L74.6907 70.5508H76.6839L77.3082 71.9316H77.9926L75.9154 67.2129ZM75.6752 68.2461L76.4317 69.9511H74.9668L75.6752 68.2461ZM79.3887 71.9311H80.9976C82.1743 71.9311 82.6066 71.2587 82.6066 70.6823C82.6066 70.046 82.1743 69.5897 81.4779 69.4576V69.4456C81.9702 69.2415 82.1983 68.9293 82.1983 68.437C82.1983 67.8487 81.7661 67.2363 80.7575 67.2363H79.3887V71.9311ZM80.0586 67.8477H80.683C81.3073 67.8477 81.4994 68.1478 81.4994 68.496C81.4994 69.0003 81.1752 69.2405 80.5029 69.2405H80.0586V67.8477ZM80.0586 69.8535H80.8751C81.5835 69.8535 81.9197 70.1537 81.9197 70.5859C81.9197 70.9341 81.7036 71.3304 80.9111 71.3304H80.0586V69.8535ZM84.1055 67.2363V71.9311H84.7779V69.6978H84.97C85.4142 69.6978 85.8825 69.9859 86.2907 70.6703L87.0232 71.9311H87.7916L86.9751 70.5022C86.6389 69.9139 86.2787 69.5777 85.9546 69.4336C86.2067 69.3135 86.4829 68.9533 86.6029 68.6171C86.795 68.0648 86.9151 67.8487 87.5275 67.8487V67.2483H87.4194C86.759 67.2483 86.3988 67.4885 86.0746 68.317C85.7985 69.0134 85.4743 69.1454 84.982 69.1454H84.7899V67.2363H84.1055ZM93.5078 67.2363H93.1716L90.1939 70.8144V67.2363H89.5215V71.9911H89.8457L92.8234 68.4851V71.9311H93.4958V67.2363H93.5078Z" fill="#1A1A18"/>
<path fill-rule="evenodd" clip-rule="evenodd" d="M53.498 0.998047C64.6405 0.998047 73.6698 10.0273 73.6698 21.1698C73.6698 32.3124 64.6405 41.3416 53.498 41.3416C42.3554 41.3416 33.3262 32.3124 33.3262 21.1698C33.3382 10.0273 42.3675 0.998047 53.498 0.998047Z" fill="#FFEC00"/>
<path fill-rule="evenodd" clip-rule="evenodd" d="M53.4981 32.7809C37.2766 32.7809 24.1289 27.7859 24.1289 24.8202C24.1289 21.8545 31.0209 19.9694 40.9507 18.0723C40.9387 18.6126 40.9387 19.1769 40.9387 19.7172C41.359 21.9025 46.7861 23.0432 53.5101 23.0432C60.234 23.0432 65.6732 21.8185 66.0814 19.7172C66.0814 19.1649 66.0814 18.6126 66.0694 18.0723C75.9872 19.9694 82.8792 21.8545 82.8792 24.8202C82.8672 27.7859 69.7196 32.7809 53.4981 32.7809Z" fill="#8CC798"/>
<path fill-rule="evenodd" clip-rule="evenodd" d="M64.9171 31.9531C62.3116 34.3545 58.1692 35.9154 53.4985 35.9154C48.8397 35.9154 44.6973 34.3545 42.0918 31.9531C45.5978 32.4694 49.4521 32.7816 53.4985 32.7816C57.5568 32.7816 61.4111 32.4694 64.9171 31.9531Z" fill="#8CC798"/>
<path fill-rule="evenodd" clip-rule="evenodd" d="M53.2343 35.9154C48.6837 35.8554 44.6493 34.3185 42.0918 31.9531C43.9289 32.2173 45.862 32.4334 47.8672 32.5775C48.2514 33.1058 49.7042 34.8348 53.2343 35.9154Z" fill="#4FA26C"/>
<path fill-rule="evenodd" clip-rule="evenodd" d="M53.5108 6.42578C46.955 6.42578 41.4197 11.5408 40.9515 18.0846L40.9395 18.697C41.2997 20.546 46.7869 22.0229 53.5108 22.0229C60.2347 22.0229 65.7219 20.558 66.0821 18.697L66.0701 18.0846C65.5899 11.5408 60.0666 6.42578 53.5108 6.42578Z" fill="#009DE2"/>
<path fill-rule="evenodd" clip-rule="evenodd" d="M62.2376 21.0511L62.3457 21.0271C63.4023 20.7389 65.8277 19.9585 66.0678 18.7217L66.0558 18.1094C65.7557 13.8109 63.2102 9.93259 59.3319 7.8914C59.1518 7.79534 59.0197 7.7233 58.7676 7.61523C58.9597 7.75932 62.2376 10.4369 62.2376 16.7886V21.0511Z" fill="#A0D8F7"/>
<path fill-rule="evenodd" clip-rule="evenodd" d="M40.9395 18.707V19.7276C41.3597 21.9129 46.7869 23.0536 53.5108 23.0536C60.2347 23.0536 65.6739 21.8289 66.0821 19.7276V18.707C65.7219 20.5561 60.2347 22.033 53.5108 22.033C46.7869 22.033 41.2997 20.5561 40.9395 18.707Z" fill="#FFEC00"/>
<path fill-rule="evenodd" clip-rule="evenodd" d="M53.5077 25.8633C54.6244 25.8633 55.5369 26.7758 55.5369 27.8925V27.9045C54.9606 28.1806 54.2641 28.3367 53.5077 28.3367C52.7513 28.3367 52.0549 28.1806 51.4785 27.9045V27.8925C51.4785 26.7758 52.391 25.8633 53.5077 25.8633Z" fill="#FFEC00"/>
<path fill-rule="evenodd" clip-rule="evenodd" d="M51.4785 27.9039V27.8919V27.8439C51.5025 26.9553 52.1029 26.2109 52.9074 25.9588L52.9554 25.9468L53.0034 25.9347L53.0394 25.9227H53.0514L53.0875 25.9107H53.0995H53.1115L53.1595 25.8987L53.1955 25.8867H53.2075H53.2435H53.2556H53.2916H53.3156H53.3516H53.3876C53.3756 25.8987 52.4991 26.391 52.343 27.3396C52.295 27.6518 52.283 27.9519 52.283 28.2161C51.9948 28.12 51.7187 28.024 51.4785 27.9039Z" fill="#FFCB00"/>
<path fill-rule="evenodd" clip-rule="evenodd" d="M55.5369 27.9043V28.4926C54.9606 28.7688 54.2641 28.9249 53.5077 28.9249C52.7513 28.9249 52.0549 28.7688 51.4785 28.4926V27.9043C52.0549 28.1805 52.7513 28.3365 53.5077 28.3365C54.2521 28.3365 54.9606 28.1805 55.5369 27.9043Z" fill="#EE7C00"/>
<path fill-rule="evenodd" clip-rule="evenodd" d="M42.0663 24.8223C43.1829 24.8223 44.0955 25.7348 44.0955 26.8515V26.8635C43.5191 27.1396 42.8227 27.2957 42.0663 27.2957C41.3099 27.2957 40.6134 27.1396 40.0371 26.8635V26.8515C40.0371 25.7348 40.9496 24.8223 42.0663 24.8223Z" fill="#FFEC00"/>
<path fill-rule="evenodd" clip-rule="evenodd" d="M40.0371 26.8626V26.8506V26.8026C40.0611 25.914 40.6615 25.1696 41.4659 24.9175L41.514 24.9054L41.562 24.8934L41.598 24.8814H41.61L41.646 24.8694H41.6581H41.6701L41.7181 24.8574H41.7541H41.7661H41.8021H41.8141H41.8502H41.8742H41.9102H41.9462C41.9342 24.8694 41.0577 25.3617 40.9016 26.3103C40.8536 26.6225 40.8416 26.9226 40.8416 27.1868C40.5534 27.0787 40.2772 26.9827 40.0371 26.8626Z" fill="#FFCB00"/>
<path fill-rule="evenodd" clip-rule="evenodd" d="M44.0955 26.8633V27.4516C43.5191 27.7278 42.8227 27.8839 42.0663 27.8839C41.3099 27.8839 40.6134 27.7278 40.0371 27.4516V26.8633C40.6134 27.1394 41.3099 27.2955 42.0663 27.2955C42.8227 27.3075 43.5191 27.1394 44.0955 26.8633Z" fill="#EE7C00"/>
<path fill-rule="evenodd" clip-rule="evenodd" d="M64.3632 24.8223C65.4798 24.8223 66.3924 25.7348 66.3924 26.8515V26.8635C65.816 27.1396 65.1196 27.2957 64.3632 27.2957C63.6067 27.2957 62.9103 27.1396 62.334 26.8635V26.8515C62.334 25.7348 63.2465 24.8223 64.3632 24.8223Z" fill="#FFEC00"/>
<path fill-rule="evenodd" clip-rule="evenodd" d="M62.334 26.8626V26.8506V26.8026C62.358 25.914 62.9583 25.1696 63.7628 24.9175L63.8108 24.9054L63.8589 24.8934L63.8949 24.8814H63.9069L63.9429 24.8694H63.9549H63.9669L64.015 24.8574H64.051H64.063H64.099H64.111H64.147H64.1711H64.2071H64.2431C64.2311 24.8694 63.3546 25.3617 63.1985 26.3103C63.1505 26.6225 63.1385 26.9226 63.1385 27.1868C62.8503 27.0787 62.5741 26.9827 62.334 26.8626Z" fill="#FFCB00"/>
<path fill-rule="evenodd" clip-rule="evenodd" d="M66.3924 26.8633V27.4516C65.816 27.7278 65.1196 27.8839 64.3632 27.8839C63.6067 27.8839 62.9103 27.7278 62.334 27.4516V26.8633C62.9103 27.1394 63.6067 27.2955 64.3632 27.2955C65.1196 27.3075 65.816 27.1394 66.3924 26.8633Z" fill="#EE7C00"/>
<path fill-rule="evenodd" clip-rule="evenodd" d="M72.0995 21.625C73.2162 21.625 74.1287 22.5375 74.1287 23.6542V23.6662C73.5523 23.9424 72.8559 24.0984 72.0995 24.0984C71.3431 24.0984 70.6466 23.9424 70.0703 23.6662V23.6542C70.0703 22.5375 70.9828 21.625 72.0995 21.625Z" fill="#FFEC00"/>
<path fill-rule="evenodd" clip-rule="evenodd" d="M70.0703 23.6656V23.6536V23.6056C70.0943 22.7171 70.6947 21.9726 71.4991 21.7205L71.5472 21.7085L71.5952 21.6965L71.6312 21.6845H71.6432L71.6793 21.6725H71.6913L71.7393 21.6604L71.7753 21.6484H71.7873H71.8233H71.8353H71.8714H71.8954H71.9314H71.9674C71.9554 21.6604 71.0789 22.1527 70.9228 23.1013C70.8748 23.4135 70.8628 23.7136 70.8628 23.9778C70.5866 23.8817 70.3225 23.7857 70.0703 23.6656Z" fill="#FFCB00"/>
<path fill-rule="evenodd" clip-rule="evenodd" d="M74.1287 23.666V24.2544C73.5523 24.5305 72.8559 24.6866 72.0995 24.6866C71.3431 24.6866 70.6466 24.5305 70.0703 24.2544V23.666C70.6466 23.9422 71.3431 24.0983 72.0995 24.0983C72.8559 24.0983 73.5523 23.9422 74.1287 23.666Z" fill="#EE7C00"/>
<path fill-rule="evenodd" clip-rule="evenodd" d="M26.3629 22.1404C28.7643 20.7956 32.9908 19.679 38.3099 18.5983C39.1984 18.4302 40.0869 18.2381 40.9634 18.082V18.1301C40.9514 18.6584 40.9514 19.2107 40.9514 19.739C41.3116 21.6361 45.4901 22.7528 51.0133 23.0049C51.6137 23.0409 52.238 23.0649 52.8624 23.077C45.6942 23.113 40.2911 23.3291 28.3201 26.8231C25.7025 25.4063 24.6939 23.7974 26.3629 22.1404Z" fill="#4FA26C"/>
<path fill-rule="evenodd" clip-rule="evenodd" d="M53.4981 32.7825C38.5733 32.7825 26.2541 28.556 24.3811 25.5783C24.237 25.3261 24.1649 25.11 24.1409 24.9299C24.1409 24.8939 24.1289 24.8578 24.1289 24.8338C24.1289 23.8252 24.9214 22.9487 26.3502 22.1562C21.5114 26.9951 39.2457 31.3296 53.4981 31.3296C67.7504 31.3296 85.4848 26.9831 80.6459 22.1562C82.0748 22.9607 82.8672 23.8372 82.8672 24.8338C82.8672 24.8698 82.8672 24.9059 82.8552 24.9299C82.8312 25.11 82.7592 25.3261 82.6151 25.5783C80.742 28.556 68.4228 32.7825 53.4981 32.7825Z" fill="#006126"/>
<path fill-rule="evenodd" clip-rule="evenodd" d="M34.5604 21.625C35.6771 21.625 36.5896 22.5375 36.5896 23.6542V23.6662C36.0133 23.9424 35.3169 24.0984 34.5604 24.0984C33.804 24.0984 33.1076 23.9424 32.5312 23.6662V23.6542C32.5312 22.5375 33.4438 21.625 34.5604 21.625Z" fill="#FFEC00"/>
<path fill-rule="evenodd" clip-rule="evenodd" d="M32.5312 23.6656V23.6536V23.6056C32.5553 22.7171 33.1556 21.9726 33.9601 21.7205L34.0081 21.7085L34.0561 21.6965L34.0922 21.6845H34.1042L34.1402 21.6725H34.1522H34.1642L34.2122 21.6604L34.2483 21.6484H34.2603H34.2963H34.3083H34.3443H34.3683H34.4043H34.4404C34.4284 21.6604 33.5518 22.1527 33.3958 23.1013C33.3477 23.4135 33.3357 23.7136 33.3357 23.9778C33.0355 23.8817 32.7714 23.7857 32.5312 23.6656Z" fill="#FFCB00"/>
<path fill-rule="evenodd" clip-rule="evenodd" d="M36.5896 23.666V24.2544C36.0133 24.5305 35.3169 24.6866 34.5604 24.6866C33.804 24.6866 33.1076 24.5305 32.5312 24.2544V23.666C33.1076 23.9422 33.804 24.0983 34.5604 24.0983C35.3049 24.0983 36.0133 23.9422 36.5896 23.666Z" fill="#EE7C00"/>
</svg>
