<svg width="40" height="20" viewBox="0 0 40 20" fill="none" xmlns="http://www.w3.org/2000/svg">
<path d="M13.7415 4.78915C8.57777 3.56993 4.96911 6.46724 2.74943 3.2094C2.74278 3.19628 2.73614 3.18973 2.7295 3.17662C2.66969 3.08485 2.74943 2.95375 2.85576 2.97996C7.42805 4.05498 8.17238 3.38638 10.093 3.6158C11.8674 3.82556 13.7415 4.78915 13.7415 4.78915Z" fill="#2B2B30"/>
<path d="M14.6535 5.60952C10.1077 4.94748 6.88452 8.29708 4.45216 5.72097C4.44551 5.71442 4.43888 5.70131 4.42558 5.69475C4.35913 5.62265 4.40564 5.49155 4.50533 5.49811C8.65894 5.79963 9.63587 5.07858 11.3439 5.00648C12.9388 4.94092 14.6535 5.60952 14.6535 5.60952Z" fill="#2B2B30"/>
<path d="M15.496 6.66329C11.5284 6.13235 9.82719 9.64585 6.61063 7.49579C6.60398 7.48923 6.59734 7.48268 6.58405 7.46957C6.5176 7.41058 6.53753 7.24013 6.63057 7.24013C10.1462 7.24671 11.0633 6.44043 12.5454 6.26346C14.5524 6.02746 15.496 6.66329 15.496 6.66329Z" fill="#2B2B30"/>
<path d="M17.2854 7.82515C15.2119 8.04146 15.5376 9.68018 13.2648 9.31309C12.9657 9.26727 13.0322 9.05748 13.1651 9.01816C15.0725 8.48064 15.0725 8.12012 15.757 7.85136C16.4083 7.60883 17.2854 7.82515 17.2854 7.82515Z" fill="#2B2B30"/>
<path d="M16.346 7.32104C13.3554 7.38002 12.5912 9.49726 10.0724 8.80902C9.68694 8.70413 9.81986 8.41571 10.0259 8.3895C12.9102 7.9372 13.0497 7.51767 14.1196 7.2686C15.1231 7.03262 16.346 7.32104 16.346 7.32104Z" fill="#2B2B30"/>
<path d="M14.639 4.78322C14.619 4.81599 14.5725 4.82255 14.5393 4.80944C13.9213 4.46202 13.3432 4.05561 12.6786 3.60987C12.0539 3.1969 10.7114 2.63317 7.92015 2.76427C6.591 2.82983 4.57069 3.09858 2.48392 1.68926C1.97883 1.35495 1.46711 0.784663 1.20127 0.253717C1.17469 0.207826 1.1614 0.148828 1.15476 0.0898298C1.14811 0.0308318 1.21457 -0.0150415 1.27439 0.00461854C6.43815 2.04978 7.91351 1.25008 11.1633 1.99078C12.499 2.29888 14.1538 4.21293 14.6325 4.69144C14.6589 4.71112 14.6589 4.75044 14.639 4.78322Z" fill="#2B2B30"/>
<path d="M19.1325 15.9917C19.0725 16.1751 19.0858 16.3916 18.9663 16.5488C18.82 16.7587 18.4612 16.7783 18.2883 16.5881C18.1754 16.4899 18.1754 16.3327 18.1355 16.208C17.8764 15.0871 17.6238 13.9661 17.3713 12.8386C17.3447 12.7601 17.3713 12.7075 17.451 12.6749C17.5773 12.642 17.5906 12.7797 17.6304 12.8585C17.9161 13.6254 18.182 14.3987 18.4744 15.1657C18.5674 15.428 18.8799 15.3426 19.0858 15.4084C19.3052 15.5458 19.1722 15.8016 19.1325 15.9917Z" fill="#2B2B30"/>
<path d="M19.4721 12.8994C19.4988 12.9715 19.4588 13.0567 19.3792 13.0697C19.3327 13.0763 19.2927 13.0697 19.2794 13.0042C19.0866 12.624 18.9205 12.2242 18.7211 11.844C18.462 11.6277 18.1895 11.4048 18.0301 11.0967C17.7443 10.5986 17.7708 9.94964 18.0898 9.4711C18.1164 9.43828 18.1363 9.39901 18.163 9.36619C18.2095 9.30064 18.3092 9.31373 18.3356 9.39246C18.3556 9.45146 18.3689 9.51046 18.3956 9.56282C18.7544 10.6706 19.1001 11.7916 19.4721 12.8994Z" fill="#2B2B30"/>
<path d="M19.5235 7.62087C19.5103 7.91584 19.3974 8.19115 19.3242 8.47302C19.3175 8.49268 19.3109 8.50578 19.291 8.51233C19.2445 8.53202 19.1981 8.49923 19.1981 8.45335C19.2045 8.06661 19.3442 7.68642 19.2445 7.30622C19.0983 6.78837 18.7394 6.33609 18.7129 5.78547C18.6995 5.49705 18.7726 5.21519 18.8326 4.93332C18.6198 4.49414 18.52 3.98938 18.633 3.51088C18.653 3.45189 18.6597 3.45189 18.6929 3.49778C18.899 3.79275 19.1713 4.08772 19.1713 4.47445C19.1448 5.02508 18.839 5.5757 19.0452 6.12633C19.2113 6.61795 19.57 7.07679 19.5235 7.62087Z" fill="#2B2B30"/>
<path d="M21.2795 5.72089C21.2663 6.44194 20.6283 7.01878 20.7014 7.75295C20.7014 8.03481 20.7744 8.32323 20.7412 8.60509C20.6947 8.85418 20.4089 8.89351 20.2031 8.95251C20.0834 9.00496 19.9504 8.8673 19.9837 8.7493C19.9837 7.89716 19.9837 7.03845 19.9837 6.1863C19.9969 5.83234 20.0834 5.45868 20.3292 5.18995C20.4821 5.01295 20.6415 4.83597 20.8076 4.65898C20.8409 4.61964 20.8608 4.57377 20.8543 4.52788C20.8409 4.37056 20.8076 4.23291 20.8808 4.04936C20.9938 3.81994 21.1401 3.68229 21.2928 3.53152C21.3195 3.50531 21.3593 3.51841 21.3659 3.55119C21.4723 4.0166 21.3659 4.52133 21.1467 4.94084C21.1998 5.18995 21.2795 5.45214 21.2795 5.72089Z" fill="#2B2B30"/>
<path d="M29.6712 3.0845C28.7674 3.33358 28.3487 3.63513 27.99 3.91699C27.99 3.91699 28.8073 3.63513 29.9836 3.51057C33.3198 3.15005 33.5125 4.37583 37.2475 2.9534C37.3737 2.93373 37.4068 3.03205 37.3737 3.0845C36.8752 3.93664 36.3237 4.88056 34.2369 4.96578C31.964 5.05756 30.7811 4.15951 28.6478 4.42827C27.2854 4.59869 26.581 5.01821 26.1888 5.27387C30.8409 4.39549 30.4555 6.41444 35.0144 5.33942C35.0675 5.3263 35.1275 5.31319 35.1807 5.31974C35.3002 5.33287 35.3468 5.47708 35.2737 5.55573C35.2404 5.59505 35.194 5.63439 35.1607 5.67372C34.5626 6.30954 33.9311 7.00438 31.8045 6.84706C29.3057 6.66352 29.1464 5.13621 24.3746 6.30299C29 6.28334 28.9203 7.77787 32.4027 7.33214C32.5224 7.31903 32.5954 7.46324 32.5024 7.54189C32.4492 7.58777 32.3893 7.6271 32.3428 7.66645C31.8179 8.07284 31.0535 8.57103 29.6181 8.28261C26.6275 7.66645 27.0064 6.4472 23.1585 7.11582C26.1556 7.19448 25.9497 8.3416 29.0267 8.62347C29.0267 8.62347 29.0267 8.62347 29.0332 8.62347C29.1993 8.64313 29.246 8.85945 29.1064 8.95123C28.9999 9.02333 28.8803 9.07577 28.7674 9.1216C26.5212 9.98033 25.4778 7.20103 22.7198 7.82376C24.6936 7.99419 24.534 8.6497 26.3152 9.12824C26.5078 9.1806 26.4881 9.43633 26.2753 9.45597C24.162 9.66569 24.348 8.26294 23.0521 8.2105C22.7065 8.19739 22.3875 8.38094 22.2147 8.68246C21.703 9.56078 21.9089 10.3933 21.8757 10.8456C21.9953 11.3176 22.1749 11.7765 22.1815 12.2745C22.1881 12.622 22.155 12.9825 22.0418 13.3168C21.8292 14.0116 21.6166 14.7066 21.3973 15.408C21.3508 15.5521 21.3573 15.7094 21.4105 15.8471C21.4902 16.0569 21.5701 16.2601 21.6034 16.4829C21.6831 16.8565 21.6298 17.2433 21.4969 17.6038C21.2178 18.279 20.9386 18.9541 20.6596 19.6359C20.6064 19.7604 20.5666 19.8916 20.4734 19.9964C20.334 20.0226 20.3473 19.8456 20.3605 19.7604C20.6331 17.2366 20.8922 14.713 21.1579 12.1893L21.3707 11.5863C20.9521 11.9402 20.766 12.432 20.4934 12.8711C20.4602 12.9759 20.3008 12.9957 20.2676 12.8777C20.2941 12.4384 20.3538 11.9993 20.3672 11.5601C20.407 11.1143 20.4005 10.6621 20.5533 10.236C20.726 9.80333 21.0583 9.45597 21.3176 9.08233C21.7428 8.54481 22.0618 7.93519 22.2811 7.2928C22.4141 6.89951 22.6933 6.55209 23.0521 6.33578C24.2949 5.56229 25.0191 4.89367 26.1955 4.01531C27.2788 3.20903 28.1162 2.57977 28.5947 2.38967C30.7811 1.50473 35.174 2.45521 38.9355 0.0429774C39.0285 -0.00946724 39.1481 0.0954043 39.0752 0.246185C38.7229 1.12454 38.3042 1.68828 37.3072 2.17335C34.4363 3.56957 31.14 2.67809 29.6712 3.0845Z" fill="#2B2B30"/>
<path d="M20.9531 4.6003C20.9531 4.6003 20.707 4.17422 20.109 4.12178C19.657 4.08246 19.4512 4.23322 19.4512 4.23322C19.4512 4.23322 19.996 4.0759 20.4214 4.44953C20.8466 4.82317 20.614 5.14437 20.614 5.14437C20.614 5.14437 21.0793 4.87562 20.9531 4.6003Z" fill="#2B2B30"/>
<path d="M20.9269 4.54146C20.9269 4.54146 20.6146 4.21373 19.9766 4.1875C19.9766 4.1875 20.3553 4.27928 20.402 4.48246C20.4816 4.86922 20.1361 5.38706 20.0696 5.63616C20.0165 5.85902 20.9269 4.54146 20.9269 4.54146Z" fill="#2B2B30"/>
</svg>
