<svg width="24" height="24" viewBox="0 0 24 24" fill="none" xmlns="http://www.w3.org/2000/svg">
<g clip-path="url(#clip0_610_32690)">
<path d="M29.6835 24H-5.6848C-6.03359 24 -6.31641 23.7172 -6.31641 23.3684V0.631607C-6.31641 0.282821 -6.03359 0 -5.6848 0H29.6836C30.0323 0 30.3152 0.282821 30.3152 0.631607V23.3684C30.3151 23.7172 30.0323 24 29.6835 24Z" fill="#41479B"/>
<path d="M30.3151 0.631607C30.3151 0.282821 30.0323 0 29.6835 0H26.8578L15.1572 7.66593V0H8.84138V7.66593L-2.85917 0H-5.6848C-6.03359 0 -6.31641 0.282821 -6.31641 0.631607V2.26507L3.72213 8.84207H-6.31641V15.1579H3.72213L-6.31641 21.7349V23.3684C-6.31641 23.7172 -6.03359 24 -5.6848 24H-2.85909L8.84152 16.3341V24H15.1573V16.3341L26.8579 24H29.6836C30.0324 24 30.3152 23.7172 30.3152 23.3684V21.7349L20.2767 15.1579H30.3151V8.84214H20.2766L30.3151 2.26507V0.631607Z" fill="#F5F5F5"/>
<path d="M30.3151 10.1053H13.8941V0H10.1046V10.1053H-6.31641V13.8947H10.1046V24H13.8941V13.8947H30.3151V10.1053Z" fill="#FF4B55"/>
<path d="M6.48628 15.1582L-6.29883 23.4573C-6.25411 23.7623 -6.00263 24.0003 -5.68518 24.0003H-4.81525L8.80637 15.1583H6.48628V15.1582Z" fill="#FF4B55"/>
<path d="M18.4666 15.1582H16.1465L29.7483 23.9873C30.0653 23.9535 30.3155 23.6946 30.3155 23.3687V22.8494L18.4666 15.1582Z" fill="#FF4B55"/>
<path d="M-6.31641 1.32972L5.25822 8.84304H7.57831L-5.94845 0.0625C-6.16451 0.162879 -6.31641 0.378589 -6.31641 0.632506V1.32972Z" fill="#FF4B55"/>
<path d="M17.4763 8.84207L30.2921 0.522929C30.2389 0.228017 29.9928 0 29.6825 0H28.7777L15.1562 8.84207H17.4763Z" fill="#FF4B55"/>
</g>
<defs>
<clipPath id="clip0_610_32690">
<rect width="24" height="24" rx="12" fill="white"/>
</clipPath>
</defs>
</svg>
