<svg width="135" height="40" viewBox="0 0 135 40" fill="none" xmlns="http://www.w3.org/2000/svg">
<path fill-rule="evenodd" clip-rule="evenodd" d="M129.998 40H5.00184C2.24512 40 0 37.7456 0 35V5C0 2.24439 2.24512 0 5.00184 0H129.998C132.752 0 135 2.24439 135 5V35C135 37.7456 132.752 40 129.998 40Z" fill="black"/>
<path fill-rule="evenodd" clip-rule="evenodd" d="M129.998 0.800499C132.31 0.800499 134.203 2.68828 134.203 5V35C134.203 37.3117 132.323 39.1995 129.998 39.1995H5.00184C2.68967 39.1995 0.797215 37.3117 0.797215 35V5C0.797215 2.68828 2.67725 0.800499 5.00184 0.800499C5.00184 0.800499 129.998 0.800499 129.998 0.800499ZM129.998 0H5.00184C2.24512 0 0 2.25436 0 5V35C0 37.7556 2.24512 40 5.00184 40H129.998C132.752 40 135 37.7556 135 35V5C135 2.25436 132.752 0 129.998 0Z" fill="#A6A6A6"/>
<path d="M71.1191 13.232C70.2176 13.232 69.4577 12.9153 68.8567 12.2918C68.2606 11.6858 67.9278 10.8504 67.9427 9.99755C67.9427 9.08732 68.2507 8.31675 68.8567 7.70577C69.4552 7.08233 70.2151 6.76562 71.1167 6.76562C72.0082 6.76562 72.7682 7.08233 73.3791 7.70577C73.9851 8.3367 74.2931 9.10727 74.2931 9.99755C74.2831 10.9103 73.9752 11.6808 73.3791 12.2893C72.7806 12.9177 72.0207 13.232 71.1191 13.232ZM44.2946 13.232C43.413 13.232 42.6481 12.9202 42.0222 12.3043C41.4013 11.6908 41.0859 10.9153 41.0859 10C41.0859 9.08483 41.4013 8.30927 42.0222 7.6958C42.6357 7.07984 43.4006 6.76812 44.2946 6.76812C44.7317 6.76812 45.1564 6.8554 45.5637 7.03246C45.9636 7.20453 46.2889 7.43894 46.5298 7.72572L46.5894 7.79804L45.9164 8.46139L45.8468 8.37909C45.4669 7.92523 44.9577 7.70328 44.2847 7.70328C43.6837 7.70328 43.1597 7.91775 42.7275 8.34169C42.2929 8.76812 42.0719 9.32672 42.0719 10.0025C42.0719 10.6783 42.2929 11.2369 42.7275 11.6634C43.1597 12.0873 43.6837 12.3018 44.2847 12.3018C44.9255 12.3018 45.4644 12.0873 45.8841 11.6634C46.1324 11.414 46.2864 11.0649 46.3411 10.6235H44.1829V9.69081H47.2674L47.2798 9.7756C47.3022 9.93271 47.3245 10.0948 47.3245 10.2444C47.3245 11.1048 47.0663 11.8005 46.5546 12.3143C45.9735 12.9227 45.2135 13.232 44.2946 13.232ZM79.9605 13.0998H79.0093L76.0961 8.41899L76.121 9.26188V13.0973H75.1698V6.90029H76.2551L76.2849 6.94767L79.0242 11.3566L78.9993 10.5162V6.90029H79.9605V13.0998V13.0998ZM63.9716 13.0998H63.008V7.83296H61.3366V6.90029H65.6405V7.83296H63.9691V13.0998H63.9716ZM60.5518 13.0998H59.5906V6.90029H60.5518V13.0998ZM55.1501 13.0998H54.189V7.83296H52.5176V6.90029H56.8215V7.83296H55.1501V13.0998ZM51.9091 13.0898H48.2236V6.90029H51.9091V7.83296H49.1872V9.5337H51.6434V10.4564H49.1872V12.1571H51.9091V13.0898ZM69.562 11.6509C69.9916 12.0823 70.5132 12.2993 71.1191 12.2993C71.7425 12.2993 72.2516 12.0873 72.6763 11.6509C73.0985 11.227 73.3121 10.6709 73.3121 10C73.3121 9.32922 73.0985 8.77061 72.6788 8.34917C72.2491 7.91774 71.7251 7.70079 71.1216 7.70079C70.4983 7.70079 69.9891 7.91276 69.5669 8.34917C69.1447 8.77311 68.9312 9.32922 68.9312 10C68.9312 10.6709 69.1423 11.2295 69.562 11.6509Z" fill="white"/>
<path fill-rule="evenodd" clip-rule="evenodd" d="M67.8528 21.7564C65.5059 21.7564 63.6035 23.5444 63.6035 26.0108C63.6035 28.4546 65.5183 30.2651 67.8528 30.2651C70.1998 30.2651 72.1021 28.4646 72.1021 26.0108C72.1021 23.5444 70.1998 21.7564 67.8528 21.7564ZM67.8528 28.5793C66.5688 28.5793 65.4636 27.512 65.4636 26.0008C65.4636 24.4671 66.5713 23.4222 67.8528 23.4222C69.1368 23.4222 70.242 24.4671 70.242 26.0008C70.2445 27.522 69.1368 28.5793 67.8528 28.5793ZM58.5818 21.7564C56.2348 21.7564 54.3324 23.5444 54.3324 26.0108C54.3324 28.4546 56.2472 30.2651 58.5818 30.2651C60.9287 30.2651 62.8311 28.4646 62.8311 26.0108C62.8311 23.5444 60.9262 21.7564 58.5818 21.7564ZM58.5818 28.5793C57.2978 28.5793 56.1926 27.512 56.1926 26.0008C56.1926 24.4671 57.3003 23.4222 58.5818 23.4222C59.8658 23.4222 60.9709 24.4671 60.9709 26.0008C60.9709 27.522 59.8658 28.5793 58.5818 28.5793ZM47.5499 23.0556V24.8561H51.8539C51.7222 25.8661 51.3894 26.6118 50.8803 27.123C50.2495 27.7564 49.2759 28.4447 47.5598 28.4447C44.9149 28.4447 42.8461 26.3 42.8461 23.6442C42.8461 20.9883 44.9149 18.8437 47.5598 18.8437C48.9879 18.8437 50.0285 19.4098 50.8008 20.133L52.0724 18.8561C50.9995 17.8237 49.5715 17.0332 47.5698 17.0332C43.9413 17.0332 40.8965 20.0008 40.8965 23.6342C40.8965 27.2776 43.9388 30.2352 47.5698 30.2352C49.5293 30.2352 50.9995 29.5918 52.1618 28.3798C53.3465 27.1903 53.7215 25.512 53.7215 24.1579C53.7215 23.7364 53.6892 23.3574 53.6221 23.0357H47.5474C47.5499 23.0332 47.5499 23.0556 47.5499 23.0556ZM92.6733 24.4571C92.3181 23.502 91.2453 21.7464 89.0448 21.7464C86.8643 21.7464 85.0513 23.4696 85.0513 26.0008C85.0513 28.3898 86.8444 30.2551 89.2559 30.2551C91.1931 30.2551 92.3206 29.0656 92.7851 28.3674L91.3471 27.3998C90.8702 28.1105 90.2071 28.5768 89.2659 28.5768C88.3147 28.5768 87.6491 28.1429 87.207 27.2876L92.872 24.931C92.872 24.9335 92.6733 24.4571 92.6733 24.4571ZM86.8966 25.8786C86.8519 24.2352 88.1682 23.3998 89.1094 23.3998C89.852 23.3998 90.4704 23.7664 90.6815 24.3L86.8966 25.8786ZM82.2946 30.0008H84.1548V17.502H82.2946V30.0008ZM79.2398 22.7015H79.1728C78.7531 22.2003 77.9558 21.7464 76.9376 21.7464C74.8241 21.7464 72.877 23.6142 72.877 26.0133C72.877 28.4023 74.8142 30.2477 76.9376 30.2477C77.9434 30.2477 78.7531 29.7913 79.1728 29.2801H79.2398V29.8911C79.2398 31.5145 78.3756 32.3898 76.9823 32.3898C75.8424 32.3898 75.1345 31.5669 74.8465 30.8786L73.2297 31.5569C73.6941 32.6791 74.9334 34.0681 76.9798 34.0681C79.1604 34.0681 81.0081 32.7788 81.0081 29.6342V22.0008H79.2498V22.7015C79.2523 22.7015 79.2398 22.7015 79.2398 22.7015ZM77.104 28.5793C75.82 28.5793 74.7471 27.502 74.7471 26.0133C74.7471 24.512 75.82 23.4247 77.104 23.4247C78.3756 23.4247 79.3615 24.5245 79.3615 26.0133C79.3739 27.502 78.378 28.5793 77.104 28.5793ZM101.383 17.502H96.935V30.0008H98.7952V25.2676H101.386C103.444 25.2676 105.468 23.7689 105.468 21.3898C105.468 19.0108 103.452 17.502 101.383 17.502ZM101.438 23.522H98.7927V19.2327H101.438C102.831 19.2327 103.618 20.3873 103.618 21.3773C103.618 22.3574 102.821 23.522 101.438 23.522ZM112.924 21.734C111.573 21.734 110.18 22.3349 109.604 23.6442L111.253 24.3325C111.608 23.6442 112.258 23.4098 112.946 23.4098C113.91 23.4098 114.884 23.9883 114.906 25.0207V25.1529C114.573 24.9634 113.843 24.6741 112.969 24.6741C111.188 24.6741 109.383 25.6517 109.383 27.4846C109.383 29.1629 110.843 30.2402 112.47 30.2402C113.719 30.2402 114.407 29.6741 114.836 29.0182H114.903V29.9858H116.697V25.1978C116.697 22.9684 115.047 21.734 112.924 21.734ZM112.691 28.5793C112.082 28.5793 111.23 28.2801 111.23 27.512C111.23 26.5444 112.293 26.1778 113.2 26.1778C114.019 26.1778 114.407 26.3549 114.894 26.5993C114.759 27.7215 113.816 28.5694 112.691 28.5793ZM123.238 22.0008L121.102 27.4222H121.035L118.822 22.0008H116.821L120.141 29.5793L118.249 33.7913H120.186L125.295 22.0008H123.238ZM106.494 30.0008H108.354V17.502H106.494V30.0008Z" fill="white"/>
<path fill-rule="evenodd" clip-rule="evenodd" d="M10.392 7.53413C10.1039 7.84585 9.9375 8.32216 9.9375 8.9456V31.0578C9.9375 31.6813 10.1039 32.1576 10.4019 32.4568L10.4789 32.5242L22.8171 20.1351V19.8583L10.469 7.4668L10.392 7.53413Z" fill="url(#paint0_linear_1639_41904)"/>
<path fill-rule="evenodd" clip-rule="evenodd" d="M26.9219 24.2763L22.8066 20.1441V19.8548L26.9219 15.7227L27.0113 15.7775L31.879 18.5556C33.2723 19.3436 33.2723 20.6454 31.879 21.4434L27.0113 24.2214L26.9219 24.2763Z" fill="url(#paint1_linear_1639_41904)"/>
<path fill-rule="evenodd" clip-rule="evenodd" d="M27.0104 24.2219L22.8058 20L10.3906 32.4663C10.8451 32.9551 11.6076 33.01 12.4594 32.5337L27.0104 24.2219Z" fill="url(#paint2_linear_1639_41904)"/>
<path fill-rule="evenodd" clip-rule="evenodd" d="M27.0104 15.7784L12.4594 7.47918C11.6076 6.9904 10.8426 7.05774 10.3906 7.54651L22.8058 20.0004L27.0104 15.7784Z" fill="url(#paint3_linear_1639_41904)"/>
<path opacity="0.2" fill-rule="evenodd" clip-rule="evenodd" d="M26.921 24.1328L12.4692 32.3772C11.662 32.8435 10.9418 32.8111 10.4774 32.3871L10.4004 32.4645L10.4774 32.5318C10.9418 32.9532 11.662 32.9881 12.4692 32.5218L27.0203 24.2226L26.921 24.1328Z" fill="black"/>
<path opacity="0.12" fill-rule="evenodd" clip-rule="evenodd" d="M31.8778 21.2993L26.9082 24.1322L26.9976 24.2219L31.8653 21.4439C32.5632 21.0449 32.9059 20.5212 32.9059 20C32.8637 20.4788 32.5086 20.9327 31.8778 21.2993Z" fill="black"/>
<path opacity="0.25" fill-rule="evenodd" clip-rule="evenodd" d="M12.4608 7.62427L31.8795 18.7016C32.5103 19.0582 32.8655 19.5245 32.9201 20.0008C32.9201 19.4796 32.5774 18.9559 31.8795 18.5569L12.4608 7.47963C11.0675 6.67913 9.9375 7.34746 9.9375 8.94597V9.0906C9.9375 7.48961 11.0675 6.83375 12.4608 7.62427Z" fill="white"/>
<defs>
<linearGradient id="paint0_linear_1639_41904" x1="21.7104" y1="8.70703" x2="1.93599" y2="13.9543" gradientUnits="userSpaceOnUse">
<stop stop-color="#00A0FF"/>
<stop offset="0.00657" stop-color="#00A1FF"/>
<stop offset="0.2601" stop-color="#00BEFF"/>
<stop offset="0.5122" stop-color="#00D2FF"/>
<stop offset="0.7604" stop-color="#00DFFF"/>
<stop offset="1" stop-color="#00E3FF"/>
</linearGradient>
<linearGradient id="paint1_linear_1639_41904" x1="33.696" y1="19.9995" x2="9.59826" y2="19.9995" gradientUnits="userSpaceOnUse">
<stop stop-color="#FFE000"/>
<stop offset="0.4087" stop-color="#FFBD00"/>
<stop offset="0.7754" stop-color="#FFA500"/>
<stop offset="1" stop-color="#FF9C00"/>
</linearGradient>
<linearGradient id="paint2_linear_1639_41904" x1="24.7241" y1="22.2973" x2="8.76136" y2="49.0538" gradientUnits="userSpaceOnUse">
<stop stop-color="#FF3A44"/>
<stop offset="1" stop-color="#C31162"/>
</linearGradient>
<linearGradient id="paint3_linear_1639_41904" x1="7.26434" y1="0.179171" x2="14.386" y2="12.1291" gradientUnits="userSpaceOnUse">
<stop stop-color="#32A071"/>
<stop offset="0.0685" stop-color="#2DA771"/>
<stop offset="0.4762" stop-color="#15CF74"/>
<stop offset="0.8009" stop-color="#06E775"/>
<stop offset="1" stop-color="#00F076"/>
</linearGradient>
</defs>
</svg>
