<svg width="706" height="330" viewBox="0 0 706 330" fill="none" xmlns="http://www.w3.org/2000/svg">
<path fill-rule="evenodd" clip-rule="evenodd" d="M938.934 245.144C918.115 210.544 892.784 177.899 862.942 148.058C665.532 -49.3525 345.467 -49.3525 148.057 148.058C-49.3525 345.468 -49.3525 665.532 148.057 862.942C345.467 1060.35 665.532 1060.35 862.942 862.942C892.78 833.105 918.108 800.464 938.926 765.869C937.326 765.898 935.723 765.913 934.116 765.913H750.298C606.479 765.913 489.891 649.325 489.891 505.506C489.891 361.688 606.479 245.1 750.298 245.1H934.116C935.725 245.1 937.332 245.114 938.934 245.144Z" fill="#FFC007"/>
</svg>
