<svg width="24" height="24" viewBox="0 0 24 24" fill="none" xmlns="http://www.w3.org/2000/svg">
<g clip-path="url(#clip0_610_32755)">
<path d="M29.6854 24H-5.68285C-6.03163 24 -6.31445 23.7172 -6.31445 23.3684V0.631607C-6.31445 0.282821 -6.03163 0 -5.68285 0H29.6855C30.0343 0 30.3171 0.282821 30.3171 0.631607V23.3684C30.317 23.7173 30.0342 24 29.6854 24Z" fill="white"/>
<path d="M12.0018 18.9469C15.8386 18.9469 18.9489 15.8366 18.9489 11.9998C18.9489 8.16306 15.8386 5.05273 12.0018 5.05273C8.16501 5.05273 5.05469 8.16306 5.05469 11.9998C5.05469 15.8366 8.16501 18.9469 12.0018 18.9469Z" fill="#FF4B55"/>
</g>
<defs>
<clipPath id="clip0_610_32755">
<rect width="24" height="24" rx="12" fill="white"/>
</clipPath>
</defs>
</svg>
