<svg width="280" height="196" viewBox="0 0 280 196" fill="none" xmlns="http://www.w3.org/2000/svg">
<path fill-rule="evenodd" clip-rule="evenodd" d="M165.841 16.3307C164.453 14.0257 162.764 11.8511 160.775 9.8631C147.615 -3.2877 126.278 -3.2877 113.118 9.8631C99.9575 23.0139 99.9575 44.3356 113.118 57.4864C126.278 70.6372 147.615 70.6372 160.775 57.4864C162.764 55.4987 164.452 53.3243 165.84 51.0197C165.734 51.0216 165.627 51.0226 165.52 51.0226H153.266C143.678 51.0226 135.906 43.2559 135.906 33.6752C135.906 24.0944 143.678 16.3277 153.266 16.3277H165.52C165.627 16.3277 165.734 16.3287 165.841 16.3307Z" fill="#FFC007"/>
<path fill-rule="evenodd" clip-rule="evenodd" d="M153.266 22.4507C147.062 22.4507 142.033 27.4762 142.033 33.6754C142.033 39.8747 147.062 44.9002 153.266 44.9002H165.52C171.724 44.9002 176.753 39.8747 176.753 33.6754C176.753 27.4762 171.724 22.4507 165.52 22.4507H153.266ZM165.545 27.6656C162.227 27.6656 159.537 30.3592 159.537 33.6754C159.537 36.9916 162.227 39.6852 165.545 39.6852C168.864 39.6852 171.554 36.9916 171.554 33.6754C171.554 30.3592 168.864 27.6656 165.545 27.6656Z" fill="#32B141"/>
<path d="M0 134.019V88.7798H8.537V126.264H29.2327V134.019H0Z" fill="white"/>
<path d="M48.5483 134.019V101.964H56.5679V105.454H57.7321C58.2926 104.377 59.2196 103.45 60.5131 102.675C61.8066 101.856 63.5096 101.447 65.6223 101.447C67.9075 101.447 69.7399 101.899 71.1196 102.804C72.4994 103.666 73.5557 104.808 74.2887 106.229H75.4528C76.1858 104.851 77.2206 103.709 78.5572 102.804C79.8938 101.899 81.7909 101.447 84.2485 101.447C86.2318 101.447 88.0212 101.878 89.6165 102.739C91.2549 103.558 92.5484 104.829 93.4969 106.553C94.4886 108.233 94.9844 110.366 94.9844 112.951V134.019H86.8355V113.532C86.8355 111.766 86.3828 110.452 85.4773 109.59C84.5719 108.685 83.2999 108.233 81.6615 108.233C79.8075 108.233 78.3632 108.836 77.3284 110.042C76.3367 111.206 75.8409 112.886 75.8409 115.083V134.019H67.6919V113.532C67.6919 111.766 67.2392 110.452 66.3337 109.59C65.4283 108.685 64.1564 108.233 62.518 108.233C60.664 108.233 59.2196 108.836 58.1848 110.042C57.1931 111.206 56.6973 112.886 56.6973 115.083V134.019H48.5483Z" fill="white"/>
<path d="M116.78 134.924C113.59 134.924 110.722 134.278 108.179 132.985C105.635 131.693 103.63 129.819 102.164 127.363C100.698 124.907 99.965 121.956 99.965 118.509V117.475C99.965 114.028 100.698 111.076 102.164 108.621C103.63 106.165 105.635 104.291 108.179 102.998C110.722 101.705 113.59 101.059 116.78 101.059C119.971 101.059 122.838 101.705 125.382 102.998C127.926 104.291 129.931 106.165 131.397 108.621C132.863 111.076 133.596 114.028 133.596 117.475V118.509C133.596 121.956 132.863 124.907 131.397 127.363C129.931 129.819 127.926 131.693 125.382 132.985C122.838 134.278 119.971 134.924 116.78 134.924ZM116.78 127.686C119.281 127.686 121.351 126.889 122.989 125.295C124.627 123.657 125.447 121.331 125.447 118.315V117.669C125.447 114.653 124.627 112.348 122.989 110.753C121.394 109.116 119.324 108.297 116.78 108.297C114.28 108.297 112.21 109.116 110.572 110.753C108.933 112.348 108.114 114.653 108.114 117.669V118.315C108.114 121.331 108.933 123.657 110.572 125.295C112.21 126.889 114.28 127.686 116.78 127.686Z" fill="white"/>
<path d="M138.534 134.019V101.964H146.554V106.165H147.718C148.235 105.045 149.205 103.989 150.628 102.998C152.051 101.964 154.207 101.447 157.095 101.447C159.596 101.447 161.774 102.029 163.628 103.192C165.525 104.312 166.991 105.885 168.025 107.91C169.06 109.892 169.578 112.218 169.578 114.89V134.019H161.429V115.536C161.429 113.123 160.825 111.313 159.618 110.107C158.454 108.901 156.772 108.297 154.573 108.297C152.072 108.297 150.132 109.138 148.753 110.818C147.373 112.455 146.683 114.76 146.683 117.733V134.019H138.534Z" fill="white"/>
<path d="M34.2242 134.019V103.651H41.9443V134.019H34.2242ZM38.0843 100.1C36.6955 100.1 35.5109 99.6508 34.5306 98.7528C33.5911 97.8548 33.1214 96.6711 33.1214 95.2017C33.1214 93.7322 33.5911 92.5485 34.5306 91.6505C35.5109 90.7525 36.6955 90.3035 38.0843 90.3035C39.5139 90.3035 40.6985 90.7525 41.638 91.6505C42.5774 92.5485 43.0472 93.7322 43.0472 95.2017C43.0472 96.6711 42.5774 97.8548 41.638 98.7528C40.6985 99.6508 39.5139 100.1 38.0843 100.1Z" fill="white"/>
<path d="M175.728 134.019V88.7798H194.355C197.2 88.7798 199.701 89.3614 201.857 90.5247C204.056 91.645 205.759 93.2391 206.966 95.3072C208.216 97.3753 208.842 99.8312 208.842 102.675V103.58C208.842 106.38 208.195 108.836 206.901 110.947C205.651 113.015 203.926 114.631 201.728 115.794C199.572 116.915 197.114 117.475 194.355 117.475H184.265V134.019H175.728ZM184.265 109.719H193.514C195.54 109.719 197.179 109.159 198.429 108.039C199.679 106.919 200.305 105.389 200.305 103.45V102.804C200.305 100.865 199.679 99.3357 198.429 98.2155C197.179 97.0953 195.54 96.5352 193.514 96.5352H184.265V109.719Z" fill="white"/>
<path d="M222.519 134.925C220.234 134.925 218.186 134.537 216.375 133.761C214.564 132.943 213.12 131.779 212.042 130.271C211.007 128.72 210.49 126.846 210.49 124.649C210.49 122.451 211.007 120.62 212.042 119.155C213.12 117.647 214.586 116.527 216.44 115.795C218.337 115.019 220.493 114.631 222.907 114.631H231.703V112.822C231.703 111.314 231.229 110.086 230.28 109.138C229.332 108.147 227.823 107.651 225.753 107.651C223.727 107.651 222.217 108.125 221.226 109.073C220.234 109.978 219.587 111.163 219.286 112.628L211.783 110.107C212.301 108.47 213.12 106.984 214.241 105.648C215.405 104.269 216.936 103.171 218.833 102.352C220.773 101.49 223.123 101.059 225.882 101.059C230.108 101.059 233.449 102.115 235.907 104.226C238.364 106.337 239.593 109.396 239.593 113.403V125.36C239.593 126.652 240.197 127.298 241.404 127.298H243.991V134.02H238.558C236.963 134.02 235.648 133.632 234.613 132.856C233.579 132.081 233.061 131.047 233.061 129.754V129.69H231.832C231.66 130.207 231.272 130.896 230.668 131.758C230.065 132.576 229.116 133.309 227.823 133.955C226.529 134.601 224.761 134.925 222.519 134.925ZM223.942 128.332C226.227 128.332 228.081 127.708 229.504 126.458C230.97 125.166 231.703 123.464 231.703 121.353V120.706H223.489C221.98 120.706 220.795 121.029 219.932 121.676C219.07 122.322 218.639 123.227 218.639 124.39C218.639 125.553 219.092 126.501 219.997 127.234C220.902 127.966 222.217 128.332 223.942 128.332Z" fill="white"/>
<path d="M252.707 146.945V139.836H270.169C271.377 139.836 271.98 139.19 271.98 137.897V129.819H270.816C270.471 130.551 269.932 131.284 269.199 132.016C268.466 132.749 267.475 133.352 266.224 133.826C264.974 134.3 263.379 134.537 261.438 134.537C258.938 134.537 256.739 133.977 254.842 132.856C252.988 131.693 251.543 130.099 250.508 128.074C249.474 126.049 248.956 123.722 248.956 121.094V101.964H257.105V120.448C257.105 122.861 257.687 124.67 258.851 125.877C260.059 127.083 261.762 127.686 263.961 127.686C266.461 127.686 268.402 126.868 269.781 125.23C271.161 123.55 271.851 121.223 271.851 118.25V101.964H280V139.707C280 141.904 279.353 143.649 278.06 144.942C276.766 146.278 275.042 146.945 272.886 146.945H252.707Z" fill="white"/>
<rect x="55.4673" y="160.532" width="169.202" height="35.4677" rx="4" fill="#32B141"/>
<path d="M79.9694 177.891C81.0417 178.23 81.8817 178.802 82.4893 179.606C83.097 180.391 83.4008 181.365 83.4008 182.526C83.4008 184.169 82.7574 185.437 81.4706 186.329C80.2018 187.205 78.3431 187.642 75.8947 187.642H66.1904V168.89H75.3586C77.6461 168.89 79.3975 169.328 80.6128 170.203C81.846 171.078 82.4625 172.266 82.4625 173.766C82.4625 174.677 82.2391 175.489 81.7923 176.204C81.3634 176.918 80.7558 177.48 79.9694 177.891ZM70.5064 172.158V176.579H74.8224C75.8947 176.579 76.7079 176.391 77.2619 176.016C77.8159 175.641 78.0929 175.087 78.0929 174.355C78.0929 173.623 77.8159 173.078 77.2619 172.721C76.7079 172.346 75.8947 172.158 74.8224 172.158H70.5064ZM75.573 184.374C76.7168 184.374 77.5746 184.186 78.1465 183.811C78.7363 183.436 79.0312 182.856 79.0312 182.07C79.0312 180.516 77.8785 179.74 75.573 179.74H70.5064V184.374H75.573Z" fill="white"/>
<path d="M96.3661 187.964C93.6854 187.964 91.5944 187.222 90.0932 185.74C88.6099 184.258 87.8682 182.142 87.8682 179.391V168.89H92.211V179.231C92.211 182.588 93.605 184.267 96.3929 184.267C97.7512 184.267 98.7877 183.865 99.5026 183.061C100.217 182.24 100.575 180.963 100.575 179.231V168.89H104.864V179.391C104.864 182.142 104.113 184.258 102.612 185.74C101.129 187.222 99.0469 187.964 96.3661 187.964Z" fill="white"/>
<path d="M116.662 187.964C115.178 187.964 113.74 187.767 112.346 187.374C110.97 186.963 109.861 186.437 109.022 185.794L110.496 182.526C111.3 183.115 112.256 183.588 113.364 183.945C114.472 184.303 115.58 184.481 116.688 184.481C117.922 184.481 118.833 184.303 119.423 183.945C120.013 183.57 120.307 183.079 120.307 182.472C120.307 182.026 120.129 181.659 119.771 181.374C119.432 181.07 118.985 180.829 118.431 180.65C117.895 180.472 117.162 180.275 116.233 180.061C114.803 179.722 113.632 179.382 112.721 179.043C111.81 178.704 111.023 178.159 110.362 177.409C109.719 176.659 109.397 175.659 109.397 174.409C109.397 173.319 109.692 172.337 110.281 171.462C110.871 170.569 111.756 169.864 112.935 169.346C114.133 168.828 115.589 168.569 117.305 168.569C118.502 168.569 119.673 168.712 120.817 168.997C121.961 169.283 122.961 169.694 123.819 170.23L122.479 173.525C120.745 172.542 119.012 172.051 117.278 172.051C116.063 172.051 115.16 172.248 114.571 172.641C113.999 173.034 113.713 173.551 113.713 174.194C113.713 174.837 114.043 175.319 114.705 175.641C115.384 175.945 116.411 176.248 117.788 176.552C119.217 176.891 120.388 177.23 121.299 177.57C122.211 177.909 122.988 178.445 123.632 179.177C124.293 179.909 124.623 180.9 124.623 182.151C124.623 183.222 124.32 184.204 123.712 185.097C123.122 185.972 122.229 186.669 121.031 187.187C119.834 187.705 118.377 187.964 116.662 187.964Z" fill="white"/>
<path d="M128.931 168.89H133.274V187.642H128.931V168.89Z" fill="white"/>
<path d="M156.278 168.89V187.642H152.713L143.357 176.257V187.642H139.068V168.89H142.66L151.989 180.275V168.89H156.278Z" fill="white"/>
<path d="M176.588 184.16V187.642H162.058V168.89H176.239V172.373H166.374V176.445H175.087V179.82H166.374V184.16H176.588Z" fill="white"/>
<path d="M187.549 187.964C186.066 187.964 184.627 187.767 183.233 187.374C181.857 186.963 180.749 186.437 179.909 185.794L181.384 182.526C182.188 183.115 183.144 183.588 184.252 183.945C185.36 184.303 186.468 184.481 187.576 184.481C188.809 184.481 189.721 184.303 190.311 183.945C190.9 183.57 191.195 183.079 191.195 182.472C191.195 182.026 191.016 181.659 190.659 181.374C190.32 181.07 189.873 180.829 189.319 180.65C188.783 180.472 188.05 180.275 187.12 180.061C185.691 179.722 184.52 179.382 183.609 179.043C182.697 178.704 181.911 178.159 181.25 177.409C180.606 176.659 180.285 175.659 180.285 174.409C180.285 173.319 180.579 172.337 181.169 171.462C181.759 170.569 182.644 169.864 183.823 169.346C185.021 168.828 186.477 168.569 188.193 168.569C189.39 168.569 190.561 168.712 191.705 168.997C192.848 169.283 193.849 169.694 194.707 170.23L193.367 173.525C191.633 172.542 189.9 172.051 188.166 172.051C186.951 172.051 186.048 172.248 185.458 172.641C184.887 173.034 184.601 173.551 184.601 174.194C184.601 174.837 184.931 175.319 185.592 175.641C186.272 175.945 187.299 176.248 188.675 176.552C190.105 176.891 191.276 177.23 192.187 177.57C193.099 177.909 193.876 178.445 194.519 179.177C195.181 179.909 195.511 180.9 195.511 182.151C195.511 183.222 195.207 184.204 194.6 185.097C194.01 185.972 193.116 186.669 191.919 187.187C190.722 187.705 189.265 187.964 187.549 187.964Z" fill="white"/>
<path d="M205.985 187.964C204.501 187.964 203.063 187.767 201.669 187.374C200.293 186.963 199.185 186.437 198.345 185.794L199.819 182.526C200.623 183.115 201.579 183.588 202.687 183.945C203.795 184.303 204.903 184.481 206.012 184.481C207.245 184.481 208.156 184.303 208.746 183.945C209.336 183.57 209.631 183.079 209.631 182.472C209.631 182.026 209.452 181.659 209.094 181.374C208.755 181.07 208.308 180.829 207.754 180.65C207.218 180.472 206.485 180.275 205.556 180.061C204.126 179.722 202.955 179.382 202.044 179.043C201.133 178.704 200.346 178.159 199.685 177.409C199.042 176.659 198.72 175.659 198.72 174.409C198.72 173.319 199.015 172.337 199.605 171.462C200.194 170.569 201.079 169.864 202.258 169.346C203.456 168.828 204.912 168.569 206.628 168.569C207.826 168.569 208.996 168.712 210.14 168.997C211.284 169.283 212.284 169.694 213.142 170.23L211.802 173.525C210.068 172.542 208.335 172.051 206.601 172.051C205.386 172.051 204.484 172.248 203.894 172.641C203.322 173.034 203.036 173.551 203.036 174.194C203.036 174.837 203.367 175.319 204.028 175.641C204.707 175.945 205.735 176.248 207.111 176.552C208.54 176.891 209.711 177.23 210.622 177.57C211.534 177.909 212.311 178.445 212.955 179.177C213.616 179.909 213.947 180.9 213.947 182.151C213.947 183.222 213.643 184.204 213.035 185.097C212.445 185.972 211.552 186.669 210.354 187.187C209.157 187.705 207.7 187.964 205.985 187.964Z" fill="white"/>
</svg>
