<svg width="179" height="32" viewBox="0 0 179 32" fill="none" xmlns="http://www.w3.org/2000/svg">
<path fill-rule="evenodd" clip-rule="evenodd" d="M29.719 7.75924C29.06 6.66409 28.2582 5.63084 27.3137 4.68629C21.0653 -1.5621 10.9347 -1.5621 4.68629 4.68629C-1.5621 10.9347 -1.5621 21.0653 4.68629 27.3137C10.9347 33.5621 21.0653 33.5621 27.3137 27.3137C28.2581 26.3693 29.0598 25.3362 29.7187 24.2412C29.6681 24.2421 29.6173 24.2425 29.5665 24.2425H23.7483C19.1962 24.2425 15.5059 20.5523 15.5059 16.0002C15.5059 11.4481 19.1962 7.75786 23.7483 7.75786H29.5665C29.6174 7.75786 29.6683 7.75832 29.719 7.75924Z" fill="#FFC007"/>
<path fill-rule="evenodd" clip-rule="evenodd" d="M23.7483 10.668C20.8028 10.668 18.415 13.0557 18.415 16.0012C18.415 18.9467 20.8028 21.3345 23.7483 21.3345H29.5665C32.5119 21.3345 34.8997 18.9467 34.8997 16.0012C34.8997 13.0557 32.5119 10.668 29.5665 10.668H23.7483ZM29.5785 13.1458C28.0029 13.1458 26.7255 14.4256 26.7255 16.0012C26.7255 17.5768 28.0029 18.8566 29.5785 18.8566C31.1541 18.8566 32.4314 17.5768 32.4314 16.0012C32.4314 14.4256 31.1541 13.1458 29.5785 13.1458Z" fill="#32B141"/>
<path d="M45.252 25.8543V4.35938H49.3053V22.1694H59.1315V25.8543H45.252Z" fill="white"/>
<path d="M68.3025 25.8543V10.6236H72.1101V12.2818H72.6629C72.929 11.77 73.3691 11.3299 73.9833 10.9614C74.5974 10.5724 75.406 10.3779 76.4091 10.3779C77.4941 10.3779 78.3641 10.5929 79.0192 11.0228C79.6743 11.4322 80.1758 11.9747 80.5238 12.6503H81.0766C81.4246 11.9952 81.9159 11.4527 82.5505 11.0228C83.1851 10.5929 84.0859 10.3779 85.2527 10.3779C86.1944 10.3779 87.044 10.5827 87.8014 10.9921C88.5793 11.381 89.1935 11.9849 89.6438 12.8038C90.1147 13.6022 90.3501 14.6155 90.3501 15.8438V25.8543H86.481V16.1202C86.481 15.2808 86.2661 14.6565 85.8362 14.247C85.4063 13.8171 84.8024 13.6022 84.0244 13.6022C83.1442 13.6022 82.4584 13.8888 81.9671 14.462C81.4962 15.0147 81.2608 15.8131 81.2608 16.8571V25.8543H77.3917V16.1202C77.3917 15.2808 77.1768 14.6565 76.7469 14.247C76.317 13.8171 75.7131 13.6022 74.9352 13.6022C74.0549 13.6022 73.3691 13.8888 72.8778 14.462C72.407 15.0147 72.1715 15.8131 72.1715 16.8571V25.8543H68.3025Z" fill="white"/>
<path d="M100.699 26.2842C99.1838 26.2842 97.8224 25.9771 96.6146 25.363C95.4068 24.7488 94.4549 23.8583 93.7589 22.6915C93.0628 21.5246 92.7148 20.1223 92.7148 18.4846V17.9933C92.7148 16.3556 93.0628 14.9533 93.7589 13.7864C94.4549 12.6196 95.4068 11.7291 96.6146 11.1149C97.8224 10.5008 99.1838 10.1937 100.699 10.1937C102.214 10.1937 103.575 10.5008 104.783 11.1149C105.99 11.7291 106.942 12.6196 107.638 13.7864C108.334 14.9533 108.682 16.3556 108.682 17.9933V18.4846C108.682 20.1223 108.334 21.5246 107.638 22.6915C106.942 23.8583 105.99 24.7488 104.783 25.363C103.575 25.9771 102.214 26.2842 100.699 26.2842ZM100.699 22.845C101.886 22.845 102.869 22.4663 103.647 21.7088C104.424 20.9309 104.813 19.8255 104.813 18.3925V18.0854C104.813 16.6524 104.424 15.5572 103.647 14.7998C102.889 14.0218 101.906 13.6329 100.699 13.6329C99.5113 13.6329 98.5287 14.0218 97.7508 14.7998C96.9729 15.5572 96.5839 16.6524 96.5839 18.0854V18.3925C96.5839 19.8255 96.9729 20.9309 97.7508 21.7088C98.5287 22.4663 99.5113 22.845 100.699 22.845Z" fill="white"/>
<path d="M111.027 25.8543V10.6236H114.835V12.6196H115.388C115.633 12.0873 116.094 11.5858 116.769 11.1149C117.445 10.6236 118.469 10.3779 119.84 10.3779C121.027 10.3779 122.061 10.6543 122.942 11.207C123.842 11.7393 124.538 12.4865 125.03 13.4486C125.521 14.3903 125.767 15.4958 125.767 16.765V25.8543H121.897V17.0721C121.897 15.9257 121.611 15.0659 121.038 14.4927C120.485 13.9195 119.687 13.6329 118.643 13.6329C117.455 13.6329 116.534 14.0321 115.879 14.8305C115.224 15.6084 114.896 16.7036 114.896 18.1161V25.8543H111.027Z" fill="white"/>
<path d="M61.5015 25.8543V11.4252H65.1669V25.8543H61.5015ZM63.3342 9.73791C62.6748 9.73791 62.1124 9.52457 61.6469 9.09791C61.2008 8.67124 60.9778 8.10881 60.9778 7.41063C60.9778 6.71245 61.2008 6.15003 61.6469 5.72336C62.1124 5.29669 62.6748 5.08336 63.3342 5.08336C64.013 5.08336 64.5754 5.29669 65.0215 5.72336C65.4675 6.15003 65.6905 6.71245 65.6905 7.41063C65.6905 8.10881 65.4675 8.67124 65.0215 9.09791C64.5754 9.52457 64.013 9.73791 63.3342 9.73791Z" fill="white"/>
<path d="M128.687 25.8543V4.35938H137.531C138.882 4.35938 140.07 4.63574 141.093 5.18846C142.137 5.72072 142.946 6.47816 143.519 7.46078C144.113 8.44341 144.409 9.61027 144.409 10.9614V11.3913C144.409 12.7219 144.102 13.8888 143.488 14.8919C142.895 15.8745 142.076 16.6422 141.032 17.1949C140.008 17.7272 138.841 17.9933 137.531 17.9933H132.741V25.8543H128.687ZM132.741 14.3084H137.132C138.094 14.3084 138.872 14.0423 139.466 13.5101C140.059 12.9778 140.356 12.2511 140.356 11.3299V11.0228C140.356 10.1016 140.059 9.37485 139.466 8.8426C138.872 8.31034 138.094 8.04421 137.132 8.04421H132.741V14.3084Z" fill="white"/>
<path d="M150.904 26.2843C149.819 26.2843 148.846 26.1 147.986 25.7316C147.127 25.3426 146.441 24.7899 145.929 24.0734C145.438 23.3364 145.192 22.4459 145.192 21.4019C145.192 20.3578 145.438 19.4878 145.929 18.7918C146.441 18.0753 147.137 17.543 148.017 17.195C148.918 16.8265 149.941 16.6423 151.088 16.6423H155.264V15.7825C155.264 15.066 155.039 14.4826 154.588 14.0322C154.138 13.5614 153.422 13.3259 152.439 13.3259C151.477 13.3259 150.76 13.5511 150.289 14.0015C149.819 14.4314 149.511 14.9944 149.368 15.6904L145.806 14.4928C146.052 13.7149 146.441 13.0086 146.973 12.374C147.526 11.7189 148.253 11.1969 149.153 10.808C150.074 10.3985 151.19 10.1938 152.5 10.1938C154.507 10.1938 156.093 10.6954 157.26 11.6985C158.427 12.7016 159.01 14.155 159.01 16.0589V21.7397C159.01 22.3538 159.297 22.6609 159.87 22.6609H161.098V25.8544H158.519C157.761 25.8544 157.137 25.6701 156.646 25.3017C156.154 24.9332 155.909 24.4419 155.909 23.8277V23.797H155.325C155.243 24.0427 155.059 24.3702 154.773 24.7796C154.486 25.1686 154.036 25.5166 153.421 25.8237C152.807 26.1308 151.968 26.2843 150.904 26.2843ZM151.579 23.1522C152.664 23.1522 153.544 22.8553 154.22 22.2617C154.916 21.6475 155.264 20.8389 155.264 19.8358V19.5288H151.364C150.648 19.5288 150.085 19.6823 149.675 19.9894C149.266 20.2964 149.061 20.7263 149.061 21.2791C149.061 21.8318 149.276 22.2821 149.706 22.6302C150.136 22.9782 150.76 23.1522 151.579 23.1522Z" fill="white"/>
<path d="M165.237 31.9958V28.618H173.528C174.101 28.618 174.387 28.311 174.387 27.6968V23.8584H173.835C173.671 24.2065 173.415 24.5545 173.067 24.9025C172.719 25.2505 172.248 25.5371 171.654 25.7623C171.061 25.9875 170.303 26.1 169.382 26.1C168.195 26.1 167.151 25.8339 166.25 25.3017C165.37 24.7489 164.684 23.9915 164.193 23.0293C163.701 22.0672 163.456 20.9617 163.456 19.713V10.6237H167.325V19.4059C167.325 20.5523 167.601 21.4121 168.154 21.9853C168.727 22.5585 169.536 22.8451 170.58 22.8451C171.767 22.8451 172.688 22.4562 173.343 21.6782C173.998 20.8799 174.326 19.7744 174.326 18.3619V10.6237H178.195V28.5566C178.195 29.6006 177.888 30.4297 177.274 31.0439C176.66 31.6785 175.841 31.9958 174.817 31.9958H165.237Z" fill="white"/>
</svg>
