<svg width="74" height="68" viewBox="0 0 74 68" fill="none" xmlns="http://www.w3.org/2000/svg">
<path fill-rule="evenodd" clip-rule="evenodd" d="M62.8413 16.3307C61.4534 14.0257 59.7648 11.8511 57.7754 9.8631C44.6152 -3.2877 23.2784 -3.2877 10.1182 9.8631C-3.042 23.0139 -3.042 44.3356 10.1182 57.4864C23.2784 70.6372 44.6152 70.6372 57.7754 57.4864C59.7645 55.4987 61.453 53.3243 62.8408 51.0197C62.7341 51.0216 62.6272 51.0226 62.5201 51.0226H50.266C40.6785 51.0226 32.9062 43.2559 32.9062 33.6752C32.9062 24.0944 40.6785 16.3277 50.266 16.3277H62.5201C62.6274 16.3277 62.7345 16.3287 62.8413 16.3307Z" fill="#FFC007"/>
<path fill-rule="evenodd" clip-rule="evenodd" d="M50.2659 22.4507C44.0623 22.4507 39.0332 27.4762 39.0332 33.6754C39.0332 39.8747 44.0623 44.9002 50.2659 44.9002H62.52C68.7237 44.9002 73.7528 39.8747 73.7528 33.6754C73.7528 27.4762 68.7237 22.4507 62.52 22.4507H50.2659ZM62.5453 27.6656C59.2268 27.6656 56.5365 30.3592 56.5365 33.6754C56.5365 36.9916 59.2268 39.6852 62.5453 39.6852C65.8639 39.6852 68.5541 36.9916 68.5541 33.6754C68.5541 30.3592 65.8639 27.6656 62.5453 27.6656Z" fill="#32B141"/>
</svg>
