<svg width="18" height="18" viewBox="0 0 18 18" fill="none" xmlns="http://www.w3.org/2000/svg">
<path d="M12.4522 4.48877L3.00323 13.961L2.43066 15.3471L3.81678 14.7745L13.289 5.32558L12.4522 4.48877Z" stroke="#A5AAB4" stroke-width="1.5" stroke-linecap="round" stroke-linejoin="round"/>
<path d="M14.343 2.59859L13.9336 3.00762L14.7704 3.84443L15.1798 3.43505C15.2872 3.32756 15.3475 3.18181 15.3475 3.02984C15.3475 2.87788 15.2872 2.73213 15.1798 2.62463L15.1537 2.59859C15.1005 2.54535 15.0373 2.50312 14.9677 2.47431C14.8982 2.44549 14.8236 2.43066 14.7484 2.43066C14.6731 2.43066 14.5985 2.44549 14.529 2.47431C14.4594 2.50312 14.3962 2.54535 14.343 2.59859Z" stroke="#A5AAB4" stroke-width="1.5" stroke-linecap="round" stroke-linejoin="round"/>
</svg>
