<svg width="24" height="24" viewBox="0 0 24 24" fill="none" xmlns="http://www.w3.org/2000/svg">
<g clip-path="url(#clip0_610_32782)">
<path d="M29.6854 24H-5.68285C-6.03163 24 -6.31445 23.7172 -6.31445 23.3684V0.631607C-6.31445 0.282821 -6.03163 0 -5.68285 0H29.6855C30.0343 0 30.3171 0.282821 30.3171 0.631607V23.3684C30.317 23.7173 30.0342 24 29.6854 24Z" fill="#FF4B55"/>
<path d="M18.9483 9.47452H14.5272V5.05348C14.5272 4.7047 14.2444 4.42188 13.8956 4.42188H10.1061C9.75734 4.42188 9.47452 4.7047 9.47452 5.05348V9.47452H5.05348C4.7047 9.47452 4.42188 9.75734 4.42188 10.1061V13.8956C4.42188 14.2444 4.7047 14.5272 5.05348 14.5272H9.47452V18.9483C9.47452 19.2971 9.75734 19.5799 10.1061 19.5799H13.8956C14.2444 19.5799 14.5272 19.2971 14.5272 18.9483V14.5271H18.9483C19.2971 14.5271 19.5799 14.2443 19.5799 13.8955V10.106C19.5799 9.75727 19.2971 9.47452 18.9483 9.47452Z" fill="white"/>
</g>
<defs>
<clipPath id="clip0_610_32782">
<rect width="24" height="24" rx="12" fill="white"/>
</clipPath>
</defs>
</svg>
