<svg width="162" height="162" viewBox="0 0 162 162" fill="none" xmlns="http://www.w3.org/2000/svg">
<path d="M49.4497 17.2168C48.1717 17.2168 46.9261 17.6668 46.0459 18.5452C45.1639 19.42 44.7139 20.6746 44.7139 21.949V140.123C44.7139 141.397 45.1639 142.643 46.0459 143.525C46.9261 144.407 48.1717 144.857 49.4497 144.857H112.666C113.94 144.857 115.196 144.407 116.068 143.525C116.951 142.643 117.4 141.397 117.4 140.123V21.949C117.4 20.6746 116.95 19.42 116.068 18.5452C115.196 17.665 113.94 17.2168 112.666 17.2168H102.906C102.137 17.2168 101.453 17.6758 101.164 18.3868L99.7093 21.949C99.2395 23.1136 98.8669 23.6842 98.2729 24.0694C97.6933 24.4636 96.6619 24.7912 94.6369 24.7912H67.4749C65.4517 24.7912 64.4203 24.4618 63.8389 24.0694C63.2485 23.686 62.8723 23.1154 62.4043 21.949L60.9517 18.3868C60.6673 17.683 59.9833 17.2168 59.2255 17.2168H49.4497Z" fill="#E3F2F2"/>
<path d="M49.1654 13.1762H112.947C117.551 13.1762 121.185 16.8302 121.185 21.4256V140.647C121.185 145.24 117.549 148.898 112.947 148.898H49.1654C44.5646 148.898 40.925 145.24 40.925 140.647V21.4256C40.9268 16.832 44.5646 13.1762 49.1654 13.1762V13.1762ZM49.1654 9.44482C42.5594 9.44482 37.1846 14.8196 37.1846 21.4256V140.647C37.1846 147.256 42.5594 152.628 49.1654 152.628H112.947C119.556 152.628 124.936 147.256 124.936 140.647V21.4256C124.936 14.8196 119.556 9.44482 112.947 9.44482H49.1654Z" fill="#32B141"/>
<path d="M75.0242 17.2173C73.982 17.2173 73.1504 18.0489 73.1504 19.0911C73.1504 20.1315 73.982 20.9667 75.0242 20.9667H88.0364C89.0678 20.9667 89.912 20.1315 89.912 19.0911C89.912 18.0489 89.0678 17.2173 88.0364 17.2173H75.0242Z" fill="#A5AAB4"/>
</svg>
