<svg width="582" height="288" viewBox="0 0 582 288" fill="none" xmlns="http://www.w3.org/2000/svg">
<path fill-rule="evenodd" clip-rule="evenodd" d="M723.017 55.6914C706.992 29.0592 687.495 3.93221 664.525 -19.0375C512.575 -170.988 266.215 -170.988 114.265 -19.0375C-37.6848 132.913 -37.6848 379.272 114.265 531.222C266.215 683.172 512.575 683.172 664.525 531.222C687.492 508.256 706.987 483.132 723.011 456.503C721.78 456.526 720.545 456.537 719.308 456.537H577.82C467.121 456.537 377.381 366.797 377.381 256.097C377.381 145.398 467.121 55.6577 577.82 55.6577H719.308C720.547 55.6577 721.784 55.669 723.017 55.6914Z" fill="#2B2B30"/>
<path fill-rule="evenodd" clip-rule="evenodd" d="M577.817 126.402C506.188 126.402 448.121 184.469 448.121 256.098C448.121 327.727 506.188 385.793 577.817 385.793H719.305C790.934 385.793 849 327.727 849 256.098C849 184.469 790.934 126.402 719.305 126.402H577.817ZM719.597 186.658C681.28 186.658 650.218 217.781 650.218 256.098C650.218 294.414 681.28 325.537 719.597 325.537C757.914 325.537 788.976 294.414 788.976 256.098C788.976 217.781 757.914 186.658 719.597 186.658Z" fill="#2B2B30"/>
</svg>
