<svg width="203" height="40" viewBox="0 0 203 40" fill="none" xmlns="http://www.w3.org/2000/svg">
<path d="M25.1907 9.58222C15.0338 7.14376 7.9358 12.9384 3.56979 6.42271C3.55672 6.39646 3.54365 6.38335 3.53058 6.35714C3.41294 6.17361 3.56979 5.9114 3.77893 5.96383C12.7724 8.11387 14.2365 6.77666 18.0143 7.23551C21.5044 7.65503 25.1907 9.58222 25.1907 9.58222Z" fill="#11100F"/>
<path d="M26.9826 11.2171C18.0413 9.893 11.7014 16.5922 6.91707 11.44C6.904 11.4269 6.89093 11.4007 6.86479 11.3876C6.73408 11.2434 6.82557 10.9812 7.02164 10.9943C15.1916 11.5973 17.1132 10.1552 20.4728 10.011C23.6099 9.8799 26.9826 11.2171 26.9826 11.2171Z" fill="#11100F"/>
<path d="M28.6435 13.3305C20.8394 12.2686 17.4932 19.2956 11.1664 14.9955C11.1533 14.9824 11.1402 14.9693 11.1141 14.9431C10.9834 14.8251 11.0226 14.4842 11.2056 14.4842C18.1206 14.4973 19.9245 12.8848 22.8397 12.5308C26.7875 12.0588 28.6435 13.3305 28.6435 13.3305Z" fill="#11100F"/>
<path d="M32.1594 15.6503C28.081 16.0829 28.7217 19.3604 24.2511 18.6263C23.6629 18.5345 23.7936 18.115 24.055 18.0363C27.8067 16.9613 27.8067 16.2402 29.1531 15.7027C30.4341 15.2177 32.1594 15.6503 32.1594 15.6503Z" fill="#11100F"/>
<path d="M30.3163 14.6401C24.434 14.7581 22.9308 18.9926 17.9765 17.6161C17.2183 17.4063 17.4798 16.8295 17.885 16.7771C23.5583 15.8725 23.8326 15.0334 25.9372 14.5352C27.911 14.0633 30.3163 14.6401 30.3163 14.6401Z" fill="#11100F"/>
<path d="M26.9563 9.56648C26.917 9.63202 26.8256 9.64513 26.7603 9.61891C25.5446 8.92408 24.4075 8.11124 23.1004 7.21977C21.8715 6.39383 19.2309 5.26636 13.7407 5.52857C11.1263 5.65967 7.1525 6.19719 3.04791 3.37853C2.05444 2.70991 1.0479 1.56933 0.525021 0.507437C0.472736 0.415654 0.446595 0.297657 0.433524 0.17966C0.420453 0.0616639 0.551162 -0.0300831 0.668837 0.00923711C10.8257 4.09958 13.7277 2.50016 20.1198 3.98158C22.7472 4.59778 26.0021 8.42591 26.9435 9.38292C26.9956 9.42227 26.9956 9.50092 26.9563 9.56648Z" fill="#11100F"/>
<path d="M35.7923 31.9855C35.6745 32.3523 35.7005 32.7851 35.4655 33.0997C35.1777 33.5194 34.472 33.5586 34.132 33.1783C33.9099 32.9819 33.9099 32.6672 33.8313 32.418C33.3217 30.1762 32.8249 27.9342 32.3281 25.6792C32.276 25.5221 32.3281 25.4171 32.4849 25.3517C32.7335 25.286 32.7596 25.5614 32.8378 25.7189C33.3999 27.2528 33.9227 28.7995 34.4981 30.3334C34.6809 30.858 35.2956 30.6873 35.7005 30.8187C36.132 31.0937 35.8705 31.6051 35.7923 31.9855Z" fill="#11100F"/>
<path d="M36.4603 25.7987C36.5128 25.943 36.4343 26.1134 36.2775 26.1394C36.1861 26.1527 36.1075 26.1394 36.0814 26.0084C35.7021 25.248 35.3754 24.4484 34.9832 23.6881C34.4736 23.2552 33.9376 22.8096 33.624 22.1934C33.0619 21.1971 33.114 19.8992 33.7415 18.9421C33.7936 18.8766 33.8329 18.7979 33.8854 18.7324C33.9768 18.6013 34.1729 18.6275 34.225 18.7848C34.2643 18.9028 34.2904 19.0208 34.3429 19.1257C35.0486 21.3413 35.7286 23.5831 36.4603 25.7987Z" fill="#11100F"/>
<path d="M36.564 15.2437C36.5379 15.8337 36.3158 16.3843 36.1719 16.948C36.1587 16.9874 36.1458 17.0136 36.1065 17.0267C36.0151 17.066 35.9237 17.0005 35.9237 16.9087C35.9365 16.1352 36.2112 15.3748 36.0151 14.6144C35.7276 13.5787 35.0216 12.6742 34.9694 11.5729C34.943 10.9961 35.0869 10.4323 35.2048 9.8686C34.7862 8.99024 34.5901 7.98073 34.8123 7.02372C34.8516 6.90573 34.8648 6.90573 34.9301 6.99751C35.3355 7.58746 35.8712 8.1774 35.8712 8.95088C35.819 10.0521 35.2176 11.1534 35.623 12.2546C35.9497 13.2379 36.6554 14.1556 36.564 15.2437Z" fill="#11100F"/>
<path d="M40.0141 11.4399C39.988 12.882 38.7331 14.0356 38.877 15.504C38.877 16.0677 39.0206 16.6446 38.9552 17.2083C38.8638 17.7065 38.3017 17.7851 37.8967 17.9031C37.6613 18.008 37.3999 17.7327 37.4653 17.4967C37.4653 15.7924 37.4653 14.075 37.4653 12.3707C37.4913 11.6627 37.6613 10.9154 38.1449 10.378C38.4456 10.024 38.7592 9.67001 39.0859 9.31602C39.1513 9.23735 39.1906 9.1456 39.1777 9.05382C39.1513 8.73919 39.0859 8.46387 39.2299 8.09678C39.452 7.63793 39.7398 7.36262 40.0402 7.06109C40.0927 7.00867 40.1709 7.03488 40.1841 7.10041C40.3934 8.03124 40.1841 9.04071 39.7527 9.87976C39.8573 10.378 40.0141 10.9023 40.0141 11.4399Z" fill="#11100F"/>
<path d="M56.5249 6.16902C54.7471 6.66719 53.9236 7.27028 53.2179 7.83401C53.2179 7.83401 54.8257 7.27028 57.1392 7.02118C63.7015 6.30013 64.0804 8.75169 71.427 5.90682C71.6752 5.8675 71.7405 6.06413 71.6752 6.16902C70.6948 7.87333 69.6099 9.76116 65.5054 9.93159C61.0348 10.1152 58.7081 8.31906 54.5118 8.85658C51.8322 9.19743 50.4465 10.0365 49.6751 10.5478C58.8256 8.79102 58.0674 12.8289 67.0346 10.6789C67.1392 10.6526 67.2571 10.6264 67.3617 10.6395C67.5967 10.6658 67.6885 10.9542 67.5446 11.1115C67.4792 11.1902 67.3878 11.2688 67.3224 11.3475C66.146 12.6191 64.9039 14.0088 60.7209 13.6942C55.806 13.3271 55.4924 10.2725 46.1067 12.606C55.2046 12.5667 55.0478 15.5558 61.8976 14.6643C62.133 14.6381 62.2765 14.9265 62.0937 15.0839C61.989 15.1756 61.8712 15.2543 61.7797 15.333C60.7473 16.1458 59.2438 17.1421 56.4203 16.5653C50.5379 15.333 51.2833 12.8945 43.7146 14.2317C49.6098 14.389 49.2048 16.6833 55.2571 17.247C55.2571 17.247 55.2571 17.247 55.2699 17.247C55.5967 17.2863 55.6885 17.719 55.4139 17.9025C55.2046 18.0467 54.9692 18.1516 54.7471 18.2434C50.329 19.9608 48.2766 14.4021 42.8517 15.6476C46.7341 15.9884 46.4202 17.2995 49.9237 18.2565C50.3026 18.3614 50.2637 18.8727 49.8451 18.912C45.6884 19.3315 46.0545 16.526 43.5053 16.4211C42.8257 16.3949 42.1982 16.762 41.8582 17.365C40.8518 19.1217 41.2568 20.7867 41.1914 21.6913C41.4268 22.6352 41.78 23.5531 41.7929 24.5491C41.8061 25.2441 41.7407 25.9652 41.5182 26.6337C41.1 28.0233 40.6818 29.4133 40.2504 30.8161C40.159 31.1043 40.1718 31.4189 40.2765 31.6943C40.4332 32.1139 40.5904 32.5203 40.6557 32.966C40.8125 33.7132 40.7079 34.4867 40.4465 35.2078C39.8975 36.5581 39.3483 37.9084 38.7994 39.2719C38.6947 39.5208 38.6165 39.7833 38.4333 39.993C38.159 40.0455 38.1851 39.6915 38.2112 39.5208C38.7472 34.4735 39.2569 29.4261 39.7797 24.3788L40.1983 23.1728C39.3747 23.8806 39.0086 24.8641 38.4726 25.7423C38.4072 25.952 38.0937 25.9916 38.0283 25.7555C38.0805 24.877 38.198 23.9988 38.2244 23.1203C38.3026 22.2288 38.2897 21.3242 38.5904 20.4721C38.9301 19.6068 39.5836 18.912 40.0936 18.1647C40.93 17.0897 41.5575 15.8704 41.9889 14.5857C42.2503 13.7991 42.7996 13.1042 43.5053 12.6716C45.9499 11.1246 47.3745 9.78738 49.6883 8.03064C51.819 6.41809 53.4661 5.15955 54.4075 4.77935C58.7081 3.00947 67.3485 4.91045 74.7472 0.0859549C74.9301 -0.0189348 75.1654 0.190809 75.0219 0.492371C74.329 2.2491 73.5055 3.37657 71.5445 4.34672C65.8975 7.13917 59.4137 5.35619 56.5249 6.16902Z" fill="#11100F"/>
<path d="M39.3741 9.19864C39.3741 9.19864 38.8902 8.34649 37.7138 8.2416C36.8249 8.16296 36.4199 8.46449 36.4199 8.46449C36.4199 8.46449 37.4917 8.14985 38.3284 8.89712C39.1648 9.64438 38.7074 10.2868 38.7074 10.2868C38.7074 10.2868 39.6223 9.74927 39.3741 9.19864Z" fill="#11100F"/>
<path d="M39.3214 9.08099C39.3214 9.08099 38.7071 8.42551 37.4521 8.37305C37.4521 8.37305 38.1971 8.55661 38.2889 8.96299C38.4457 9.73651 37.7661 10.7722 37.6354 11.2704C37.5307 11.7161 39.3214 9.08099 39.3214 9.08099Z" fill="#11100F"/>
<path d="M149.728 26.4689C148.026 26.7507 146.304 26.8814 144.58 26.8596C141.347 26.8596 137.88 24.7229 137.88 18.7568V15.265C137.88 8.93906 141.514 7.13987 144.809 7.13987C146.456 7.12512 148.101 7.24697 149.728 7.50414C149.957 7.53078 150.169 7.63299 150.169 7.89509V9.1967C150.169 9.37883 150.067 9.4588 149.833 9.4588H149.732C148.206 9.32998 147.015 9.27666 144.814 9.27666C142.41 9.27666 140.235 10.5783 140.235 15.265V18.7568C140.235 23.0569 142.176 24.7497 144.584 24.7497C146.159 24.7497 147.231 24.6476 147.84 24.594V17.1442C147.834 17.0784 147.842 17.0122 147.863 16.9497C147.884 16.8872 147.917 16.8296 147.961 16.7805C148.005 16.7314 148.058 16.6918 148.118 16.6642C148.177 16.6367 148.242 16.6216 148.307 16.62H149.706C149.838 16.6269 149.964 16.6853 150.055 16.7829C150.146 16.8806 150.196 17.0101 150.195 17.1442V25.8957C150.199 26.0322 150.154 26.1654 150.068 26.2707C149.982 26.3761 149.861 26.4464 149.728 26.4689Z" fill="#B0ACAB"/>
<path d="M159.837 14.1733C158.632 14.1252 157.427 14.2131 156.242 14.4354V26.1589C156.248 26.286 156.206 26.4107 156.124 26.5071C156.042 26.6039 155.926 26.6653 155.801 26.6785H154.455C154.325 26.6717 154.203 26.6132 154.115 26.516C154.027 26.4185 153.982 26.2903 153.988 26.1589V13.498C153.995 13.3672 154.042 13.2417 154.121 13.1379C154.201 13.0342 154.31 12.9568 154.433 12.916C155.906 12.263 157.693 12.1875 159.837 12.1875C160.176 12.1875 160.384 12.2141 160.384 12.5784V13.7735C160.384 14.0444 160.331 14.1733 159.837 14.1733Z" fill="#B0ACAB"/>
<path d="M168.422 26.8589C164.62 26.8589 162.688 24.3315 162.688 20.502V18.5206C162.688 14.6913 164.628 12.168 168.422 12.168C172.215 12.168 174.156 14.6913 174.156 18.5206V20.502C174.156 24.3315 172.202 26.8589 168.422 26.8589ZM171.915 18.5206C171.915 15.8552 170.852 14.1715 168.422 14.1715C165.991 14.1715 164.955 15.8419 164.955 18.5206V20.502C164.955 23.1672 165.991 24.8554 168.422 24.8554C170.852 24.8554 171.915 23.1851 171.915 20.502V18.5206Z" fill="#B0ACAB"/>
<path d="M182.783 26.8584H182.536C180.772 26.8584 177.208 25.8677 177.208 20.7369V12.8694C177.202 12.8031 177.21 12.7364 177.232 12.6735C177.253 12.6106 177.287 12.5529 177.332 12.504C177.377 12.4551 177.431 12.4161 177.492 12.3896C177.553 12.363 177.618 12.3494 177.684 12.3496H179.03C179.095 12.3506 179.159 12.3651 179.218 12.3922C179.278 12.4193 179.331 12.4585 179.375 12.5072C179.419 12.556 179.452 12.6133 179.473 12.6756C179.495 12.7379 179.502 12.8038 179.497 12.8694V20.7369C179.497 23.8467 180.82 24.8549 182.549 24.8549H182.783C184.512 24.8549 185.835 23.8642 185.835 20.7369V12.8694C185.83 12.8042 185.838 12.7386 185.859 12.6766C185.879 12.6146 185.912 12.5575 185.956 12.5088C185.999 12.4601 186.052 12.4209 186.111 12.3935C186.17 12.3661 186.234 12.3512 186.299 12.3496H187.644C187.709 12.3506 187.774 12.3651 187.833 12.3922C187.893 12.4193 187.946 12.4585 187.99 12.5072C188.034 12.556 188.067 12.6133 188.088 12.6756C188.109 12.7379 188.117 12.8038 188.111 12.8694V20.7369C188.111 25.8677 184.539 26.8584 182.783 26.8584Z" fill="#B0ACAB"/>
<path d="M196.929 26.8594C195.914 26.8459 194.902 26.7509 193.903 26.5752V31.2886C193.903 31.3536 193.89 31.4175 193.866 31.4775C193.841 31.5372 193.805 31.5914 193.76 31.6375C193.714 31.6832 193.66 31.7197 193.601 31.7443C193.541 31.7689 193.477 31.7818 193.413 31.7818H192.09C192.027 31.7811 191.964 31.7679 191.906 31.7429C191.849 31.7175 191.796 31.6807 191.753 31.6347C191.709 31.5889 191.675 31.5343 191.653 31.475C191.63 31.4157 191.62 31.3522 191.622 31.2886V13.3591C191.622 13.0214 191.702 12.866 192.165 12.7638C193.724 12.3831 195.321 12.182 196.924 12.1641C200.779 12.1641 202.566 14.6873 202.566 18.5967V20.467C202.57 24.5674 200.704 26.8594 196.929 26.8594ZM200.29 18.6011C200.29 15.8646 199.491 14.0965 196.929 14.0965C195.915 14.1024 194.903 14.1886 193.903 14.3542V24.6695C194.903 24.8349 195.915 24.9227 196.929 24.9316C199.465 24.9316 200.29 23.2656 200.29 20.4892V18.6011Z" fill="#B0ACAB"/>
<path d="M104.705 26.6485C103.54 26.8306 100.294 27.0617 99.1689 27.0617C94.1758 27.0617 90.7881 25.8 90.7881 19.483V7.96825C90.7892 7.90154 90.8034 7.83575 90.8302 7.77468C90.857 7.71365 90.8952 7.65854 90.9434 7.61262C90.9913 7.56672 91.0481 7.5309 91.1099 7.5073C91.172 7.48369 91.2381 7.47276 91.3041 7.47512H95.5212C95.5872 7.47215 95.6537 7.48266 95.7158 7.50605C95.7779 7.52944 95.8351 7.56519 95.8833 7.61122C95.9311 7.65726 95.9697 7.71261 95.9961 7.77393C96.0226 7.83529 96.0365 7.90136 96.0372 7.96825V19.483C96.0372 21.8286 96.8136 22.5927 98.6529 22.5927C99.4832 22.59 100.312 22.5366 101.136 22.4328V7.96825C101.137 7.90136 101.151 7.83529 101.177 7.77393C101.203 7.71261 101.242 7.65726 101.29 7.61122C101.338 7.56519 101.395 7.52944 101.457 7.50605C101.52 7.48266 101.586 7.47215 101.652 7.47512H105.843C105.979 7.46905 106.113 7.5174 106.214 7.60965C106.316 7.70193 106.377 7.83075 106.385 7.96825V24.6407C106.385 26.0978 105.944 26.4664 104.705 26.6485Z" fill="#11100F"/>
<path d="M114.506 26.8306H110.262C110.127 26.8274 109.998 26.7706 109.903 26.6724C109.808 26.5746 109.755 26.4431 109.755 26.3067V7.96823C109.756 7.9023 109.77 7.83723 109.796 7.77677C109.822 7.71631 109.86 7.66163 109.907 7.61585C109.955 7.57006 110.01 7.53406 110.071 7.50992C110.132 7.48578 110.197 7.47392 110.262 7.4751H114.506C114.572 7.47214 114.638 7.48264 114.7 7.50603C114.763 7.52942 114.82 7.56517 114.868 7.6112C114.916 7.65724 114.954 7.71259 114.981 7.77391C115.007 7.83527 115.021 7.90134 115.022 7.96823V26.3067C115.022 26.3753 115.009 26.4431 114.984 26.5067C114.958 26.5703 114.92 26.6281 114.872 26.6771C114.824 26.7256 114.767 26.7642 114.704 26.7906C114.641 26.8171 114.574 26.8306 114.506 26.8306Z" fill="#11100F"/>
<path d="M129.508 26.5948C128.332 26.9326 127.111 27.0901 125.887 27.0612C121.128 27.0612 117.921 24.4581 117.921 18.4918V15.8264C117.921 9.84243 121.128 7.23919 125.887 7.23919C127.111 7.21273 128.331 7.36994 129.508 7.70564C129.923 7.83892 130.078 7.91442 130.078 8.27869V11.615C130.078 11.9526 129.923 12.1081 129.637 12.1081H129.557C128.355 11.9666 127.146 11.8895 125.936 11.8771C124.537 11.8771 123.289 12.499 123.289 15.8086V18.4741C123.289 21.757 124.533 22.4101 125.936 22.4101C127.146 22.3964 128.355 22.3178 129.557 22.1746H129.606C129.914 22.1746 130.047 22.3301 130.047 22.6677V26.0216C130.078 26.3594 129.923 26.4659 129.508 26.5948Z" fill="#11100F"/>
</svg>
