<svg width="24" height="24" viewBox="0 0 24 24" fill="none" xmlns="http://www.w3.org/2000/svg">
<path d="M23.5861 19.8628H0.413812C0.185297 19.8628 0 19.6775 0 19.449V4.55248C0 4.32397 0.185297 4.13867 0.413812 4.13867H23.5862C23.8147 4.13867 24 4.32397 24 4.55248V19.449C24 19.6776 23.8147 19.8628 23.5861 19.8628Z" fill="#F5F5F5"/>
<path d="M24 5.34828H0V4.55248C0 4.32397 0.185297 4.13867 0.413812 4.13867H23.5862C23.8147 4.13867 24 4.32397 24 4.55248L24 5.34828Z" fill="#FF4B55"/>
<path d="M24 8.97656H0V10.1861H24V8.97656Z" fill="#FF4B55"/>
<path d="M24 6.55859H0V7.76815H24V6.55859Z" fill="#FF4B55"/>
<path d="M24 12.6061H0.413812C0.185297 12.6061 0 12.4208 0 12.1923V11.3965H24V12.6061Z" fill="#FF4B55"/>
<path d="M24 16.2344H0V17.4439H24V16.2344Z" fill="#FF4B55"/>
<path d="M23.5861 19.8619H0.413812C0.185297 19.8619 0 19.6766 0 19.4481V18.6523H24V19.4481C24 19.6767 23.8147 19.8619 23.5861 19.8619Z" fill="#FF4B55"/>
<path d="M24 13.8145H0V15.024H24V13.8145Z" fill="#FF4B55"/>
<path d="M10.7586 4.13867H0.413812C0.185297 4.13867 0 4.32392 0 4.55244V12.1916C0 12.4202 0.185297 12.6055 0.413812 12.6055H10.7586C10.9872 12.6055 11.1724 12.4202 11.1724 12.1916V4.55244C11.1724 4.32392 10.9871 4.13867 10.7586 4.13867Z" fill="#41479B"/>
<path d="M1.16186 5.08722L1.25345 5.36191L1.543 5.36411C1.5805 5.36444 1.59601 5.41226 1.56587 5.43452L1.33295 5.60655L1.42033 5.8826C1.43167 5.91832 1.39094 5.94794 1.36042 5.9261L1.12488 5.75777L0.889329 5.92614C0.858813 5.94794 0.818173 5.91836 0.829423 5.88265L0.916798 5.6066L0.683876 5.43457C0.653736 5.41226 0.669251 5.36449 0.706751 5.36416L0.996297 5.36196L1.08789 5.08727C1.0997 5.05165 1.14995 5.05165 1.16186 5.08722Z" fill="#F5F5F5"/>
<path d="M1.16186 6.52469L1.25345 6.79938L1.543 6.80158C1.5805 6.80191 1.59601 6.84972 1.56587 6.87199L1.33295 7.04402L1.42033 7.32006C1.43167 7.35578 1.39094 7.38541 1.36042 7.36356L1.12488 7.19523L0.889329 7.36361C0.858813 7.38541 0.818173 7.35583 0.829423 7.32011L0.916798 7.04406L0.683876 6.87203C0.653736 6.84972 0.669251 6.80195 0.706751 6.80163L0.996297 6.79942L1.08789 6.52474C1.0997 6.48916 1.14995 6.48916 1.16186 6.52469Z" fill="#F5F5F5"/>
<path d="M1.16186 7.96024L1.25345 8.23492L1.543 8.23713C1.5805 8.23745 1.59601 8.28527 1.56587 8.30753L1.33295 8.47956L1.42033 8.75561C1.43167 8.79133 1.39094 8.82095 1.36042 8.79911L1.12488 8.63078L0.889329 8.79916C0.858813 8.82095 0.818173 8.79138 0.829423 8.75566L0.916798 8.47961L0.683876 8.30758C0.653736 8.28527 0.669251 8.2375 0.706751 8.23717L0.996297 8.23497L1.08789 7.96028C1.0997 7.92471 1.14995 7.9247 1.16186 7.96024Z" fill="#F5F5F5"/>
<path d="M1.16186 9.39777L1.25345 9.67246L1.543 9.67466C1.5805 9.67499 1.59601 9.7228 1.56587 9.74507L1.33295 9.9171L1.42033 10.1931C1.43167 10.2289 1.39094 10.2585 1.36042 10.2366L1.12488 10.0683L0.889329 10.2367C0.858813 10.2585 0.818173 10.2289 0.829423 10.1932L0.916798 9.91715L0.683876 9.74511C0.653736 9.7228 0.669251 9.67504 0.706751 9.67471L0.996297 9.67251L1.08789 9.39782C1.0997 9.36219 1.14995 9.36219 1.16186 9.39777Z" fill="#F5F5F5"/>
<path d="M1.16186 10.8353L1.25345 11.11L1.543 11.1122C1.5805 11.1125 1.59601 11.1603 1.56587 11.1826L1.33295 11.3546L1.42033 11.6307C1.43167 11.6664 1.39094 11.696 1.36042 11.6742L1.12488 11.5059L0.889329 11.6742C0.858813 11.696 0.818173 11.6664 0.829423 11.6307L0.916798 11.3547L0.683876 11.1826C0.653736 11.1603 0.669251 11.1126 0.706751 11.1122L0.996297 11.11L1.08789 10.8354C1.0997 10.7997 1.14995 10.7997 1.16186 10.8353Z" fill="#F5F5F5"/>
<path d="M2.27709 5.79227L2.36869 6.06696L2.65823 6.06916C2.69573 6.06949 2.71125 6.1173 2.68111 6.13957L2.44819 6.3116L2.53556 6.58765C2.54691 6.62337 2.50617 6.65299 2.47566 6.63115L2.24011 6.46277L2.00456 6.63115C1.97405 6.65294 1.93341 6.62337 1.94466 6.58765L2.03203 6.3116L1.79911 6.13957C1.76897 6.11726 1.78449 6.06949 1.82199 6.06916L2.11153 6.06696L2.20313 5.79227C2.21489 5.75674 2.26523 5.75674 2.27709 5.79227Z" fill="#F5F5F5"/>
<path d="M2.27709 7.22786L2.36869 7.50254L2.65823 7.50475C2.69573 7.50507 2.71125 7.55289 2.68111 7.57515L2.44819 7.74718L2.53556 8.02323C2.54691 8.05895 2.50617 8.08857 2.47566 8.06673L2.24011 7.89835L2.00456 8.06673C1.97405 8.08853 1.93341 8.05899 1.94466 8.02323L2.03203 7.74718L1.79911 7.57515C1.76897 7.55284 1.78449 7.50507 1.82199 7.50475L2.11153 7.50254L2.20313 7.22786C2.21489 7.19228 2.26523 7.19228 2.27709 7.22786Z" fill="#F5F5F5"/>
<path d="M2.27709 8.66536L2.36869 8.94004L2.65823 8.94225C2.69573 8.94257 2.71125 8.99039 2.68111 9.01265L2.44819 9.18468L2.53556 9.46073C2.54691 9.49645 2.50617 9.52607 2.47566 9.50423L2.24011 9.33585L2.00456 9.50423C1.97405 9.52603 1.93341 9.49645 1.94466 9.46073L2.03203 9.18468L1.79911 9.01265C1.76897 8.99034 1.78449 8.94257 1.82199 8.94225L2.11153 8.94004L2.20313 8.66536C2.21489 8.62978 2.26523 8.62978 2.27709 8.66536Z" fill="#F5F5F5"/>
<path d="M2.27709 10.1028L2.36869 10.3775L2.65823 10.3797C2.69573 10.38 2.71125 10.4279 2.68111 10.4501L2.44819 10.6221L2.53556 10.8982C2.54691 10.9339 2.50617 10.9635 2.47566 10.9417L2.24011 10.7733L2.00456 10.9417C1.97405 10.9635 1.93341 10.9339 1.94466 10.8982L2.03203 10.6221L1.79911 10.4501C1.76897 10.4278 1.78449 10.38 1.82199 10.3797L2.11153 10.3775L2.20313 10.1028C2.21489 10.0673 2.26523 10.0673 2.27709 10.1028Z" fill="#F5F5F5"/>
<path d="M3.39233 5.08723L3.48392 5.36192L3.77347 5.36412C3.81097 5.36445 3.82648 5.41226 3.79634 5.43453L3.56342 5.60656L3.6508 5.8826C3.66214 5.91832 3.62141 5.94795 3.59089 5.9261L3.35534 5.75773L3.1198 5.9261C3.08928 5.9479 3.04864 5.91832 3.05989 5.8826L3.14727 5.60656L2.91434 5.43453C2.8842 5.41221 2.89972 5.36445 2.93722 5.36412L3.22677 5.36192L3.31836 5.08723C3.33017 5.05165 3.38047 5.05165 3.39233 5.08723Z" fill="#F5F5F5"/>
<path d="M3.39233 6.5247L3.48392 6.79938L3.77347 6.80159C3.81097 6.80191 3.82648 6.84973 3.79634 6.87199L3.56342 7.04402L3.6508 7.32007C3.66214 7.35579 3.62141 7.38541 3.59089 7.36357L3.35534 7.19519L3.1198 7.36357C3.08928 7.38537 3.04864 7.35579 3.05989 7.32007L3.14727 7.04402L2.91434 6.87199C2.8842 6.84968 2.89972 6.80191 2.93722 6.80159L3.22677 6.79938L3.31836 6.5247C3.33017 6.48916 3.38047 6.48916 3.39233 6.5247Z" fill="#F5F5F5"/>
<path d="M3.39233 7.96024L3.48392 8.23493L3.77347 8.23713C3.81097 8.23746 3.82648 8.28527 3.79634 8.30754L3.56342 8.47957L3.6508 8.75562C3.66214 8.79133 3.62141 8.82096 3.59089 8.79912L3.35534 8.63074L3.1198 8.79912C3.08928 8.82091 3.04864 8.79133 3.05989 8.75562L3.14727 8.47957L2.91434 8.30754C2.8842 8.28523 2.89972 8.23746 2.93722 8.23713L3.22677 8.23493L3.31836 7.96024C3.33017 7.92471 3.38047 7.92471 3.39233 7.96024Z" fill="#F5F5F5"/>
<path d="M3.39233 9.39778L3.48392 9.67246L3.77347 9.67467C3.81097 9.675 3.82648 9.72281 3.79634 9.74507L3.56342 9.9171L3.6508 10.1932C3.66214 10.2289 3.62141 10.2585 3.59089 10.2367L3.35534 10.0683L3.1198 10.2367C3.08928 10.2584 3.04864 10.2289 3.05989 10.1932L3.14727 9.9171L2.91434 9.74507C2.8842 9.72276 2.89972 9.675 2.93722 9.67467L3.22677 9.67246L3.31836 9.39778C3.33017 9.3622 3.38047 9.3622 3.39233 9.39778Z" fill="#F5F5F5"/>
<path d="M3.39233 10.8353L3.48392 11.11L3.77347 11.1122C3.81097 11.1125 3.82648 11.1603 3.79634 11.1826L3.56342 11.3546L3.6508 11.6307C3.66214 11.6664 3.62141 11.696 3.59089 11.6742L3.35534 11.5058L3.1198 11.6742C3.08928 11.696 3.04864 11.6664 3.05989 11.6307L3.14727 11.3546L2.91434 11.1826C2.8842 11.1603 2.89972 11.1125 2.93722 11.1122L3.22677 11.11L3.31836 10.8353C3.33017 10.7997 3.38047 10.7997 3.39233 10.8353Z" fill="#F5F5F5"/>
<path d="M4.50756 5.79227L4.59916 6.06696L4.8887 6.06916C4.9262 6.06949 4.94172 6.1173 4.91158 6.13957L4.67866 6.3116L4.76603 6.58765C4.77737 6.62337 4.73664 6.65299 4.70612 6.63115L4.47058 6.46277L4.23503 6.63115C4.20452 6.65294 4.16388 6.62337 4.17513 6.58765L4.2625 6.3116L4.02958 6.13957C3.99944 6.11726 4.01495 6.06949 4.05245 6.06916L4.342 6.06696L4.43359 5.79227C4.44536 5.75674 4.4957 5.75674 4.50756 5.79227Z" fill="#F5F5F5"/>
<path d="M4.50756 7.22786L4.59916 7.50254L4.8887 7.50475C4.9262 7.50507 4.94172 7.55289 4.91158 7.57515L4.67866 7.74718L4.76603 8.02323C4.77737 8.05895 4.73664 8.08857 4.70612 8.06673L4.47058 7.89835L4.23503 8.06673C4.20452 8.08853 4.16388 8.05899 4.17513 8.02323L4.2625 7.74718L4.02958 7.57515C3.99944 7.55284 4.01495 7.50507 4.05245 7.50475L4.342 7.50254L4.43359 7.22786C4.44536 7.19228 4.4957 7.19228 4.50756 7.22786Z" fill="#F5F5F5"/>
<path d="M4.50756 8.66536L4.59916 8.94004L4.8887 8.94225C4.9262 8.94257 4.94172 8.99039 4.91158 9.01265L4.67866 9.18468L4.76603 9.46073C4.77737 9.49645 4.73664 9.52607 4.70612 9.50423L4.47058 9.33585L4.23503 9.50423C4.20452 9.52603 4.16388 9.49645 4.17513 9.46073L4.2625 9.18468L4.02958 9.01265C3.99944 8.99034 4.01495 8.94257 4.05245 8.94225L4.342 8.94004L4.43359 8.66536C4.44536 8.62978 4.4957 8.62978 4.50756 8.66536Z" fill="#F5F5F5"/>
<path d="M4.50756 10.1028L4.59916 10.3775L4.8887 10.3797C4.9262 10.38 4.94172 10.4279 4.91158 10.4501L4.67866 10.6221L4.76603 10.8982C4.77737 10.9339 4.73664 10.9635 4.70612 10.9417L4.47058 10.7733L4.23503 10.9417C4.20452 10.9635 4.16388 10.9339 4.17513 10.8982L4.2625 10.6221L4.02958 10.4501C3.99944 10.4278 4.01495 10.38 4.05245 10.3797L4.342 10.3775L4.43359 10.1028C4.44536 10.0673 4.4957 10.0673 4.50756 10.1028Z" fill="#F5F5F5"/>
<path d="M5.62284 5.08723L5.71444 5.36192L6.00398 5.36412C6.04148 5.36445 6.057 5.41226 6.02686 5.43453L5.79394 5.60656L5.88131 5.8826C5.89266 5.91832 5.85192 5.94795 5.82141 5.9261L5.58581 5.75773L5.35027 5.9261C5.31975 5.9479 5.27911 5.91832 5.29036 5.8826L5.37774 5.60656L5.14481 5.43453C5.11467 5.41221 5.13019 5.36445 5.16769 5.36412L5.45724 5.36192L5.54883 5.08723C5.56069 5.05165 5.61098 5.05165 5.62284 5.08723Z" fill="#F5F5F5"/>
<path d="M5.62284 6.5247L5.71444 6.79938L6.00398 6.80159C6.04148 6.80191 6.057 6.84973 6.02686 6.87199L5.79394 7.04402L5.88131 7.32007C5.89266 7.35579 5.85192 7.38541 5.82141 7.36357L5.58581 7.19519L5.35027 7.36357C5.31975 7.38537 5.27911 7.35579 5.29036 7.32007L5.37774 7.04402L5.14481 6.87199C5.11467 6.84968 5.13019 6.80191 5.16769 6.80159L5.45724 6.79938L5.54883 6.5247C5.56069 6.48916 5.61098 6.48916 5.62284 6.5247Z" fill="#F5F5F5"/>
<path d="M5.62284 7.96024L5.71444 8.23493L6.00398 8.23713C6.04148 8.23746 6.057 8.28527 6.02686 8.30754L5.79394 8.47957L5.88131 8.75562C5.89266 8.79133 5.85192 8.82096 5.82141 8.79912L5.58581 8.63074L5.35027 8.79912C5.31975 8.82091 5.27911 8.79133 5.29036 8.75562L5.37774 8.47957L5.14481 8.30754C5.11467 8.28523 5.13019 8.23746 5.16769 8.23713L5.45724 8.23493L5.54883 7.96024C5.56069 7.92471 5.61098 7.92471 5.62284 7.96024Z" fill="#F5F5F5"/>
<path d="M5.62284 9.39778L5.71444 9.67246L6.00398 9.67467C6.04148 9.675 6.057 9.72281 6.02686 9.74507L5.79394 9.9171L5.88131 10.1932C5.89266 10.2289 5.85192 10.2585 5.82141 10.2367L5.58581 10.0683L5.35027 10.2367C5.31975 10.2584 5.27911 10.2289 5.29036 10.1932L5.37774 9.9171L5.14481 9.74507C5.11467 9.72276 5.13019 9.675 5.16769 9.67467L5.45724 9.67246L5.54883 9.39778C5.56069 9.3622 5.61098 9.3622 5.62284 9.39778Z" fill="#F5F5F5"/>
<path d="M5.62284 10.8353L5.71444 11.11L6.00398 11.1122C6.04148 11.1125 6.057 11.1603 6.02686 11.1826L5.79394 11.3546L5.88131 11.6307C5.89266 11.6664 5.85192 11.696 5.82141 11.6742L5.58581 11.5058L5.35027 11.6742C5.31975 11.696 5.27911 11.6664 5.29036 11.6307L5.37774 11.3546L5.14481 11.1826C5.11467 11.1603 5.13019 11.1125 5.16769 11.1122L5.45724 11.11L5.54883 10.8353C5.56069 10.7997 5.61098 10.7997 5.62284 10.8353Z" fill="#F5F5F5"/>
<path d="M6.73803 5.79227L6.82963 6.06696L7.11917 6.06916C7.15667 6.06949 7.17219 6.1173 7.14205 6.13957L6.90912 6.3116L6.9965 6.58765C7.00784 6.62337 6.96711 6.65299 6.93659 6.63115L6.70105 6.46277L6.4655 6.63115C6.43498 6.65294 6.39434 6.62337 6.40559 6.58765L6.49297 6.3116L6.26005 6.13957C6.22991 6.11726 6.24542 6.06949 6.28292 6.06916L6.57247 6.06696L6.66406 5.79227C6.67592 5.75674 6.72617 5.75674 6.73803 5.79227Z" fill="#F5F5F5"/>
<path d="M6.73803 7.22786L6.82963 7.50254L7.11917 7.50475C7.15667 7.50507 7.17219 7.55289 7.14205 7.57515L6.90912 7.74718L6.9965 8.02323C7.00784 8.05895 6.96711 8.08857 6.93659 8.06673L6.70105 7.89835L6.4655 8.06673C6.43498 8.08853 6.39434 8.05899 6.40559 8.02323L6.49297 7.74718L6.26005 7.57515C6.22991 7.55284 6.24542 7.50507 6.28292 7.50475L6.57247 7.50254L6.66406 7.22786C6.67592 7.19228 6.72617 7.19228 6.73803 7.22786Z" fill="#F5F5F5"/>
<path d="M6.73803 8.66536L6.82963 8.94004L7.11917 8.94225C7.15667 8.94257 7.17219 8.99039 7.14205 9.01265L6.90912 9.18468L6.9965 9.46073C7.00784 9.49645 6.96711 9.52607 6.93659 9.50423L6.70105 9.33585L6.4655 9.50423C6.43498 9.52603 6.39434 9.49645 6.40559 9.46073L6.49297 9.18468L6.26005 9.01265C6.22991 8.99034 6.24542 8.94257 6.28292 8.94225L6.57247 8.94004L6.66406 8.66536C6.67592 8.62978 6.72617 8.62978 6.73803 8.66536Z" fill="#F5F5F5"/>
<path d="M6.73803 10.1028L6.82963 10.3775L7.11917 10.3797C7.15667 10.38 7.17219 10.4279 7.14205 10.4501L6.90912 10.6221L6.9965 10.8982C7.00784 10.9339 6.96711 10.9635 6.93659 10.9417L6.70105 10.7733L6.4655 10.9417C6.43498 10.9635 6.39434 10.9339 6.40559 10.8982L6.49297 10.6221L6.26005 10.4501C6.22991 10.4278 6.24542 10.38 6.28292 10.3797L6.57247 10.3775L6.66406 10.1028C6.67592 10.0673 6.72617 10.0673 6.73803 10.1028Z" fill="#F5F5F5"/>
<path d="M7.85327 5.08723L7.94486 5.36192L8.23441 5.36412C8.27191 5.36445 8.28742 5.41226 8.25728 5.43453L8.02436 5.60656L8.11173 5.8826C8.12308 5.91832 8.08234 5.94795 8.05183 5.9261L7.81628 5.75773L7.58074 5.9261C7.55022 5.9479 7.50958 5.91832 7.52083 5.8826L7.6082 5.60656L7.37528 5.43453C7.34514 5.41221 7.36066 5.36445 7.39816 5.36412L7.6877 5.36192L7.7793 5.08723C7.79106 5.05165 7.84141 5.05165 7.85327 5.08723Z" fill="#F5F5F5"/>
<path d="M7.85327 6.5247L7.94486 6.79938L8.23441 6.80159C8.27191 6.80191 8.28742 6.84973 8.25728 6.87199L8.02436 7.04402L8.11173 7.32007C8.12308 7.35579 8.08234 7.38541 8.05183 7.36357L7.81628 7.19519L7.58074 7.36357C7.55022 7.38537 7.50958 7.35579 7.52083 7.32007L7.6082 7.04402L7.37528 6.87199C7.34514 6.84968 7.36066 6.80191 7.39816 6.80159L7.6877 6.79938L7.7793 6.5247C7.79106 6.48916 7.84141 6.48916 7.85327 6.5247Z" fill="#F5F5F5"/>
<path d="M7.85327 7.96024L7.94486 8.23493L8.23441 8.23713C8.27191 8.23746 8.28742 8.28527 8.25728 8.30754L8.02436 8.47957L8.11173 8.75562C8.12308 8.79133 8.08234 8.82096 8.05183 8.79912L7.81628 8.63074L7.58074 8.79912C7.55022 8.82091 7.50958 8.79133 7.52083 8.75562L7.6082 8.47957L7.37528 8.30754C7.34514 8.28523 7.36066 8.23746 7.39816 8.23713L7.6877 8.23493L7.7793 7.96024C7.79106 7.92471 7.84141 7.92471 7.85327 7.96024Z" fill="#F5F5F5"/>
<path d="M7.85327 9.39778L7.94486 9.67246L8.23441 9.67467C8.27191 9.675 8.28742 9.72281 8.25728 9.74507L8.02436 9.9171L8.11173 10.1932C8.12308 10.2289 8.08234 10.2585 8.05183 10.2367L7.81628 10.0683L7.58074 10.2367C7.55022 10.2584 7.50958 10.2289 7.52083 10.1932L7.6082 9.9171L7.37528 9.74507C7.34514 9.72276 7.36066 9.675 7.39816 9.67467L7.6877 9.67246L7.7793 9.39778C7.79106 9.3622 7.84141 9.3622 7.85327 9.39778Z" fill="#F5F5F5"/>
<path d="M7.85327 10.8353L7.94486 11.11L8.23441 11.1122C8.27191 11.1125 8.28742 11.1603 8.25728 11.1826L8.02436 11.3546L8.11173 11.6307C8.12308 11.6664 8.08234 11.696 8.05183 11.6742L7.81628 11.5058L7.58074 11.6742C7.55022 11.696 7.50958 11.6664 7.52083 11.6307L7.6082 11.3546L7.37528 11.1826C7.34514 11.1603 7.36066 11.1125 7.39816 11.1122L7.6877 11.11L7.7793 10.8353C7.79106 10.7997 7.84141 10.7997 7.85327 10.8353Z" fill="#F5F5F5"/>
<path d="M8.96948 5.79227L9.06107 6.06696L9.35062 6.06916C9.38812 6.06949 9.40363 6.1173 9.37349 6.13957L9.14057 6.3116L9.22795 6.58765C9.23929 6.62337 9.19855 6.65299 9.16804 6.63115L8.93249 6.46277L8.69695 6.63115C8.66643 6.65294 8.62579 6.62337 8.63704 6.58765L8.72441 6.3116L8.49149 6.13957C8.46135 6.11726 8.47687 6.06949 8.51437 6.06916L8.80391 6.06696L8.89551 5.79227C8.90732 5.75674 8.95766 5.75674 8.96948 5.79227Z" fill="#F5F5F5"/>
<path d="M8.96948 7.22786L9.06107 7.50254L9.35062 7.50475C9.38812 7.50507 9.40363 7.55289 9.37349 7.57515L9.14057 7.74718L9.22795 8.02323C9.23929 8.05895 9.19855 8.08857 9.16804 8.06673L8.93249 7.89835L8.69695 8.06673C8.66643 8.08853 8.62579 8.05899 8.63704 8.02323L8.72441 7.74718L8.49149 7.57515C8.46135 7.55284 8.47687 7.50507 8.51437 7.50475L8.80391 7.50254L8.89551 7.22786C8.90732 7.19228 8.95766 7.19228 8.96948 7.22786Z" fill="#F5F5F5"/>
<path d="M8.96948 8.66536L9.06107 8.94004L9.35062 8.94225C9.38812 8.94257 9.40363 8.99039 9.37349 9.01265L9.14057 9.18468L9.22795 9.46073C9.23929 9.49645 9.19855 9.52607 9.16804 9.50423L8.93249 9.33585L8.69695 9.50423C8.66643 9.52603 8.62579 9.49645 8.63704 9.46073L8.72441 9.18468L8.49149 9.01265C8.46135 8.99034 8.47687 8.94257 8.51437 8.94225L8.80391 8.94004L8.89551 8.66536C8.90732 8.62978 8.95766 8.62978 8.96948 8.66536Z" fill="#F5F5F5"/>
<path d="M8.96948 10.1028L9.06107 10.3775L9.35062 10.3797C9.38812 10.38 9.40363 10.4279 9.37349 10.4501L9.14057 10.6221L9.22795 10.8982C9.23929 10.9339 9.19855 10.9635 9.16804 10.9417L8.93249 10.7733L8.69695 10.9417C8.66643 10.9635 8.62579 10.9339 8.63704 10.8982L8.72441 10.6221L8.49149 10.4501C8.46135 10.4278 8.47687 10.38 8.51437 10.3797L8.80391 10.3775L8.89551 10.1028C8.90732 10.0673 8.95766 10.0673 8.96948 10.1028Z" fill="#F5F5F5"/>
<path d="M10.0847 5.08723L10.1763 5.36192L10.4659 5.36412C10.5034 5.36445 10.5189 5.41226 10.4887 5.43453L10.2558 5.60656L10.3432 5.8826C10.3545 5.91832 10.3138 5.94795 10.2833 5.9261L10.0477 5.75773L9.81218 5.9261C9.78167 5.9479 9.74102 5.91832 9.75227 5.8826L9.83965 5.60656L9.60673 5.43453C9.57659 5.41221 9.5921 5.36445 9.6296 5.36412L9.91915 5.36192L10.0107 5.08723C10.0226 5.05165 10.0728 5.05165 10.0847 5.08723Z" fill="#F5F5F5"/>
<path d="M10.0847 6.5247L10.1763 6.79938L10.4659 6.80159C10.5034 6.80191 10.5189 6.84973 10.4887 6.87199L10.2558 7.04402L10.3432 7.32007C10.3545 7.35579 10.3138 7.38541 10.2833 7.36357L10.0477 7.19519L9.81218 7.36357C9.78167 7.38537 9.74102 7.35579 9.75227 7.32007L9.83965 7.04402L9.60673 6.87199C9.57659 6.84968 9.5921 6.80191 9.6296 6.80159L9.91915 6.79938L10.0107 6.5247C10.0226 6.48916 10.0728 6.48916 10.0847 6.5247Z" fill="#F5F5F5"/>
<path d="M10.0847 7.96024L10.1763 8.23493L10.4659 8.23713C10.5034 8.23746 10.5189 8.28527 10.4887 8.30754L10.2558 8.47957L10.3432 8.75562C10.3545 8.79133 10.3138 8.82096 10.2833 8.79912L10.0477 8.63074L9.81218 8.79912C9.78167 8.82091 9.74102 8.79133 9.75227 8.75562L9.83965 8.47957L9.60673 8.30754C9.57659 8.28523 9.5921 8.23746 9.6296 8.23713L9.91915 8.23493L10.0107 7.96024C10.0226 7.92471 10.0728 7.92471 10.0847 7.96024Z" fill="#F5F5F5"/>
<path d="M10.0847 9.39778L10.1763 9.67246L10.4659 9.67467C10.5034 9.675 10.5189 9.72281 10.4887 9.74507L10.2558 9.9171L10.3432 10.1932C10.3545 10.2289 10.3138 10.2585 10.2833 10.2367L10.0477 10.0683L9.81218 10.2367C9.78167 10.2584 9.74102 10.2289 9.75227 10.1932L9.83965 9.9171L9.60673 9.74507C9.57659 9.72276 9.5921 9.675 9.6296 9.67467L9.91915 9.67246L10.0107 9.39778C10.0226 9.3622 10.0728 9.3622 10.0847 9.39778Z" fill="#F5F5F5"/>
<path d="M10.0847 10.8353L10.1763 11.11L10.4659 11.1122C10.5034 11.1125 10.5189 11.1603 10.4887 11.1826L10.2558 11.3546L10.3432 11.6307C10.3545 11.6664 10.3138 11.696 10.2833 11.6742L10.0477 11.5058L9.81218 11.6742C9.78167 11.696 9.74102 11.6664 9.75227 11.6307L9.83965 11.3546L9.60673 11.1826C9.57659 11.1603 9.5921 11.1125 9.6296 11.1122L9.91915 11.11L10.0107 10.8353C10.0226 10.7997 10.0728 10.7997 10.0847 10.8353Z" fill="#F5F5F5"/>
</svg>
