<svg width="24" height="24" viewBox="0 0 24 24" fill="none" xmlns="http://www.w3.org/2000/svg">
<g clip-path="url(#clip0_608_33455)">
<path d="M29.6838 24.0015H-5.68671C-6.03552 24.0015 -6.31836 23.7186 -6.31836 23.3698V0.631646C-6.31836 0.282838 -6.03552 0 -5.68671 0H29.6838C30.0326 0 30.3155 0.282838 30.3155 0.631646V23.3698C30.3154 23.7187 30.0326 24.0015 29.6838 24.0015Z" fill="#F5F5F5"/>
<path d="M30.3154 1.84636H-6.31836V0.631646C-6.31836 0.282838 -6.03552 0 -5.68671 0H29.6838C30.0326 0 30.3155 0.282838 30.3155 0.631646L30.3154 1.84636Z" fill="#FF4B55"/>
<path d="M30.3154 7.38477H-6.31836V9.23105H30.3154V7.38477Z" fill="#FF4B55"/>
<path d="M30.3154 3.69336H-6.31836V5.53964H30.3154V3.69336Z" fill="#FF4B55"/>
<path d="M30.3154 12.9245H-5.68671C-6.03552 12.9245 -6.31836 12.6416 -6.31836 12.2928V11.0781H30.3154V12.9245Z" fill="#FF4B55"/>
<path d="M30.3154 18.4629H-6.31836V20.3092H30.3154V18.4629Z" fill="#FF4B55"/>
<path d="M29.6838 24.0006H-5.68671C-6.03552 24.0006 -6.31836 23.7177 -6.31836 23.3689V22.1543H30.3154V23.369C30.3154 23.7178 30.0326 24.0006 29.6838 24.0006Z" fill="#FF4B55"/>
<path d="M30.3154 14.7695H-6.31836V16.6158H30.3154V14.7695Z" fill="#FF4B55"/>
<path d="M10.1037 0H-5.68671C-6.03552 0 -6.31836 0.282767 -6.31836 0.631574V12.2921C-6.31836 12.6409 -6.03552 12.9238 -5.68671 12.9238H10.1037C10.4525 12.9238 10.7354 12.6409 10.7354 12.2921V0.631574C10.7353 0.282767 10.4525 0 10.1037 0Z" fill="#41479B"/>
<path d="M0.562474 2.52505L0.702283 2.94434L1.14425 2.9477C1.20149 2.9482 1.22517 3.02118 1.17917 3.05517L0.823632 3.31776L0.957002 3.73912C0.974317 3.79364 0.91214 3.83886 0.865561 3.80552L0.50602 3.54851L0.14648 3.80552C0.0999011 3.83879 0.037867 3.79364 0.055039 3.73912L0.188409 3.31776L-0.167125 3.05517C-0.213132 3.02111 -0.189449 2.9482 -0.132209 2.9477L0.309758 2.94434L0.449568 2.52505C0.467527 2.47082 0.544371 2.47082 0.562474 2.52505Z" fill="#F5F5F5"/>
<path d="M0.562474 4.71651L0.702283 5.1358L1.14425 5.13916C1.20149 5.13966 1.22517 5.21264 1.17917 5.24663L0.823632 5.50922L0.957002 5.93058C0.974317 5.9851 0.91214 6.03032 0.865561 5.99698L0.50602 5.73997L0.14648 5.99698C0.0999011 6.03025 0.037867 5.98517 0.055039 5.93058L0.188409 5.50922L-0.167125 5.24663C-0.213132 5.21257 -0.189449 5.13966 -0.132209 5.13916L0.309758 5.1358L0.449568 4.71651C0.467527 4.6622 0.544371 4.6622 0.562474 4.71651Z" fill="#F5F5F5"/>
<path d="M0.562474 6.90987L0.702283 7.32915L1.14425 7.33252C1.20149 7.33302 1.22517 7.406 1.17917 7.43999L0.823632 7.70258L0.957002 8.12394C0.974317 8.17846 0.91214 8.22368 0.865561 8.19034L0.50602 7.93333L0.14648 8.19034C0.0999011 8.22361 0.037867 8.17846 0.055039 8.12394L0.188409 7.70258L-0.167125 7.43999C-0.213132 7.40593 -0.189449 7.33302 -0.132209 7.33252L0.309758 7.32915L0.449568 6.90987C0.467527 6.85556 0.544371 6.85556 0.562474 6.90987Z" fill="#F5F5F5"/>
<path d="M0.562474 9.10513L0.702283 9.52441L1.14425 9.52778C1.20149 9.52828 1.22517 9.60126 1.17917 9.63525L0.823632 9.89784L0.957002 10.3192C0.974317 10.3737 0.91214 10.4189 0.865561 10.3856L0.50602 10.1286L0.14648 10.3856C0.0999011 10.4189 0.037867 10.3737 0.055039 10.3192L0.188409 9.89784L-0.167125 9.63525C-0.213132 9.60119 -0.189449 9.52828 -0.132209 9.52778L0.309758 9.52441L0.449568 9.10513C0.467527 9.05089 0.544371 9.05089 0.562474 9.10513Z" fill="#F5F5F5"/>
<path d="M2.26372 1.44893L2.40353 1.86822L2.84549 1.87158C2.90273 1.87208 2.92642 1.94506 2.88041 1.97905L2.52488 2.24164L2.65825 2.663C2.67556 2.71752 2.61338 2.76274 2.5668 2.7294L2.20719 2.47239L1.84765 2.7294C1.80107 2.76267 1.73904 2.71752 1.75621 2.663L1.88958 2.24164L1.53405 1.97905C1.48804 1.94499 1.51172 1.87208 1.56896 1.87158L2.01093 1.86822L2.15074 1.44893C2.16884 1.39463 2.24561 1.39463 2.26372 1.44893Z" fill="#F5F5F5"/>
<path d="M2.26372 3.64224L2.40353 4.06152L2.84549 4.06489C2.90273 4.06539 2.92642 4.13837 2.88041 4.17236L2.52488 4.43494L2.65825 4.85631C2.67556 4.91083 2.61338 4.95605 2.5668 4.9227L2.20719 4.66569L1.84765 4.9227C1.80107 4.95597 1.73904 4.91083 1.75621 4.85631L1.88958 4.43494L1.53405 4.17236C1.48804 4.1383 1.51172 4.06539 1.56896 4.06489L2.01093 4.06152L2.15074 3.64224C2.16884 3.588 2.24561 3.588 2.26372 3.64224Z" fill="#F5F5F5"/>
<path d="M2.26372 5.83365L2.40353 6.25293L2.84549 6.25629C2.90273 6.25679 2.92642 6.32978 2.88041 6.36376L2.52488 6.62635L2.65825 7.04771C2.67556 7.10223 2.61338 7.14745 2.5668 7.11411L2.20719 6.8571L1.84765 7.11411C1.80107 7.14738 1.73904 7.10223 1.75621 7.04771L1.88958 6.62635L1.53405 6.36376C1.48804 6.3297 1.51172 6.25679 1.56896 6.25629L2.01093 6.25293L2.15074 5.83365C2.16884 5.77941 2.24561 5.77941 2.26372 5.83365Z" fill="#F5F5F5"/>
<path d="M2.26372 8.02901L2.40353 8.4483L2.84549 8.45166C2.90273 8.45216 2.92642 8.52514 2.88041 8.55913L2.52488 8.82172L2.65825 9.24308C2.67556 9.2976 2.61338 9.34282 2.5668 9.30948L2.20719 9.05247L1.84765 9.30948C1.80107 9.34275 1.73904 9.2976 1.75621 9.24308L1.88958 8.82172L1.53405 8.55913C1.48804 8.52507 1.51172 8.45216 1.56896 8.45166L2.01093 8.4483L2.15074 8.02901C2.16884 7.9747 2.24561 7.9747 2.26372 8.02901Z" fill="#F5F5F5"/>
<path d="M2.26372 10.2224L2.40353 10.6417L2.84549 10.6451C2.90273 10.6456 2.92642 10.7186 2.88041 10.7525L2.52488 11.0151L2.65825 11.4365C2.67556 11.491 2.61338 11.5362 2.5668 11.5029L2.20719 11.2459L1.84765 11.5029C1.80107 11.5362 1.73904 11.491 1.75621 11.4365L1.88958 11.0151L1.53405 10.7525C1.48804 10.7185 1.51172 10.6456 1.56896 10.6451L2.01093 10.6417L2.15074 10.2224C2.16884 10.168 2.24561 10.168 2.26372 10.2224Z" fill="#F5F5F5"/>
<path d="M3.96677 2.52505L4.10658 2.94434L4.54855 2.9477C4.60579 2.9482 4.62947 3.02118 4.58346 3.05517L4.22793 3.31776L4.3613 3.73912C4.37861 3.79364 4.31644 3.83886 4.26986 3.80552L3.91032 3.54851L3.55078 3.80552C3.5042 3.83879 3.44216 3.79364 3.45934 3.73912L3.5927 3.31776L3.23717 3.05517C3.19116 3.02111 3.21485 2.9482 3.27209 2.9477L3.71406 2.94434L3.85386 2.52505C3.87197 2.47082 3.94867 2.47082 3.96677 2.52505Z" fill="#F5F5F5"/>
<path d="M3.96677 4.71651L4.10658 5.1358L4.54855 5.13916C4.60579 5.13966 4.62947 5.21264 4.58346 5.24663L4.22793 5.50922L4.3613 5.93058C4.37861 5.9851 4.31644 6.03032 4.26986 5.99698L3.91032 5.73997L3.55078 5.99698C3.5042 6.03025 3.44216 5.98517 3.45934 5.93058L3.5927 5.50922L3.23717 5.24663C3.19116 5.21257 3.21485 5.13966 3.27209 5.13916L3.71406 5.1358L3.85386 4.71651C3.87197 4.6622 3.94867 4.6622 3.96677 4.71651Z" fill="#F5F5F5"/>
<path d="M3.96677 6.90987L4.10658 7.32915L4.54855 7.33252C4.60579 7.33302 4.62947 7.406 4.58346 7.43999L4.22793 7.70258L4.3613 8.12394C4.37861 8.17846 4.31644 8.22368 4.26986 8.19034L3.91032 7.93333L3.55078 8.19034C3.5042 8.22361 3.44216 8.17846 3.45934 8.12394L3.5927 7.70258L3.23717 7.43999C3.19116 7.40593 3.21485 7.33302 3.27209 7.33252L3.71406 7.32915L3.85386 6.90987C3.87197 6.85556 3.94867 6.85556 3.96677 6.90987Z" fill="#F5F5F5"/>
<path d="M3.96677 9.10513L4.10658 9.52441L4.54855 9.52778C4.60579 9.52828 4.62947 9.60126 4.58346 9.63525L4.22793 9.89784L4.3613 10.3192C4.37861 10.3737 4.31644 10.4189 4.26986 10.3856L3.91032 10.1286L3.55078 10.3856C3.5042 10.4189 3.44216 10.3737 3.45934 10.3192L3.5927 9.89784L3.23717 9.63525C3.19116 9.60119 3.21485 9.52828 3.27209 9.52778L3.71406 9.52441L3.85386 9.10513C3.87197 9.05089 3.94867 9.05089 3.96677 9.10513Z" fill="#F5F5F5"/>
<path d="M5.66794 1.44893L5.80775 1.86822L6.24972 1.87158C6.30696 1.87208 6.33064 1.94506 6.28463 1.97905L5.9291 2.24164L6.06247 2.663C6.07979 2.71752 6.01761 2.76274 5.97103 2.7294L5.61149 2.47239L5.25195 2.7294C5.20537 2.76267 5.14334 2.71752 5.16051 2.663L5.29388 2.24164L4.93834 1.97905C4.89234 1.94499 4.91602 1.87208 4.97326 1.87158L5.41523 1.86822L5.55504 1.44893C5.57299 1.39463 5.64984 1.39463 5.66794 1.44893Z" fill="#F5F5F5"/>
<path d="M5.66794 3.64224L5.80775 4.06152L6.24972 4.06489C6.30696 4.06539 6.33064 4.13837 6.28463 4.17236L5.9291 4.43494L6.06247 4.85631C6.07979 4.91083 6.01761 4.95605 5.97103 4.9227L5.61149 4.66569L5.25195 4.9227C5.20537 4.95597 5.14334 4.91083 5.16051 4.85631L5.29388 4.43494L4.93834 4.17236C4.89234 4.1383 4.91602 4.06539 4.97326 4.06489L5.41523 4.06152L5.55504 3.64224C5.57299 3.588 5.64984 3.588 5.66794 3.64224Z" fill="#F5F5F5"/>
<path d="M5.66794 5.83365L5.80775 6.25293L6.24972 6.25629C6.30696 6.25679 6.33064 6.32978 6.28463 6.36376L5.9291 6.62635L6.06247 7.04771C6.07979 7.10223 6.01761 7.14745 5.97103 7.11411L5.61149 6.8571L5.25195 7.11411C5.20537 7.14738 5.14334 7.10223 5.16051 7.04771L5.29388 6.62635L4.93834 6.36376C4.89234 6.3297 4.91602 6.25679 4.97326 6.25629L5.41523 6.25293L5.55504 5.83365C5.57299 5.77941 5.64984 5.77941 5.66794 5.83365Z" fill="#F5F5F5"/>
<path d="M5.66794 8.02901L5.80775 8.4483L6.24972 8.45166C6.30696 8.45216 6.33064 8.52514 6.28463 8.55913L5.9291 8.82172L6.06247 9.24308C6.07979 9.2976 6.01761 9.34282 5.97103 9.30948L5.61149 9.05247L5.25195 9.30948C5.20537 9.34275 5.14334 9.2976 5.16051 9.24308L5.29388 8.82172L4.93834 8.55913C4.89234 8.52507 4.91602 8.45216 4.97326 8.45166L5.41523 8.4483L5.55504 8.02901C5.57299 7.9747 5.64984 7.9747 5.66794 8.02901Z" fill="#F5F5F5"/>
<path d="M5.66794 10.2224L5.80775 10.6417L6.24972 10.6451C6.30696 10.6456 6.33064 10.7186 6.28463 10.7525L5.9291 11.0151L6.06247 11.4365C6.07979 11.491 6.01761 11.5362 5.97103 11.5029L5.61149 11.2459L5.25195 11.5029C5.20537 11.5362 5.14334 11.491 5.16051 11.4365L5.29388 11.0151L4.93834 10.7525C4.89234 10.7185 4.91602 10.6456 4.97326 10.6451L5.41523 10.6417L5.55504 10.2224C5.57299 10.168 5.64984 10.168 5.66794 10.2224Z" fill="#F5F5F5"/>
<path d="M7.37497 2.52505L7.51478 2.94434L7.95675 2.9477C8.01399 2.9482 8.03767 3.02118 7.99167 3.05517L7.63613 3.31776L7.7695 3.73912C7.78682 3.79364 7.72464 3.83886 7.67806 3.80552L7.31852 3.54851L6.95898 3.80552C6.9124 3.83879 6.85037 3.79364 6.86754 3.73912L7.00091 3.31776L6.64538 3.05517C6.59937 3.02111 6.62305 2.9482 6.68029 2.9477L7.12226 2.94434L7.26207 2.52505C7.2801 2.47082 7.35694 2.47082 7.37497 2.52505Z" fill="#F5F5F5"/>
<path d="M7.37497 4.71651L7.51478 5.1358L7.95675 5.13916C8.01399 5.13966 8.03767 5.21264 7.99167 5.24663L7.63613 5.50922L7.7695 5.93058C7.78682 5.9851 7.72464 6.03032 7.67806 5.99698L7.31852 5.73997L6.95898 5.99698C6.9124 6.03025 6.85037 5.98517 6.86754 5.93058L7.00091 5.50922L6.64538 5.24663C6.59937 5.21257 6.62305 5.13966 6.68029 5.13916L7.12226 5.1358L7.26207 4.71651C7.2801 4.6622 7.35694 4.6622 7.37497 4.71651Z" fill="#F5F5F5"/>
<path d="M7.37497 6.90987L7.51478 7.32915L7.95675 7.33252C8.01399 7.33302 8.03767 7.406 7.99167 7.43999L7.63613 7.70258L7.7695 8.12394C7.78682 8.17846 7.72464 8.22368 7.67806 8.19034L7.31852 7.93333L6.95898 8.19034C6.9124 8.22361 6.85037 8.17846 6.86754 8.12394L7.00091 7.70258L6.64538 7.43999C6.59937 7.40593 6.62305 7.33302 6.68029 7.33252L7.12226 7.32915L7.26207 6.90987C7.2801 6.85556 7.35694 6.85556 7.37497 6.90987Z" fill="#F5F5F5"/>
<path d="M7.37497 9.10513L7.51478 9.52441L7.95675 9.52778C8.01399 9.52828 8.03767 9.60126 7.99167 9.63525L7.63613 9.89784L7.7695 10.3192C7.78682 10.3737 7.72464 10.4189 7.67806 10.3856L7.31852 10.1286L6.95898 10.3856C6.9124 10.4189 6.85037 10.3737 6.86754 10.3192L7.00091 9.89784L6.64538 9.63525C6.59937 9.60119 6.62305 9.52828 6.68029 9.52778L7.12226 9.52441L7.26207 9.10513C7.2801 9.05089 7.35694 9.05089 7.37497 9.10513Z" fill="#F5F5F5"/>
<path d="M9.07419 1.44893L9.214 1.86822L9.65597 1.87158C9.71321 1.87208 9.73689 1.94506 9.69089 1.97905L9.33535 2.24164L9.46872 2.663C9.48604 2.71752 9.42386 2.76274 9.37728 2.7294L9.01774 2.47239L8.6582 2.7294C8.61162 2.76267 8.54959 2.71752 8.56676 2.663L8.70013 2.24164L8.34459 1.97905C8.29859 1.94499 8.32227 1.87208 8.37951 1.87158L8.82148 1.86822L8.96129 1.44893C8.97932 1.39463 9.05602 1.39463 9.07419 1.44893Z" fill="#F5F5F5"/>
<path d="M9.07419 3.64224L9.214 4.06152L9.65597 4.06489C9.71321 4.06539 9.73689 4.13837 9.69089 4.17236L9.33535 4.43494L9.46872 4.85631C9.48604 4.91083 9.42386 4.95605 9.37728 4.9227L9.01774 4.66569L8.6582 4.9227C8.61162 4.95597 8.54959 4.91083 8.56676 4.85631L8.70013 4.43494L8.34459 4.17236C8.29859 4.1383 8.32227 4.06539 8.37951 4.06489L8.82148 4.06152L8.96129 3.64224C8.97932 3.588 9.05602 3.588 9.07419 3.64224Z" fill="#F5F5F5"/>
<path d="M9.07419 5.83365L9.214 6.25293L9.65597 6.25629C9.71321 6.25679 9.73689 6.32978 9.69089 6.36376L9.33535 6.62635L9.46872 7.04771C9.48604 7.10223 9.42386 7.14745 9.37728 7.11411L9.01774 6.8571L8.6582 7.11411C8.61162 7.14738 8.54959 7.10223 8.56676 7.04771L8.70013 6.62635L8.34459 6.36376C8.29859 6.3297 8.32227 6.25679 8.37951 6.25629L8.82148 6.25293L8.96129 5.83365C8.97932 5.77941 9.05602 5.77941 9.07419 5.83365Z" fill="#F5F5F5"/>
<path d="M9.07419 8.02901L9.214 8.4483L9.65597 8.45166C9.71321 8.45216 9.73689 8.52514 9.69089 8.55913L9.33535 8.82172L9.46872 9.24308C9.48604 9.2976 9.42386 9.34282 9.37728 9.30948L9.01774 9.05247L8.6582 9.30948C8.61162 9.34275 8.54959 9.2976 8.56676 9.24308L8.70013 8.82172L8.34459 8.55913C8.29859 8.52507 8.32227 8.45216 8.37951 8.45166L8.82148 8.4483L8.96129 8.02901C8.97932 7.9747 9.05602 7.9747 9.07419 8.02901Z" fill="#F5F5F5"/>
<path d="M9.07419 10.2224L9.214 10.6417L9.65597 10.6451C9.71321 10.6456 9.73689 10.7186 9.69089 10.7525L9.33535 11.0151L9.46872 11.4365C9.48604 11.491 9.42386 11.5362 9.37728 11.5029L9.01774 11.2459L8.6582 11.5029C8.61162 11.5362 8.54959 11.491 8.56676 11.4365L8.70013 11.0151L8.34459 10.7525C8.29859 10.7185 8.32227 10.6456 8.37951 10.6451L8.82148 10.6417L8.96129 10.2224C8.97932 10.168 9.05602 10.168 9.07419 10.2224Z" fill="#F5F5F5"/>
</g>
<defs>
<clipPath id="clip0_608_33455">
<rect width="24" height="24" rx="12" fill="white"/>
</clipPath>
</defs>
</svg>
