<svg width="35" height="32" viewBox="0 0 35 32" fill="none" xmlns="http://www.w3.org/2000/svg">
<path fill-rule="evenodd" clip-rule="evenodd" d="M29.719 7.75924C29.06 6.66409 28.2582 5.63084 27.3137 4.68629C21.0653 -1.5621 10.9347 -1.5621 4.68629 4.68629C-1.5621 10.9347 -1.5621 21.0653 4.68629 27.3137C10.9347 33.5621 21.0653 33.5621 27.3137 27.3137C28.2581 26.3693 29.0598 25.3362 29.7187 24.2412C29.6681 24.2421 29.6173 24.2425 29.5665 24.2425H23.7483C19.1962 24.2425 15.5059 20.5523 15.5059 16.0002C15.5059 11.4481 19.1962 7.75786 23.7483 7.75786H29.5665C29.6174 7.75786 29.6683 7.75832 29.719 7.75924Z" fill="#FFC007"/>
<path fill-rule="evenodd" clip-rule="evenodd" d="M23.7483 10.668C20.8028 10.668 18.415 13.0557 18.415 16.0012C18.415 18.9467 20.8028 21.3345 23.7483 21.3345H29.5665C32.5119 21.3345 34.8997 18.9467 34.8997 16.0012C34.8997 13.0557 32.5119 10.668 29.5665 10.668H23.7483ZM29.5785 13.1458C28.0029 13.1458 26.7255 14.4256 26.7255 16.0012C26.7255 17.5768 28.0029 18.8566 29.5785 18.8566C31.1541 18.8566 32.4314 17.5768 32.4314 16.0012C32.4314 14.4256 31.1541 13.1458 29.5785 13.1458Z" fill="#32B141"/>
</svg>
